SplineFontDB: 3.0
FontName: Veleka-BoldItalic
FullName: Veleka Bold Italic
FamilyName: Veleka
Weight: Bold
Copyright: Copyright \\(c\\) by Stefan Peev, Context Ltd, 2016, with Reserved Font Name "Veleka". Veleka is complete modification of Charis SIL. Copyright \\(c\\) by SIL International, 1997-2014, with Reserved Font Name "Charis SIL" . All rights reserved.
Version: 001.001
ItalicAngle: -12
UnderlinePosition: -228
UnderlineWidth: 58
Ascent: 800
Descent: 200
InvalidEm: 0
sfntRevision: 0x00050000
LayerCount: 2
Layer: 0 0 "Back" 1
Layer: 1 0 "Fore" 0
XUID: [1021 1017 285194369 26445]
StyleMap: 0x0021
FSType: 0
OS2Version: 3
OS2_WeightWidthSlopeOnly: 0
OS2_UseTypoMetrics: 0
CreationTime: 1414128067
ModificationTime: 1468077520
PfmFamily: 17
TTFWeight: 700
TTFWidth: 5
LineGap: 28
VLineGap: 0
Panose: 2 0 8 3 8 0 0 9 0 4
OS2TypoAscent: 737
OS2TypoAOffset: 0
OS2TypoDescent: -219
OS2TypoDOffset: 0
OS2TypoLinegap: 56
OS2WinAscent: 999
OS2WinAOffset: 0
OS2WinDescent: 258
OS2WinDOffset: 0
HheadAscent: 999
HheadAOffset: 0
HheadDescent: -258
HheadDOffset: 0
OS2SubXSize: 650
OS2SubYSize: 600
OS2SubXOff: -15
OS2SubYOff: 75
OS2SupXSize: 650
OS2SupYSize: 600
OS2SupXOff: 68
OS2SupYOff: 350
OS2StrikeYSize: 50
OS2StrikeYPos: 250
OS2CapHeight: 671
OS2XHeight: 500
OS2Vendor: 'CNTX'
OS2CodePages: 20000197.00000000
OS2UnicodeRanges: a00002ff.5200e1ff.0a000021.00000000
Lookup: 1 0 0 "'aalt' Access All Alternates lookup 0" { "'aalt' Access All Alternates lookup 0 subtable"  } ['aalt' ('DFLT' <'dflt' > 'cyrl' <'BGR ' 'MKD ' 'RUS ' 'SRB ' 'UKR ' 'dflt' > 'latn' <'CAT ' 'IPPH' 'LTH ' 'MOL ' 'NLD ' 'ROM ' 'TRK ' 'VIT ' 'dflt' > ) ]
Lookup: 3 0 0 "'aalt' Access All Alternates lookup 1" { "'aalt' Access All Alternates lookup 1 subtable"  } ['aalt' ('DFLT' <'dflt' > 'cyrl' <'BGR ' 'MKD ' 'RUS ' 'SRB ' 'UKR ' 'dflt' > 'latn' <'CAT ' 'IPPH' 'LTH ' 'MOL ' 'NLD ' 'ROM ' 'TRK ' 'VIT ' 'dflt' > ) ]

StartChar: .notdef
Encoding: 1114112 -1 0
Width: 586
Flags: MW
HStem: 0 72<50 517 97 517 97 536> 510 20G<50 536 536 536>
LayerCount: 2
Fore
SplineSet
50 0 m 1
 50 530 l 1
 536 530 l 1
 536 0 l 1
 50 0 l 1
69 74 m 1
 118 181 190 273 271 355 c 1
 242 368 220 375 194 380 c 1
 139 286 102 188 69 74 c 1
348 313 m 1
 234 255 153 173 76 72 c 1
 180 145 288 209 416 255 c 1
 391 281 373 297 348 313 c 1
97 72 m 1
 517 72 l 1
 511 111 500 141 477 173 c 1
 343 155 195 115 97 72 c 1
EndSplineSet
EndChar

StartChar: exclam
Encoding: 33 33 2
Width: 379
Flags: MW
HStem: -12 21G<136.5 180>
VStem: 83 157<47.5 87.5 43 91>
LayerCount: 2
Fore
SplineSet
339 616 m 1
 339 616 251 347 204 208 c 1
 150 208 l 1
 173 593 l 2
 173 649 221 687 271 687 c 0
 320 687 339 665 339 616 c 1
240 65 m 0
 240 21 202 -12 158 -12 c 0
 115 -12 83 26 83 69 c 0
 83 113 116 149 159 149 c 0
 207 149 240 110 240 65 c 0
EndSplineSet
EndChar

StartChar: quotedbl
Encoding: 34 34 3
Width: 375
Flags: MW
HStem: 417 297<100 191.5 100 191.5 160 333 160 296>
VStem: 304 117<651 684.5>
LayerCount: 2
Fore
SplineSet
421 669 m 0
 421 650 348 459 333 417 c 1
 296 417 l 1
 304 651 l 2
 305 687 339 714 373 714 c 0
 402 714 421 700 421 669 c 0
225 669 m 0
 225 650 152 459 137 417 c 1
 100 417 l 1
 107 651 l 2
 109 687 143 714 177 714 c 0
 206 714 225 700 225 669 c 0
EndSplineSet
EndChar

StartChar: numbersign
Encoding: 35 35 4
Width: 741
Flags: MW
HStem: -7 21G<317 317> -6 21G<121 121> 219 63<62 196 62 216 287 391 62 266 484 639> 414 66<111 259 111 280 111 331 350 457 548 679>
VStem: 62 617<219 414 282 414>
LayerCount: 2
Fore
SplineSet
679 414 m 1x78
 527 414 l 1
 484 282 l 1
 639 282 l 1
 639 219 l 1
 462 219 l 1
 386 -24 l 1
 317 -7 l 1xb8
 391 219 l 1
 266 219 l 1
 188 -24 l 1
 121 -6 l 1
 196 219 l 1
 62 219 l 1
 62 282 l 1
 216 282 l 1
 259 414 l 1
 111 414 l 1
 111 480 l 1
 280 480 l 1
 357 710 l 1
 424 692 l 1
 350 480 l 1
 480 480 l 1
 554 710 l 1
 623 691 l 1
 548 480 l 1
 679 480 l 1
 679 414 l 1x78
457 414 m 1
 331 414 l 1
 287 282 l 1
 411 282 l 1
 457 414 l 1
EndSplineSet
EndChar

StartChar: dollar
Encoding: 36 36 5
Width: 598
Flags: MW
HStem: 0 62<220 232> 604 64<339 352>
VStem: 111 135 403 136
LayerCount: 2
Fore
SplineSet
586 639 m 1
 553 472 l 1
 484 472 l 1
 486 577 l 2
 487 585 483 587 478 589 c 0
 458 598 411 607 399 607 c 1
 358 401 l 1
 420 383 563 345 535 205 c 0
 513 91 409 19 279 1 c 1
 259 -102 l 1
 200 -102 l 1
 220 0 l 1
 220 0 101 5 21 33 c 1
 55 206 l 1
 127 206 l 1
 124 98 l 2
 124 86 123 89 132 84 c 0
 170 63 232 62 232 62 c 1
 275 282 l 1
 205 304 88 342 115 477 c 0
 151 660 352 668 352 668 c 1
 367 742 l 1
 426 742 l 1
 411 668 l 1
 493 668 586 639 586 639 c 1
339 604 m 1
 339 604 266 599 249 513 c 0
 233 432 302 415 302 415 c 1
 339 604 l 1
401 169 m 0
 414 235 364 258 332 267 c 1
 292 65 l 1
 292 65 382 72 401 169 c 0
EndSplineSet
EndChar

StartChar: percent
Encoding: 37 37 6
Width: 899
Flags: MW
HStem: -16 47<630 689 630 715.5> 0 21G<154 226 154 154> 268 47<193.5 252.5 193.5 279.5> 355 47<673.5 732.5> 640 47<237 296.5> 661 21G
VStem: 67 100<380 425.5 380 476> 320 104<541 583.5> 505 99<93.5 139 93.5 190> 756 105<256.5 299>
LayerCount: 2
Fore
SplineSet
861 261 m 0xb7c0
 861 128 790 -16 641 -16 c 0
 550 -16 505 34 505 124 c 0
 505 256 574 402 724 402 c 0
 815 402 861 351 861 261 c 0xb7c0
775 671 m 1
 226 0 l 1
 154 0 l 1x7bc0
 702 671 l 1
 775 671 l 1
424 546 m 0
 424 414 354 268 205 268 c 0
 113 268 67 320 67 410 c 0
 67 542 138 687 287 687 c 0
 378 687 424 636 424 546 c 0
756 285 m 0
 756 313 751 355 714 355 c 0
 633 355 604 169 604 109 c 0
 604 78 610 31 650 31 c 0xb7c0
 728 31 756 228 756 285 c 0
320 569 m 0
 320 598 315 640 278 640 c 0
 196 640 167 455 167 396 c 0
 167 364 173 315 214 315 c 0
 291 315 320 513 320 569 c 0
EndSplineSet
EndChar

StartChar: ampersand
Encoding: 38 38 7
Width: 745
Flags: MW
HStem: -11 73<242 259> -3 57 313 54<460 713 460 713> 625 59<341.5 376>
VStem: 12 147<145 206> 130 131<500.5 546.5> 408 138<508 562.5> 460 253<313 367 313 367>
LayerCount: 2
Fore
SplineSet
713 313 m 1xb9
 639 305 l 1
 611 248 567 184 517 132 c 1
 565 69 602 54 679 54 c 1
 679 2 l 1
 631 0 608 -2 589 -3 c 0
 564 -5 538 -4 513 0 c 0x76
 480 7 454 22 425 53 c 1
 373 18 307 -11 211 -11 c 0
 86 -11 12 58 12 157 c 0xba
 12 255 88 319 183 368 c 1
 153 409 130 448 130 495 c 0
 130 598 221 684 373 684 c 0
 487 684 546 617 546 549 c 0xb6
 546 455 464 398 345 357 c 1
 465 202 l 1
 489 233 508 268 521 294 c 0
 522 296 520 303 519 303 c 2
 460 313 l 1
 460 367 l 1
 713 367 l 1
 713 313 l 1xb9
408 541 m 0
 408 584 399 625 353 625 c 0
 330 625 261 598 261 521 c 0
 261 480 282 438 306 406 c 1
 367 435 408 475 408 541 c 0
376 111 m 1xba
 226 309 l 1
 184 276 159 236 159 186 c 0
 159 104 222 62 262 62 c 0
 304 62 329 77 376 111 c 1xba
EndSplineSet
EndChar

StartChar: quotesingle
Encoding: 39 39 8
Width: 174
Flags: MW
HStem: 417 297<100 191.5 100 191.5>
VStem: 104 122
LayerCount: 2
Fore
SplineSet
225 669 m 0
 225 637 152 459 137 417 c 1
 100 417 l 1
 107 651 l 2
 109 687 143 714 177 714 c 0
 206 714 225 700 225 669 c 0
EndSplineSet
EndChar

StartChar: parenleft
Encoding: 40 40 9
Width: 423
Flags: MW
HStem: -142 859<302 472>
VStem: 71 121<59.5 185 53.5 255>
LayerCount: 2
Fore
SplineSet
472 717 m 1
 461 663 l 1
 259 637 192 273 192 97 c 0
 192 10 214 -75 313 -88 c 1
 302 -142 l 1
 134 -138 71 -17 71 136 c 0
 71 374 190 709 472 717 c 1
EndSplineSet
EndChar

StartChar: parenright
Encoding: 41 41 10
Width: 423
Flags: MW
HStem: -142 859<-48 122>
VStem: 232 121<391.5 516 320.5 522.5>
LayerCount: 2
Fore
SplineSet
353 439 m 0
 353 202 234 -134 -48 -142 c 1
 -38 -88 l 1
 164 -62 232 304 232 479 c 0
 232 566 210 650 111 663 c 1
 122 717 l 1
 289 712 353 593 353 439 c 0
EndSplineSet
EndChar

StartChar: asterisk
Encoding: 42 42 11
Width: 500
Flags: MW
HStem: 484 21G 506 15
VStem: 117 393<571 571>
LayerCount: 2
Fore
SplineSet
510 571 m 1
 466 506 l 1
 337 507 l 1
 331 522 l 1
 437 600 l 1
 510 571 l 1
363 658 m 1
 321 533 l 1
 305 533 l 1
 264 658 l 1
 313 718 l 1
 363 658 l 1
438 416 m 1
 436 338 l 1
 359 358 l 1
 319 482 l 1
 332 494 l 1
 438 416 l 1
295 521 m 1
 290 507 l 1
 160 506 l 1
 117 571 l 1
 188 600 l 1
 295 521 l 1
308 482 m 1
 268 358 l 1
 191 338 l 1
 188 416 l 1
 295 494 l 1
 308 482 l 1
EndSplineSet
EndChar

StartChar: plus
Encoding: 43 43 12
Width: 1000
Flags: MW
HStem: 0 21G<469 531 469 469> 269 62<200 469 200 469 531 800>
VStem: 469 62<0 269 0 269 331 600>
LayerCount: 2
Fore
SplineSet
800 269 m 1
 531 269 l 1
 531 0 l 1
 469 0 l 1
 469 269 l 1
 200 269 l 1
 200 331 l 1
 469 331 l 1
 469 600 l 1
 531 600 l 1
 531 331 l 1
 800 331 l 1
 800 269 l 1
EndSplineSet
EndChar

StartChar: comma
Encoding: 44 44 13
Width: 320
Flags: MW
HStem: -176 331<-55 145.5>
VStem: 20 180<45 81>
LayerCount: 2
Fore
SplineSet
200 84 m 0
 200 -32 58 -168 -55 -176 c 1
 -46 -127 l 1
 28 -116 89 -70 101 7 c 1
 40 7 l 1
 27 19 20 36 20 54 c 0
 20 108 69 155 123 155 c 0
 168 155 200 132 200 84 c 0
EndSplineSet
EndChar

StartChar: hyphen
Encoding: 45 45 14
Width: 348
Flags: MW
HStem: 188 106<51 292 30 313>
VStem: 30 283<188 294>
LayerCount: 2
Fore
SplineSet
313 294 m 1
 292 188 l 1
 30 188 l 1
 51 294 l 1
 313 294 l 1
EndSplineSet
EndChar

StartChar: period
Encoding: 46 46 15
Width: 317
Flags: MW
HStem: -12 21G<85 131>
VStem: 24 167<48 94>
LayerCount: 2
Fore
SplineSet
191 71 m 0
 191 25 154 -12 108 -12 c 0
 62 -12 24 25 24 71 c 0
 24 117 62 155 108 155 c 0
 154 155 191 117 191 71 c 0
EndSplineSet
EndChar

StartChar: slash
Encoding: 47 47 16
Width: 500
Flags: MW
HStem: 661 21G
VStem: 0 501
LayerCount: 2
Fore
SplineSet
501 671 m 1
 78 -93 l 1
 0 -93 l 1
 422 671 l 1
 501 671 l 1
EndSplineSet
EndChar

StartChar: zero
Encoding: 48 48 17
Width: 598
Flags: MW
HStem: -16 62<254 304 254 361.5> 626 61<322 382.5>
VStem: 34 151<142 289 124.5 311.5> 443 150<382 520.5 347 534>
LayerCount: 2
Fore
SplineSet
593 460 m 0
 593 234 474 -16 249 -16 c 0
 98 -16 34 74 34 210 c 0
 34 413 136 687 380 687 c 0
 539 687 593 581 593 460 c 0
443 478 m 0
 443 590 395 626 370 626 c 0
 274 626 185 384 185 194 c 0
 185 55 249 46 259 46 c 0
 349 46 443 286 443 478 c 0
EndSplineSet
EndChar

StartChar: one
Encoding: 49 49 18
Width: 598
Flags: MW
HStem: 0 59 0 62<187 191>
VStem: 84 382
LayerCount: 2
Fore
SplineSet
466 687 m 1x60
 346 76 l 2
 344 68 353 63 365 62 c 2
 440 55 l 1xa0
 440 0 l 1
 84 0 l 1
 84 56 l 1
 187 62 l 2
 195 62 203 69 204 76 c 2
 304 583 l 1
 149 562 l 1
 149 618 l 1
 398 687 l 1
 466 687 l 1x60
EndSplineSet
EndChar

StartChar: two
Encoding: 50 50 19
Width: 598
Flags: MW
HStem: 0 93<167 422 167 500> 623 64<324.5 354.5>
VStem: 420 157<489.5 562>
LayerCount: 2
Fore
SplineSet
577 535 m 0
 577 444 509 356 423 280 c 0
 351 217 257 155 167 93 c 1
 422 93 l 1
 456 176 l 1
 533 176 l 1
 500 0 l 1
 -21 0 l 1
 -8 71 l 1
 282 274 420 380 420 523 c 0
 420 601 370 623 339 623 c 0
 310 623 280 610 267 604 c 1
 247 500 l 1
 234 492 224 473 179 473 c 0
 133 473 103 502 103 536 c 0
 103 628 213 687 371 687 c 0
 500 687 577 638 577 535 c 0
EndSplineSet
EndChar

StartChar: three
Encoding: 51 51 20
Width: 598
Flags: MW
HStem: -16 61<212.5 258 212.5 310> 626 61<322 346.5>
VStem: 380 154<169 263> 419 156<508.5 569>
LayerCount: 2
Fore
SplineSet
575 542 m 0xd0
 575 475 522 400 399 359 c 1
 486 342 534 302 534 230 c 0
 534 108 409 -16 211 -16 c 0
 67 -16 11 52 11 98 c 0
 11 118 37 170 89 170 c 0
 120 170 135 153 148 147 c 1
 164 63 l 1
 172 58 202 45 223 45 c 0
 293 45 380 114 380 216 c 0xe0
 380 310 301 317 290 317 c 0
 271 317 254 314 197 305 c 1
 208 383 l 1
 330 377 419 434 419 529 c 0
 419 609 353 626 340 626 c 0
 304 626 278 609 267 601 c 1
 251 506 l 1
 237 500 204 485 181 485 c 0
 152 485 113 516 113 553 c 0
 113 631 229 687 373 687 c 0
 513 687 575 630 575 542 c 0xd0
EndSplineSet
EndChar

StartChar: four
Encoding: 52 52 21
Width: 598
Flags: MW
HStem: 199 78<181 322 474 550>
VStem: 21 544<199 277>
LayerCount: 2
Fore
SplineSet
565 277 m 1
 550 199 l 1
 457 199 l 1
 413 -27 l 1
 277 -27 l 1
 322 199 l 1
 21 199 l 1
 34 271 l 1
 441 687 l 1
 554 687 l 1
 474 277 l 1
 565 277 l 1
378 479 m 1
 181 277 l 1
 338 277 l 1
 378 479 l 1
EndSplineSet
EndChar

StartChar: five
Encoding: 53 53 22
Width: 598
Flags: MW
HStem: -16 61<214.5 258 214.5 296.5> 345 70<224 379> 581 90<277 568 277 277>
VStem: 383 148<181 275.5>
LayerCount: 2
Fore
SplineSet
585 671 m 1
 568 581 l 1
 277 581 l 1
 242 408 l 1
 263 412 290 415 321 415 c 0
 437 415 531 368 531 250 c 0
 531 112 395 -16 198 -16 c 0
 69 -16 10 26 10 81 c 0
 10 116 45 156 93 156 c 0
 113 156 124 143 140 140 c 1
 167 55 l 1
 175 53 208 45 221 45 c 0
 295 45 383 124 383 225 c 0
 383 326 297 345 238 345 c 0
 210 345 132 337 107 334 c 1
 177 671 l 1
 585 671 l 1
EndSplineSet
EndChar

StartChar: six
Encoding: 54 54 23
Width: 598
Flags: MW
HStem: -16 60<227.5 300.5 227.5 356.5> 382 74<331.5 342>
VStem: 34 148<173.5 229 173.5 336.5> 413 148<197.5 292>
LayerCount: 2
Fore
SplineSet
561 272 m 0
 561 123 446 -16 267 -16 c 0
 148 -16 34 38 34 217 c 0
 34 456 214 684 548 719 c 1
 549 654 l 1
 391 637 273 548 227 430 c 1
 263 446 306 456 357 456 c 0
 490 456 561 380 561 272 c 0
413 247 m 0
 413 337 370 382 314 382 c 0
 293 382 256 375 202 335 c 1
 198 321 182 252 182 206 c 0
 182 141 183 44 272 44 c 0
 329 44 413 131 413 247 c 0
EndSplineSet
EndChar

StartChar: seven
Encoding: 55 55 24
Width: 598
Flags: MW
HStem: 581 90<206 478 206 206>
VStem: 32 615
LayerCount: 2
Fore
SplineSet
647 671 m 1
 638 623 l 1
 183 -9 l 1
 176 -37 l 1
 32 -37 l 1
 478 581 l 1
 206 581 l 1
 174 492 l 1
 93 492 l 1
 129 671 l 1
 647 671 l 1
EndSplineSet
EndChar

StartChar: eight
Encoding: 56 56 25
Width: 598
Flags: MW
HStem: -16 64<227.5 296.5 227.5 340> 629 58<335 387>
VStem: 15 142<135 182.5> 103 142<474 528.5> 398 149<151.5 211.5> 435 137<502 562>
LayerCount: 2
Fore
SplineSet
572 543 m 0xe4
 572 441 505 393 425 356 c 1
 478 332 547 290 547 211 c 0
 547 92 431 -16 249 -16 c 0
 87 -16 15 57 15 151 c 0xe8
 15 214 55 297 182 354 c 1
 116 391 103 438 103 476 c 0xd4
 103 581 191 687 368 687 c 0
 515 687 572 618 572 543 c 0xe4
435 534 m 0
 435 590 415 629 359 629 c 0
 311 629 245 576 245 498 c 0xd4
 245 450 285 419 349 389 c 1
 401 421 435 470 435 534 c 0
398 184 m 0xe8
 398 239 329 280 252 315 c 1
 197 282 157 234 157 168 c 0
 157 102 188 48 267 48 c 0
 326 48 398 110 398 184 c 0xe8
EndSplineSet
EndChar

StartChar: nine
Encoding: 57 57 26
Width: 598
Flags: MW
HStem: -2 21G<46 46> 224 69<213.5 345.5> 629 58<326.5 368>
VStem: 65 151<373.5 478.5> 451 148<453 540.5>
LayerCount: 2
Fore
SplineSet
599 475 m 0
 599 184 332 17 73 -63 c 1
 46 -2 l 1
 181 50 290 108 384 245 c 1
 347 232 306 224 268 224 c 0
 159 224 65 279 65 404 c 0
 65 553 185 687 374 687 c 0
 468 687 599 657 599 475 c 0
451 474 m 0
 451 607 379 629 357 629 c 0
 296 629 216 539 216 424 c 0
 216 323 287 293 313 293 c 0
 378 293 422 339 432 349 c 1
 440 391 451 432 451 474 c 0
EndSplineSet
EndChar

StartChar: colon
Encoding: 58 58 27
Width: 317
Flags: MW
HStem: -12 21G<85 131> 488 21G
VStem: 24 167<48 94> 92 167<391 437>
LayerCount: 2
Fore
SplineSet
259 414 m 0xd0
 259 368 222 331 176 331 c 0
 130 331 92 368 92 414 c 0
 92 460 130 498 176 498 c 0
 222 498 259 460 259 414 c 0xd0
191 71 m 0xe0
 191 25 154 -12 108 -12 c 0
 62 -12 24 25 24 71 c 0
 24 117 62 155 108 155 c 0
 154 155 191 117 191 71 c 0xe0
EndSplineSet
EndChar

StartChar: semicolon
Encoding: 59 59 28
Width: 317
Flags: MW
HStem: 488 21G
VStem: 20 180<45 81> 92 167<391 437>
LayerCount: 2
Fore
SplineSet
259 414 m 0xa0
 259 368 222 331 176 331 c 0
 130 331 92 368 92 414 c 0
 92 460 130 498 176 498 c 0
 222 498 259 460 259 414 c 0xa0
200 84 m 0xc0
 200 -32 58 -168 -55 -176 c 1
 -46 -127 l 1
 28 -116 89 -70 101 7 c 1
 40 7 l 1
 27 19 20 36 20 54 c 0
 20 108 69 155 123 155 c 0
 168 155 200 132 200 84 c 0xc0
EndSplineSet
EndChar

StartChar: less
Encoding: 60 60 29
Width: 1000
Flags: MW
HStem: 39 522<800 800>
VStem: 200 600<39 331 39 331>
LayerCount: 2
Fore
SplineSet
800 39 m 1
 200 269 l 1
 200 331 l 1
 800 561 l 1
 800 499 l 1
 264 300 l 1
 800 101 l 1
 800 39 l 1
EndSplineSet
EndChar

StartChar: equal
Encoding: 61 61 30
Width: 1000
Flags: MW
HStem: 178 62<200 800 200 800> 360 62<200 800 200 800>
VStem: 200 600<178 240 178 240 360 422 178 422>
LayerCount: 2
Fore
SplineSet
800 360 m 1
 200 360 l 1
 200 422 l 1
 800 422 l 1
 800 360 l 1
800 178 m 1
 200 178 l 1
 200 240 l 1
 800 240 l 1
 800 178 l 1
EndSplineSet
EndChar

StartChar: greater
Encoding: 62 62 31
Width: 1000
Flags: MW
HStem: 39 522<200 200>
VStem: 200 600<39 269 101 269 269 561 269 561>
LayerCount: 2
Fore
SplineSet
800 269 m 1
 200 39 l 1
 200 101 l 1
 736 300 l 1
 200 499 l 1
 200 561 l 1
 800 331 l 1
 800 269 l 1
EndSplineSet
EndChar

StartChar: question
Encoding: 63 63 32
Width: 535
Flags: MW
HStem: -12 21G<156 200> 626 61<280 294.5>
VStem: 102 158<47.5 87.5 43 91> 373 140<481 564.5>
LayerCount: 2
Fore
SplineSet
513 534 m 0
 513 398 371 307 250 283 c 1
 233 198 l 1
 165 198 l 1
 191 331 l 1
 285 350 373 431 373 531 c 0
 373 598 325 626 264 626 c 1
 205 511 l 2
 202 509 185 504 183 504 c 0
 150 504 107 511 107 553 c 0
 107 651 241 687 319 687 c 0
 415 687 513 643 513 534 c 0
260 65 m 0
 260 21 222 -12 178 -12 c 0
 134 -12 102 26 102 69 c 0
 102 113 135 149 179 149 c 0
 226 149 260 110 260 65 c 0
EndSplineSet
EndChar

StartChar: at
Encoding: 64 64 33
Width: 936
Flags: MW
HStem: -157 56<393.5 534.5> 50 64<644 679> 51 71<351.5 463.5> 441 44 441 49<485 536.5 448.5 542> 636 51<430 596.5>
VStem: 58 101<150.5 365 150.5 381> 258 120<188.5 288 188.5 291.5> 801 77<286.5 461.5>
LayerCount: 2
Fore
SplineSet
878 368 m 0xcf80
 878 170 738 50 620 50 c 0xcf80
 559 50 540 83 534 120 c 1
 493 85 448 51 397 51 c 0
 306 51 258 121 258 217 c 0
 258 366 376 490 521 490 c 0
 552 490 586 472 612 460 c 1xaf80
 625 485 l 1
 709 485 l 1xd780
 703 466 639 188 639 188 c 2
 629 144 626 114 662 114 c 0
 702 114 801 206 801 367 c 0
 801 556 658 636 535 636 c 0
 325 636 159 477 159 253 c 0
 159 48 292 -101 495 -101 c 0
 600 -101 683 -64 768 -17 c 1
 789 -67 l 1
 699 -114 598 -157 471 -157 c 0
 238 -157 58 -3 58 235 c 0
 58 527 281 687 522 687 c 0
 739 687 878 570 878 368 c 0xcf80
570 388 m 2
 573 404 559 441 525 441 c 0
 445 441 378 350 378 226 c 0
 378 151 411 122 442 122 c 0xaf80
 485 122 510 159 530 183 c 1
 570 388 l 2
EndSplineSet
EndChar

StartChar: A
Encoding: 65 65 34
Width: 714
Flags: MW
HStem: 0 53 0 54<622 622 622 668> 253 57<271 416 271 427 238 416>
VStem: -53 721<0 50 0 50> 152 52<0 55> 622 46
LayerCount: 2
Fore
SplineSet
668 0 m 1xa4
 391 0 l 1xb0
 391 50 l 1
 412 52 437 55 437 55 c 2
 450 56 458 58 456 70 c 2
 427 253 l 1
 238 253 l 1
 139 70 l 2
 133 60 139 56 152 55 c 2
 152 55 179 52 204 50 c 1x68
 204 0 l 1
 -53 0 l 1
 -53 50 l 1
 5 56 l 1xa8
 375 687 l 1
 493 687 l 1
 602 71 l 2
 604 58 607 56 622 54 c 2
 622 54 646 52 668 50 c 1x64
 668 0 l 1xa4
416 310 m 1
 383 504 l 1
 271 310 l 1
 416 310 l 1
EndSplineSet
Substitution2: "'c2sc' Capitals to Small Capitals in Latin lookup 17 subtable" a.sc
Substitution2: "'c2sc' Capitals to Small Capitals in Cyrillic lookup 16 subtable" a.sc
Substitution2: "'c2sc' Capitals to Small Capitals lookup 15 subtable" a.sc
EndChar

StartChar: B
Encoding: 66 66 35
Width: 648
Flags: MW
HStem: 0 55<48 53.5 242 280> 320 54<304.5 344.5 293 348> 616 55<155 155> 618 53<342.5 378>
VStem: 445 151<162.5 257> 463 153<491.5 565>
LayerCount: 2
Fore
SplineSet
616 540 m 0xd4
 616 443 548 390 458 358 c 1
 545 342 596 305 596 226 c 0
 596 67 472 0 280 0 c 2
 -15 0 l 1
 -15 50 l 1
 17 53 48 55 48 55 c 2
 59 55 65 57 67 71 c 2
 171 601 l 2
 173 612 167 615 155 616 c 2
 155 616 125 618 95 621 c 1xe8
 95 671 l 1
 397 671 l 2
 567 671 616 613 616 540 c 0xd4
463 533 m 0
 463 597 408 618 348 618 c 0
 337 618 326 617 317 617 c 1
 270 375 l 1
 281 374 291 374 295 374 c 0
 394 374 463 441 463 533 c 0
445 216 m 0xd8
 445 298 383 320 313 320 c 0
 296 320 277 319 258 317 c 1
 207 56 l 1
 221 55 237 55 247 55 c 0
 365 55 445 109 445 216 c 0xd8
EndSplineSet
Substitution2: "'c2sc' Capitals to Small Capitals in Latin lookup 17 subtable" b.sc
Substitution2: "'c2sc' Capitals to Small Capitals in Cyrillic lookup 16 subtable" b.sc
Substitution2: "'c2sc' Capitals to Small Capitals lookup 15 subtable" b.sc
EndChar

StartChar: C
Encoding: 67 67 36
Width: 671
Flags: MW
HStem: -16 61<337 394 337 394> 626 61<412.5 491>
VStem: 48 148<200 371>
LayerCount: 2
Fore
SplineSet
687 645 m 1
 656 469 l 1
 582 469 l 1
 583 581 l 2
 584 589 578 601 568 604 c 0
 557 610 506 626 476 626 c 0
 349 626 196 489 196 257 c 0
 196 105 294 45 380 45 c 0
 408 45 451 54 463 60 c 0
 473 61 478 69 481 76 c 2
 529 208 l 1
 604 208 l 1
 573 27 l 1
 522 9 441 -16 347 -16 c 0
 122 -16 48 132 48 268 c 0
 48 474 206 687 471 687 c 0
 548 687 608 670 687 645 c 1
EndSplineSet
Substitution2: "'c2sc' Capitals to Small Capitals in Latin lookup 17 subtable" c.sc
Substitution2: "'c2sc' Capitals to Small Capitals in Cyrillic lookup 16 subtable" c.sc
Substitution2: "'c2sc' Capitals to Small Capitals lookup 15 subtable" c.sc
EndChar

StartChar: D
Encoding: 68 68 37
Width: 712
Flags: MW
HStem: 0 54<45 45 45 241> 0 62<208 241> 611 60<316 330 316 316> 616 55<153 153>
VStem: 545 150<327.5 505.5>
LayerCount: 2
Fore
SplineSet
695 414 m 0x58
 695 176 523 0 241 0 c 2
 -15 0 l 1x58
 -15 50 l 1
 14 53 45 54 45 54 c 2
 61 55 64 57 67 71 c 2x98
 171 601 l 2
 173 613 165 615 153 616 c 2
 153 616 123 618 95 621 c 1
 95 671 l 1
 355 671 l 2
 562 671 695 598 695 414 c 0x58
545 423 m 0
 545 588 433 608 330 611 c 2
 316 611 l 1x68
 208 62 l 1
 259 62 l 2
 435 64 545 232 545 423 c 0
EndSplineSet
Substitution2: "'c2sc' Capitals to Small Capitals in Latin lookup 17 subtable" d.sc
Substitution2: "'c2sc' Capitals to Small Capitals in Cyrillic lookup 16 subtable" d.sc
Substitution2: "'c2sc' Capitals to Small Capitals lookup 15 subtable" d.sc
EndChar

StartChar: E
Encoding: 69 69 38
Width: 600
Flags: MW
HStem: 0 55<45 45 45 526> 0 60<209 422 422 427 209 526> 318 61<271 374 259 384> 611 60<316 488 316 316> 616 55<153 153>
VStem: -15 638<0 671 50 671>
LayerCount: 2
Fore
SplineSet
623 671 m 1x74
 591 513 l 1
 511 513 l 1
 511 598 l 2
 511 608 499 611 488 611 c 2
 316 611 l 1
 271 379 l 1
 384 379 l 2
 394 379 409 384 412 394 c 2
 433 464 l 1
 506 464 l 1
 460 229 l 1
 386 229 l 1
 396 304 l 2
 398 312 383 318 374 318 c 2
 259 318 l 1
 209 60 l 1
 422 60 l 2
 432 60 447 66 450 74 c 2
 482 174 l 1
 561 174 l 1
 526 0 l 1
 -15 0 l 1x74
 -15 50 l 1
 15 53 45 55 45 55 c 2
 60 56 65 58 67 71 c 2
 171 601 l 2
 174 613 166 615 153 616 c 2
 153 616 123 618 96 621 c 1xac
 96 671 l 1
 623 671 l 1x74
EndSplineSet
Substitution2: "'c2sc' Capitals to Small Capitals in Latin lookup 17 subtable" e.sc
Substitution2: "'c2sc' Capitals to Small Capitals in Cyrillic lookup 16 subtable" e.sc
Substitution2: "'c2sc' Capitals to Small Capitals lookup 15 subtable" e.sc
EndChar

StartChar: F
Encoding: 70 70 39
Width: 556
Flags: MW
HStem: 0 55<42 42> 308 61<269 364 257 375> 611 60<316 475 316 316> 616 55<152 152>
VStem: -15 627<0 671 50 671>
LayerCount: 2
Fore
SplineSet
612 671 m 1xe8
 579 502 l 1
 498 502 l 1
 498 598 l 2
 498 608 486 611 475 611 c 2
 316 611 l 1xe8
 269 369 l 1
 375 369 l 2
 385 369 400 373 403 383 c 2
 423 455 l 1
 497 455 l 1
 451 219 l 1
 376 219 l 1
 387 294 l 2
 388 303 374 308 364 308 c 2
 257 308 l 1
 210 70 l 2
 208 58 216 56 229 55 c 2
 229 55 261 53 294 50 c 1
 294 0 l 1
 -15 0 l 1
 -15 50 l 1
 12 53 42 55 42 55 c 2
 57 56 64 58 67 71 c 2
 171 601 l 2
 173 613 165 615 152 616 c 2
 152 616 122 618 95 621 c 1xd8
 95 671 l 1
 612 671 l 1xe8
EndSplineSet
Substitution2: "'c2sc' Capitals to Small Capitals in Latin lookup 17 subtable" f.sc
Substitution2: "'c2sc' Capitals to Small Capitals in Cyrillic lookup 16 subtable" f.sc
Substitution2: "'c2sc' Capitals to Small Capitals lookup 15 subtable" f.sc
EndChar

StartChar: G
Encoding: 71 71 40
Width: 729
Flags: MW
HStem: -16 63<350 386 350 395.5> 275 55<473 473> 623 64<426.5 503.5>
VStem: 48 152<216 369.5 173 393.5>
LayerCount: 2
Fore
SplineSet
717 279 m 1
 649 274 l 2
 640 273 637 268 635 259 c 2
 589 26 l 1
 533 10 438 -16 353 -16 c 0
 98 -16 48 163 48 269 c 0
 48 518 259 687 500 687 c 0
 576 687 626 675 707 650 c 1
 670 468 l 1
 585 468 l 1
 594 581 l 2
 595 593 582 599 568 604 c 0
 555 608 519 623 488 623 c 0
 365 623 200 485 200 254 c 0
 200 92 327 47 373 47 c 0
 399 47 435 56 453 61 c 1
 492 259 l 2
 494 271 489 274 473 275 c 2
 473 275 444 277 417 279 c 1
 417 330 l 1
 717 330 l 1
 717 279 l 1
EndSplineSet
Substitution2: "'c2sc' Capitals to Small Capitals in Latin lookup 17 subtable" g.sc
Substitution2: "'c2sc' Capitals to Small Capitals in Cyrillic lookup 16 subtable" g.sc
Substitution2: "'c2sc' Capitals to Small Capitals lookup 15 subtable" g.sc
EndChar

StartChar: H
Encoding: 72 72 41
Width: 767
Flags: MW
HStem: 0 55<45 45> 321 60<271 529 259 541> 617 54<563 563>
VStem: -15 824<0 621 50 621>
LayerCount: 2
Fore
SplineSet
809 621 m 1
 745 615 l 2
 733 614 729 609 727 600 c 2
 623 70 l 2
 621 59 627 56 640 55 c 2
 640 55 670 53 699 50 c 1
 699 0 l 1
 396 0 l 1
 396 50 l 1
 427 53 458 55 458 55 c 2
 470 56 478 59 480 71 c 2
 529 321 l 1
 259 321 l 1
 210 70 l 2
 208 58 211 56 228 55 c 2
 228 55 258 53 287 50 c 1
 287 0 l 1
 -15 0 l 1
 -15 50 l 1
 15 53 45 55 45 55 c 2
 59 56 65 59 67 71 c 2
 171 601 l 2
 173 613 166 615 152 616 c 2
 152 616 123 618 95 621 c 1
 95 671 l 1
 397 671 l 1
 397 621 l 1
 366 618 335 616 335 616 c 2
 322 615 316 612 314 600 c 2
 271 381 l 1
 541 381 l 1
 584 601 l 2
 586 613 579 616 563 617 c 2
 563 617 533 618 507 621 c 1
 507 671 l 1
 809 671 l 1
 809 621 l 1
EndSplineSet
Substitution2: "'c2sc' Capitals to Small Capitals in Latin lookup 17 subtable" h.sc
Substitution2: "'c2sc' Capitals to Small Capitals in Cyrillic lookup 16 subtable" h.sc
Substitution2: "'c2sc' Capitals to Small Capitals lookup 15 subtable" h.sc
EndChar

StartChar: I
Encoding: 73 73 42
Width: 355
Flags: MW
HStem: 0 55<225 225 225 288> 616 55<153 153 329 329> 619 52
VStem: -15 413
LayerCount: 2
Fore
SplineSet
398 621 m 1xb0
 329 616 l 2
 319 615 316 609 314 600 c 2xb0
 210 70 l 2
 208 59 212 56 225 55 c 2
 225 55 256 53 288 50 c 1
 288 0 l 1
 -15 0 l 1
 -15 50 l 1
 14 52 44 54 44 54 c 2
 59 55 65 57 67 71 c 2
 171 601 l 2
 174 613 166 615 153 616 c 2
 153 616 123 618 96 621 c 1xd0
 96 671 l 1
 398 671 l 1
 398 621 l 1xb0
EndSplineSet
Substitution2: "'c2sc' Capitals to Small Capitals in Latin lookup 17 subtable" i.sc
Substitution2: "'c2sc' Capitals to Small Capitals in Cyrillic lookup 16 subtable" i.sc
Substitution2: "'c2sc' Capitals to Small Capitals lookup 15 subtable" i.sc
EndChar

StartChar: J
Encoding: 74 74 43
Width: 509
Flags: MW
HStem: -16 62<132.5 169 132.5 231.5> 615 56<476.5 481> 621 50<247 549 247 549>
VStem: -20 569
LayerCount: 2
Fore
SplineSet
549 621 m 1xb0
 481 615 l 2
 472 615 469 609 467 600 c 2
 403 257 l 2
 374 99 330 -16 133 -16 c 0
 44 -16 -6 11 -20 18 c 1
 14 192 l 1
 96 192 l 1
 96 66 l 2
 96 55 125 46 140 46 c 0
 198 46 233 112 258 249 c 2
 324 601 l 2
 326 613 319 615 306 616 c 2
 306 616 275 618 247 621 c 1
 247 671 l 1
 549 671 l 1xd0
 549 621 l 1xb0
EndSplineSet
Substitution2: "'c2sc' Capitals to Small Capitals in Latin lookup 17 subtable" j.sc
Substitution2: "'c2sc' Capitals to Small Capitals in Cyrillic lookup 16 subtable" j.sc
Substitution2: "'c2sc' Capitals to Small Capitals lookup 15 subtable" j.sc
EndChar

StartChar: K
Encoding: 75 75 44
Width: 698
Flags: MW
HStem: -16 65<492.5 590> 0 54<47 52> 291 92<271 276 253 279> 617 54<158 158 333 333 495 495> 621 50<105 388 105 388>
VStem: -16 750<0 621 50 621> 225 52<0 54> 333 55
LayerCount: 2
Fore
SplineSet
734 621 m 1x4c
 646 613 l 1
 388 367 l 1
 527 103 l 2
 550 59 554 50 585 49 c 0
 595 49 645 53 648 53 c 2
 648 3 l 1
 612 -8 570 -16 533 -16 c 0x8c
 452 -16 425 7 396 62 c 2
 276 291 l 1
 253 291 l 1
 209 70 l 2
 207 57 214 55 225 54 c 2
 225 54 253 52 277 50 c 1
 277 0 l 1
 -16 0 l 1
 -16 50 l 1
 10 52 47 54 47 54 c 2
 57 54 64 58 66 71 c 2
 171 601 l 2
 174 613 168 616 158 617 c 2
 158 617 131 618 105 621 c 1
 105 671 l 1
 388 671 l 1
 388 621 l 1
 361 618 333 617 333 617 c 2
 323 616 317 613 314 600 c 2x73
 271 383 l 1
 279 383 l 1
 504 602 l 2
 514 611 509 616 495 617 c 2
 495 617 466 619 443 621 c 1
 443 671 l 1
 734 671 l 1x74
 734 621 l 1x4c
EndSplineSet
Substitution2: "'c2sc' Capitals to Small Capitals in Latin lookup 17 subtable" k.sc
Substitution2: "'c2sc' Capitals to Small Capitals in Cyrillic lookup 16 subtable" k.sc
Substitution2: "'c2sc' Capitals to Small Capitals lookup 15 subtable" k.sc
EndChar

StartChar: L
Encoding: 76 76 45
Width: 560
Flags: MW
HStem: 0 54<42 42 42 488> 0 60<208 384 384 389 208 488> 616 55<155 155 333 333>
VStem: -15 543<0 202 50 202>
LayerCount: 2
Fore
SplineSet
528 202 m 1x70
 488 0 l 1
 -15 0 l 1x70
 -15 50 l 1
 12 53 42 54 42 54 c 2
 61 56 65 58 67 71 c 2xb0
 171 601 l 2
 174 612 166 615 155 616 c 2
 155 616 125 618 96 621 c 1
 96 671 l 1
 398 671 l 1
 398 621 l 1
 365 618 333 616 333 616 c 2
 324 615 317 612 314 600 c 2
 208 60 l 1
 384 60 l 2
 394 60 409 66 412 74 c 2
 453 202 l 1
 528 202 l 1x70
EndSplineSet
Substitution2: "'c2sc' Capitals to Small Capitals in Latin lookup 17 subtable" l.sc
Substitution2: "'c2sc' Capitals to Small Capitals in Cyrillic lookup 16 subtable" l.sc
Substitution2: "'c2sc' Capitals to Small Capitals lookup 15 subtable" l.sc
EndChar

StartChar: M
Encoding: 77 77 46
Width: 903
Flags: MW
HStem: 0 55<42 42 595 600.5> 616 55<153 153> 621 50<95 361>
VStem: -14 959<0 621 50 621>
LayerCount: 2
Fore
SplineSet
945 621 m 1xb0
 877 614 l 2
 868 613 865 609 863 600 c 2xb0
 760 70 l 2
 758 58 765 56 778 55 c 2
 778 55 808 53 836 50 c 1
 836 0 l 1
 534 0 l 1
 534 50 l 1
 564 53 595 55 595 55 c 2
 606 55 615 59 617 71 c 2
 692 457 l 1
 432 0 l 1
 334 0 l 1
 253 450 l 1
 182 70 l 2
 179 59 187 56 196 55 c 2
 196 55 226 53 257 50 c 1
 257 0 l 1
 -14 0 l 1
 -14 50 l 1
 13 53 42 55 42 55 c 2
 56 56 65 58 68 71 c 2
 171 601 l 2
 173 613 166 615 153 616 c 2
 153 616 123 618 95 621 c 1
 95 671 l 1
 361 671 l 1
 361 638 l 1
 437 218 l 1
 672 634 l 1
 672 671 l 1
 945 671 l 1xd0
 945 621 l 1xb0
EndSplineSet
Substitution2: "'c2sc' Capitals to Small Capitals in Latin lookup 17 subtable" m.sc
Substitution2: "'c2sc' Capitals to Small Capitals in Cyrillic lookup 16 subtable" m.sc
Substitution2: "'c2sc' Capitals to Small Capitals lookup 15 subtable" m.sc
EndChar

StartChar: N
Encoding: 78 78 47
Width: 752
Flags: MW
HStem: 0 55<43 43> 616 55<153 153 580 580> 618 53
VStem: -14 811<0 621 50 621>
LayerCount: 2
Fore
SplineSet
797 621 m 1xb0
 732 615 l 2
 723 614 717 609 715 600 c 2xb0
 596 0 l 1
 485 0 l 1
 261 465 l 1
 184 70 l 2
 182 58 188 56 202 55 c 2
 202 55 231 53 260 50 c 1
 260 0 l 1
 -14 0 l 1
 -14 50 l 1
 14 53 43 55 43 55 c 2
 57 56 65 58 68 71 c 2
 171 601 l 2
 174 613 166 615 153 616 c 2
 153 616 124 618 96 621 c 1
 96 671 l 1
 331 671 l 1
 331 640 l 1
 526 233 l 1
 599 601 l 2
 602 613 592 615 580 616 c 2
 580 616 550 618 523 621 c 1
 523 671 l 1
 797 671 l 1xd0
 797 621 l 1xb0
EndSplineSet
Substitution2: "'c2sc' Capitals to Small Capitals in Latin lookup 17 subtable" n.sc
Substitution2: "'c2sc' Capitals to Small Capitals in Cyrillic lookup 16 subtable" n.sc
Substitution2: "'c2sc' Capitals to Small Capitals lookup 15 subtable" n.sc
EndChar

StartChar: O
Encoding: 79 79 48
Width: 751
Flags: MW
HStem: -16 62<315 407 315 472> 627 60<372.5 466.5>
VStem: 48 155<186 345 186 367> 577 156<330 484>
LayerCount: 2
Fore
SplineSet
733 417 m 0
 733 212 603 -16 341 -16 c 0
 155 -16 48 101 48 263 c 0
 48 471 194 687 441 687 c 0
 634 687 733 559 733 417 c 0
577 417 m 0
 577 551 501 627 432 627 c 0
 313 627 203 435 203 255 c 0
 203 117 282 46 348 46 c 0
 466 46 577 243 577 417 c 0
EndSplineSet
Substitution2: "'c2sc' Capitals to Small Capitals in Latin lookup 17 subtable" o.sc
Substitution2: "'c2sc' Capitals to Small Capitals in Cyrillic lookup 16 subtable" o.sc
Substitution2: "'c2sc' Capitals to Small Capitals lookup 15 subtable" o.sc
EndChar

StartChar: P
Encoding: 80 80 49
Width: 607
Flags: MW
HStem: 0 55<41 41> 247 61<255 387> 614 57<316 333 316 316> 616 55<151 151>
VStem: 467 146<454 531.5>
LayerCount: 2
Fore
SplineSet
613 508 m 0xe8
 613 352 487 247 287 247 c 0
 276 247 258 247 244 248 c 1
 208 70 l 2
 206 58 212 56 226 55 c 2
 226 55 256 53 285 50 c 1
 285 0 l 1
 -17 0 l 1
 -17 50 l 1
 11 53 41 55 41 55 c 2
 54 56 62 58 65 71 c 2
 170 601 l 2
 172 613 163 615 151 616 c 2xd8
 151 616 121 618 94 621 c 1
 94 671 l 1
 364 671 l 2
 553 671 613 597 613 508 c 0xe8
467 492 m 0
 467 571 421 614 333 614 c 2
 316 614 l 1xe8
 255 308 l 1
 294 307 340 313 381 338 c 0
 429 366 467 416 467 492 c 0
EndSplineSet
Substitution2: "'c2sc' Capitals to Small Capitals in Latin lookup 17 subtable" p.sc
Substitution2: "'c2sc' Capitals to Small Capitals in Cyrillic lookup 16 subtable" p.sc
Substitution2: "'c2sc' Capitals to Small Capitals lookup 15 subtable" p.sc
EndChar

StartChar: Q
Encoding: 81 81 50
Width: 751
Flags: MW
HStem: -160 68<596.5 611.5> -18 62<308.5 344> -16 21G 626 61<376.5 471.5>
VStem: 46 154<190 348.5 190 359> 577 155<363 480.5>
LayerCount: 2
Fore
SplineSet
764 -108 m 1xbc
 746 -117 649 -160 574 -160 c 0
 450 -160 405 -92 370 -16 c 1xbc
 361 -17 350 -18 338 -18 c 0xdc
 165 -18 46 89 46 259 c 0
 46 459 193 687 442 687 c 0
 632 687 732 564 732 416 c 0
 732 310 699 128 513 22 c 1
 551 -46 565 -92 628 -92 c 0
 663 -92 698 -75 764 -45 c 1
 764 -108 l 1xbc
577 416 m 0
 577 545 506 626 437 626 c 0
 316 626 200 443 200 254 c 0
 200 126 270 44 347 44 c 0xdc
 463 44 577 239 577 416 c 0
EndSplineSet
Substitution2: "'c2sc' Capitals to Small Capitals in Latin lookup 17 subtable" q.sc
Substitution2: "'c2sc' Capitals to Small Capitals in Cyrillic lookup 16 subtable" q.sc
Substitution2: "'c2sc' Capitals to Small Capitals lookup 15 subtable" q.sc
EndChar

StartChar: R
Encoding: 82 82 51
Width: 683
Flags: MW
HStem: -16 66 0 50<-13 289 -13 -13> 0 55<228 228 228 289> 292 60<267 324> 612 59 616 55<154 154>
VStem: 468 155<468.5 554.5>
LayerCount: 2
Fore
SplineSet
657 3 m 1x56
 627 -10 599 -16 563 -16 c 0x96
 440 -16 411 42 389 147 c 0
 376 205 362 292 286 292 c 0
 278 292 265 291 254 291 c 1
 212 70 l 2
 210 59 215 56 228 55 c 2x36
 228 55 259 52 289 50 c 1x96
 289 0 l 1
 -13 0 l 1
 -13 50 l 1
 16 52 46 54 46 54 c 2
 58 55 66 58 69 71 c 2x36
 171 601 l 2
 174 612 167 615 154 616 c 2
 154 616 124 618 96 621 c 1
 96 671 l 1
 385 671 l 2
 519 671 623 632 623 521 c 0
 623 416 536 350 423 317 c 1
 500 282 510 232 529 157 c 0
 547 87 556 50 657 50 c 1
 657 3 l 1x56
468 506 m 0x3a
 468 603 372 615 341 613 c 2
 316 611 l 1
 267 352 l 1
 275 352 292 353 292 353 c 2
 368 356 468 392 468 506 c 0x3a
EndSplineSet
Substitution2: "'c2sc' Capitals to Small Capitals in Latin lookup 17 subtable" r.sc
Substitution2: "'c2sc' Capitals to Small Capitals in Cyrillic lookup 16 subtable" r.sc
Substitution2: "'c2sc' Capitals to Small Capitals lookup 15 subtable" r.sc
EndChar

StartChar: S
Encoding: 83 83 52
Width: 562
Flags: MW
HStem: -16 62<205 252 205 323.5> 628 59<331 375.5>
VStem: 84 144<464 530> 363 146<161.5 217.5>
LayerCount: 2
Fore
SplineSet
556 647 m 1
 522 491 l 1
 446 491 l 1
 450 595 l 2
 450 602 394 628 357 628 c 0
 305 628 228 580 228 499 c 0
 228 429 315 396 367 371 c 0
 439 335 509 294 509 207 c 0
 509 116 439 -16 208 -16 c 0
 98 -16 13 29 -5 40 c 1
 30 204 l 1
 115 204 l 1
 104 85 l 2
 103 77 188 46 222 46 c 0
 282 46 363 92 363 185 c 0
 363 250 273 285 224 310 c 0
 153 346 84 386 84 466 c 0
 84 594 190 687 365 687 c 0
 455 687 516 665 556 647 c 1
EndSplineSet
Substitution2: "'c2sc' Capitals to Small Capitals in Latin lookup 17 subtable" s.sc
Substitution2: "'c2sc' Capitals to Small Capitals in Cyrillic lookup 16 subtable" s.sc
Substitution2: "'c2sc' Capitals to Small Capitals lookup 15 subtable" s.sc
EndChar

StartChar: T
Encoding: 84 84 53
Width: 627
Flags: MW
HStem: 0 55<368 368 368 426> 616 55<201.5 206 206 309 452 561 452 452>
VStem: 62 630<496 671>
LayerCount: 2
Fore
SplineSet
692 671 m 1
 656 496 l 1
 578 496 l 1
 583 603 l 2
 584 612 571 616 561 616 c 2
 452 616 l 1
 349 70 l 2
 347 58 356 56 368 55 c 2
 368 55 399 53 426 50 c 1
 426 0 l 1
 124 0 l 1
 124 50 l 1
 150 52 179 54 179 54 c 2
 193 55 204 58 206 71 c 2
 309 616 l 1
 206 616 l 2
 197 616 181 611 178 602 c 2
 140 496 l 1
 62 496 l 1
 96 671 l 1
 692 671 l 1
EndSplineSet
Substitution2: "'c2sc' Capitals to Small Capitals in Latin lookup 17 subtable" t.sc
Substitution2: "'c2sc' Capitals to Small Capitals in Cyrillic lookup 16 subtable" t.sc
Substitution2: "'c2sc' Capitals to Small Capitals lookup 15 subtable" t.sc
EndChar

StartChar: U
Encoding: 85 85 54
Width: 749
Flags: MW
HStem: -16 75<328 410 328 424> 616 55<155 155 339 339 580 580 725 725> 619 52
VStem: 92 146<134.5 171.5>
LayerCount: 2
Fore
SplineSet
791 621 m 1xb0
 725 616 l 2
 716 615 711 609 709 600 c 2xb0
 632 215 l 2
 605 76 516 -16 332 -16 c 0
 184 -16 92 38 92 162 c 0
 92 181 96 220 105 265 c 2
 175 601 l 2
 177 613 169 615 155 616 c 2
 155 616 126 618 99 621 c 1
 99 671 l 1
 401 671 l 1
 401 621 l 1
 370 618 339 616 339 616 c 2
 327 615 320 612 318 600 c 2
 249 265 l 2
 241 227 238 195 238 177 c 0
 238 92 298 59 358 59 c 0
 462 59 507 140 529 250 c 2
 599 601 l 2
 601 613 596 615 580 616 c 2
 580 616 550 618 523 621 c 1
 523 671 l 1
 791 671 l 1xd0
 791 621 l 1xb0
EndSplineSet
Substitution2: "'c2sc' Capitals to Small Capitals in Latin lookup 17 subtable" u.sc
Substitution2: "'c2sc' Capitals to Small Capitals in Cyrillic lookup 16 subtable" u.sc
Substitution2: "'c2sc' Capitals to Small Capitals lookup 15 subtable" u.sc
EndChar

StartChar: V
Encoding: 86 86 55
Width: 685
Flags: MW
HStem: -16 21G<243 358 243 243> 619 52<301.5 307 562 562>
VStem: 307 45<619 671> 512 246<621 621 621 671 621 671>
LayerCount: 2
Fore
SplineSet
758 621 m 1
 703 615 l 1
 358 -16 l 1
 243 -16 l 1
 145 603 l 2
 143 616 133 618 122 618 c 2
 122 618 100 619 83 620 c 1
 83 671 l 1
 352 671 l 1
 352 620 l 1
 331 619 307 619 307 619 c 2
 296 619 287 616 289 604 c 2
 354 187 l 1
 576 604 l 2
 582 617 570 618 562 619 c 2
 562 619 535 619 512 620 c 1
 512 671 l 1
 758 671 l 1
 758 621 l 1
EndSplineSet
Substitution2: "'c2sc' Capitals to Small Capitals in Latin lookup 17 subtable" v.sc
Substitution2: "'c2sc' Capitals to Small Capitals in Cyrillic lookup 16 subtable" v.sc
Substitution2: "'c2sc' Capitals to Small Capitals lookup 15 subtable" v.sc
EndChar

StartChar: W
Encoding: 87 87 56
Width: 969
Flags: MW
HStem: -16 21G<200 309 200 200 578 680 578 578> 618 53<125 125 304 308>
VStem: 83 959<621 621 621 671 621 671> 308 48<618 671>
LayerCount: 2
Fore
SplineSet
1042 621 m 1xe0
 981 615 l 1
 680 -16 l 1
 578 -16 l 1
 527 443 l 1
 309 -16 l 1
 200 -16 l 1
 149 603 l 2
 148 616 142 617 125 618 c 2
 125 618 102 619 83 620 c 1
 83 671 l 1
 356 671 l 1
 356 620 l 1
 333 619 308 618 308 618 c 2
 300 618 291 616 292 604 c 2
 321 251 l 1xd0
 522 671 l 1
 642 671 l 1
 686 242 l 1
 855 604 l 2
 861 617 851 618 836 619 c 2
 836 619 811 619 791 620 c 1
 791 671 l 1
 1042 671 l 1
 1042 621 l 1xe0
EndSplineSet
Substitution2: "'c2sc' Capitals to Small Capitals in Latin lookup 17 subtable" w.sc
Substitution2: "'c2sc' Capitals to Small Capitals in Cyrillic lookup 16 subtable" w.sc
Substitution2: "'c2sc' Capitals to Small Capitals lookup 15 subtable" w.sc
EndChar

StartChar: X
Encoding: 88 88 57
Width: 674
Flags: MW
HStem: 0 52 0 54<-3 -3 -44 -3> 617 54<133 133 314.5 319> 619 52
VStem: -44 764<0 621 50 621>
LayerCount: 2
Fore
SplineSet
720 621 m 1x58
 658 616 l 2
 644 615 638 608 635 604 c 2
 416 359 l 1
 547 66 l 2
 552 56 557 55 565 54 c 2
 565 54 592 53 621 50 c 1
 621 0 l 1
 321 0 l 1
 321 50 l 1
 347 52 378 54 378 54 c 2
 393 55 405 56 399 69 c 2
 322 245 l 1
 161 69 l 2
 156 64 157 55 168 54 c 2x58
 231 50 l 1xa8
 231 0 l 1
 -44 0 l 1
 -44 50 l 1
 -25 52 -3 54 -3 54 c 2
 14 55 19 55 29 66 c 2
 277 340 l 1
 157 605 l 2
 152 616 148 616 133 617 c 2
 133 617 107 619 83 621 c 1
 83 671 l 1
 385 671 l 1
 385 621 l 1
 353 618 319 617 319 617 c 2
 310 617 300 614 305 602 c 2x68
 373 449 l 1
 510 602 l 2
 515 607 519 615 506 616 c 2
 452 621 l 1x58
 452 671 l 1
 720 671 l 1x68
 720 621 l 1x58
EndSplineSet
Substitution2: "'c2sc' Capitals to Small Capitals in Latin lookup 17 subtable" x.sc
Substitution2: "'c2sc' Capitals to Small Capitals in Cyrillic lookup 16 subtable" x.sc
Substitution2: "'c2sc' Capitals to Small Capitals lookup 15 subtable" x.sc
EndChar

StartChar: Y
Encoding: 89 89 58
Width: 681
Flags: MW
HStem: 0 55<205 205> 617 54<134 134 317.5 323 529 529> 619 52
VStem: 84 669<621 671 621 671>
LayerCount: 2
Fore
SplineSet
753 621 m 1xb0
 689 616 l 2
 682 615 674 608 671 604 c 2xb0
 417 281 l 1
 375 70 l 2
 372 58 379 56 393 55 c 2
 393 55 422 53 450 50 c 1
 450 0 l 1
 148 0 l 1
 148 50 l 1
 175 53 205 55 205 55 c 2
 218 56 227 58 230 71 c 2
 271 273 l 1
 159 605 l 2
 156 616 146 616 134 617 c 2
 134 617 107 619 84 621 c 1
 84 671 l 1
 385 671 l 1
 385 621 l 1
 355 619 323 617 323 617 c 2
 312 617 302 614 307 601 c 2
 376 384 l 1
 541 602 l 2
 545 607 544 616 529 617 c 2xd0
 470 621 l 1xb0
 470 671 l 1
 753 671 l 1xd0
 753 621 l 1xb0
EndSplineSet
Substitution2: "'c2sc' Capitals to Small Capitals in Latin lookup 17 subtable" y.sc
Substitution2: "'c2sc' Capitals to Small Capitals in Cyrillic lookup 16 subtable" y.sc
Substitution2: "'c2sc' Capitals to Small Capitals lookup 15 subtable" y.sc
EndChar

StartChar: Z
Encoding: 90 90 59
Width: 604
Flags: MW
HStem: 0 62<162 408 408 413 162 516> 609 62<240 245 245 453>
VStem: -21 659
LayerCount: 2
Fore
SplineSet
638 671 m 1
 628 621 l 1
 162 62 l 1
 408 62 l 2
 418 62 433 68 436 77 c 2
 472 207 l 1
 556 207 l 1
 516 0 l 1
 -21 0 l 1
 -11 49 l 1
 453 609 l 1
 245 609 l 2
 235 609 220 605 217 595 c 2
 185 489 l 1
 101 489 l 1
 137 671 l 1
 638 671 l 1
EndSplineSet
Substitution2: "'c2sc' Capitals to Small Capitals in Latin lookup 17 subtable" z.sc
Substitution2: "'c2sc' Capitals to Small Capitals in Cyrillic lookup 16 subtable" z.sc
Substitution2: "'c2sc' Capitals to Small Capitals lookup 15 subtable" z.sc
EndChar

StartChar: bracketleft
Encoding: 91 91 60
Width: 448
Flags: MW
HStem: -132 58<189 331> 648 60<333 486 333 333>
VStem: 54 444
LayerCount: 2
Fore
SplineSet
498 708 m 1
 486 648 l 1
 333 648 l 1
 189 -74 l 1
 343 -74 l 1
 331 -132 l 1
 54 -132 l 1
 220 708 l 1
 498 708 l 1
EndSplineSet
EndChar

StartChar: backslash
Encoding: 92 92 61
Width: 494
Flags: MW
HStem: 661 21G
VStem: 0 494
LayerCount: 2
Fore
SplineSet
494 -93 m 1
 416 -93 l 1
 0 671 l 1
 78 671 l 1
 494 -93 l 1
EndSplineSet
EndChar

StartChar: bracketright
Encoding: 93 93 62
Width: 448
Flags: MW
HStem: -132 58<-29 125 -29 237 -41 125> 648 60<126 268 114 403>
VStem: -41 444
LayerCount: 2
Fore
SplineSet
403 708 m 1
 237 -132 l 1
 -41 -132 l 1
 -29 -74 l 1
 125 -74 l 1
 268 648 l 1
 114 648 l 1
 126 708 l 1
 403 708 l 1
EndSplineSet
EndChar

StartChar: asciicircum
Encoding: 94 94 63
Width: 339
Flags: MW
HStem: 551 171<57 320 57 320 313 320 202 397 313 313>
VStem: 57 340<551 551>
LayerCount: 2
Fore
SplineSet
397 551 m 1
 313 551 l 1
 246 646 l 1
 140 551 l 1
 57 551 l 1
 202 722 l 1
 320 722 l 1
 397 551 l 1
EndSplineSet
EndChar

StartChar: underscore
Encoding: 95 95 64
Width: 341
Flags: MW
HStem: -166 81<-63 262 -80 278>
VStem: -80 358<-166 -85>
LayerCount: 2
Fore
SplineSet
278 -85 m 1
 262 -166 l 1
 -80 -166 l 1
 -63 -85 l 1
 278 -85 l 1
EndSplineSet
EndChar

StartChar: grave
Encoding: 96 96 65
Width: 423
Flags: MW
HStem: 551 183<120.5 342 120.5 272>
VStem: 85 257<551 693>
LayerCount: 2
Fore
SplineSet
342 551 m 1
 272 551 l 1
 110 639 l 2
 96 647 85 668 85 681 c 0
 85 705 99 734 142 734 c 0
 169 734 182 727 205 702 c 2
 342 551 l 1
EndSplineSet
EndChar

StartChar: a
Encoding: 97 97 66
Width: 567
Flags: MW
HStem: -12 69<392 480.5> -12 75<201 223> 442 46 442 58<295 358.5 236.5 364.5>
VStem: 32 141<150.5 234 150.5 245.5>
LayerCount: 2
Fore
SplineSet
565 30 m 1x58
 519 12 464 -12 413 -12 c 0
 371 -12 342 4 329 33 c 1
 294 10 247 -12 199 -12 c 0
 76 -12 32 96 32 171 c 0
 32 320 129 500 344 500 c 0
 373 500 404 491 427 479 c 1x58
 434 488 l 1
 541 488 l 1
 534 468 518 436 516 427 c 2
 451 97 l 1
 451 67 454 57 478 57 c 0
 483 57 555 76 565 78 c 1xa8
 565 30 l 1x58
375 394 m 0
 377 400 370 442 359 442 c 0
 231 442 173 291 173 177 c 0
 173 124 171 63 231 63 c 0
 274 63 309 108 323 121 c 1
 338 201 328 149 375 394 c 0
EndSplineSet
Substitution2: "'ss05' Style Set 5 in Latin lookup 41 subtable" a.2StorySItal
Substitution2: "'ss05' Style Set 5 in Cyrillic lookup 40 subtable" a.2StorySItal
Substitution2: "'ss05' Style Set 5 lookup 39 subtable" a.2StorySItal
Substitution2: "'ss07' Style Set 7 in Latin lookup 35 subtable" a.SngStory
Substitution2: "'ss07' Style Set 7 in Cyrillic lookup 34 subtable" a.SngStory
Substitution2: "'ss07' Style Set 7 lookup 33 subtable" a.SngStory
Substitution2: "'smcp' Lowercase to Small Capitals in Latin lookup 14 subtable" a.sc
Substitution2: "'smcp' Lowercase to Small Capitals in Cyrillic lookup 13 subtable" a.sc
Substitution2: "'smcp' Lowercase to Small Capitals lookup 12 subtable" a.sc
AlternateSubs2: "'aalt' Access All Alternates lookup 1 subtable" a.sc a.SngStory a.2StorySItal
EndChar

StartChar: b
Encoding: 98 98 67
Width: 532
Flags: MW
HStem: -12 56<204.5 253 204.5 313.5> 424 76<296 396.5>
VStem: 362 139<251.5 349>
LayerCount: 2
Fore
SplineSet
501 311 m 0
 501 192 428 -12 199 -12 c 0
 127 -12 66 7 18 38 c 1
 135 661 l 1
 47 669 l 1
 47 705 l 1
 216 737 l 1
 284 737 l 1
 232 468 l 1
 268 487 308 500 343 500 c 0
 450 500 501 395 501 311 c 0
362 307 m 0
 362 391 333 424 310 424 c 0
 282 424 245 404 215 378 c 1
 159 79 l 1
 170 62 189 44 220 44 c 0
 286 44 362 183 362 307 c 0
EndSplineSet
Substitution2: "'smcp' Lowercase to Small Capitals in Latin lookup 14 subtable" b.sc
Substitution2: "'smcp' Lowercase to Small Capitals in Cyrillic lookup 13 subtable" b.sc
Substitution2: "'smcp' Lowercase to Small Capitals lookup 12 subtable" b.sc
Substitution2: "'aalt' Access All Alternates lookup 0 subtable" b.sc
EndChar

StartChar: c
Encoding: 99 99 68
Width: 480
Flags: MW
HStem: -12 74<208 256.5> 427 73<299 299> 490 21G
VStem: 33 137<158.5 209.5 158.5 264.5>
LayerCount: 2
Fore
SplineSet
450 426 m 0xb0
 450 402 429 349 354 349 c 1
 299 427 l 1xd0
 186 402 170 230 170 189 c 0
 170 128 176 62 240 62 c 0
 290 62 338 86 428 194 c 1
 428 94 l 1
 373 30 304 -12 209 -12 c 0
 87 -12 33 64 33 178 c 0
 33 351 144 500 335 500 c 0
 414 500 450 458 450 426 c 0xb0
EndSplineSet
Substitution2: "'smcp' Lowercase to Small Capitals in Latin lookup 14 subtable" c.sc
Substitution2: "'smcp' Lowercase to Small Capitals in Cyrillic lookup 13 subtable" c.sc
Substitution2: "'smcp' Lowercase to Small Capitals lookup 12 subtable" c.sc
Substitution2: "'aalt' Access All Alternates lookup 0 subtable" c.sc
EndChar

StartChar: d
Encoding: 100 100 69
Width: 565
Flags: MW
HStem: -12 61<387 485> -12 71<208.5 217.5> 443 57<298 345> 478 21G
VStem: 32 138<134.5 245.5>
LayerCount: 2
Fore
SplineSet
570 737 m 1x68
 455 90 l 2
 449 57 463 49 471 49 c 0
 499 49 542 68 564 79 c 1xa8
 564 30 l 1
 530 10 464 -12 412 -12 c 0
 362 -12 333 6 322 36 c 1
 286 9 239 -12 196 -12 c 0
 80 -12 32 83 32 169 c 0
 32 322 133 500 335 500 c 0x68
 360 500 380 492 393 488 c 1x58
 423 661 l 1
 333 669 l 1
 333 705 l 1
 502 737 l 1
 570 737 l 1x68
376 394 m 2
 377 399 357 443 333 443 c 0
 263 443 170 334 170 175 c 0
 170 94 190 59 227 59 c 0x68
 261 59 296 96 330 135 c 1
 376 394 l 2
EndSplineSet
Substitution2: "'smcp' Lowercase to Small Capitals in Latin lookup 14 subtable" d.sc
Substitution2: "'smcp' Lowercase to Small Capitals in Cyrillic lookup 13 subtable" d.sc
Substitution2: "'smcp' Lowercase to Small Capitals lookup 12 subtable" d.sc
Substitution2: "'aalt' Access All Alternates lookup 0 subtable" d.sc
EndChar

StartChar: e
Encoding: 101 101 70
Width: 479
Flags: MW
HStem: -12 70<219 262.5> 444 56<267 313>
VStem: 33 139<143.5 183.5 143.5 250> 333 130<365.5 407.5>
LayerCount: 2
Fore
SplineSet
463 395 m 0
 463 290 308 230 175 219 c 1
 174 207 172 189 172 178 c 0
 172 109 191 58 247 58 c 0
 290 58 330 90 440 185 c 1
 440 90 l 1
 401 52 311 -12 214 -12 c 0
 127 -12 33 26 33 174 c 0
 33 326 150 500 321 500 c 0
 419 500 463 425 463 395 c 0
333 396 m 0
 333 419 328 444 298 444 c 0
 236 444 200 344 182 271 c 1
 251 287 333 335 333 396 c 0
EndSplineSet
Substitution2: "'smcp' Lowercase to Small Capitals in Latin lookup 14 subtable" e.sc
Substitution2: "'smcp' Lowercase to Small Capitals in Cyrillic lookup 13 subtable" e.sc
Substitution2: "'smcp' Lowercase to Small Capitals lookup 12 subtable" e.sc
Substitution2: "'aalt' Access All Alternates lookup 0 subtable" e.sc
EndChar

StartChar: f
Encoding: 102 102 71
Width: 361
Flags: MW
HStem: -229 21G<-75.5 15.5> 400 59<264 386 264 386 254 386>
VStem: -130 612
LayerCount: 2
Fore
SplineSet
482 670 m 0
 482 640 467 610 396 600 c 1
 334 659 l 1
 279 611 272 507 264 459 c 1
 386 459 l 1
 386 400 l 1
 254 400 l 1
 246 344 212 95 195 24 c 0
 169 -82 78 -229 -47 -229 c 0
 -104 -229 -130 -183 -130 -159 c 0
 -130 -133 -111 -104 -84 -85 c 1
 6 -142 l 1
 37 -98 57 -21 73 64 c 0
 90 156 101 270 120 397 c 1
 44 389 l 1
 46 436 l 1
 132 466 l 1
 152 565 208 737 370 737 c 0
 444 737 482 696 482 670 c 0
EndSplineSet
Substitution2: "'ss05' Style Set 5 in Latin lookup 41 subtable" f.SItal
Substitution2: "'ss05' Style Set 5 in Cyrillic lookup 40 subtable" f.SItal
Substitution2: "'ss05' Style Set 5 lookup 39 subtable" f.SItal
Substitution2: "'smcp' Lowercase to Small Capitals in Latin lookup 14 subtable" f.sc
Substitution2: "'smcp' Lowercase to Small Capitals in Cyrillic lookup 13 subtable" f.sc
Substitution2: "'smcp' Lowercase to Small Capitals lookup 12 subtable" f.sc
AlternateSubs2: "'aalt' Access All Alternates lookup 1 subtable" f.sc f.SItal
EndChar

StartChar: g
Encoding: 103 103 72
Width: 485
Flags: MW
HStem: -229 56<169 255.5 169 259.5> 417 58<441 533 441 441> 448 52<265 295>
VStem: -31 136<-83.5 -45> 49 138<265.5 334 262 343.5> 314 138<329.5 367 305.5 383.5> 325 135<-98.5 -71.5>
LayerCount: 2
Fore
SplineSet
533 417 m 1xcc
 441 417 l 1
 447 402 452 379 452 355 c 0xcc
 452 256 375 160 230 159 c 1
 223 140 219 119 221 108 c 1
 354 48 l 2
 418 20 460 -5 460 -63 c 0
 460 -147 335 -229 184 -229 c 0
 26 -229 -31 -151 -31 -79 c 0xb2
 -31 -11 28 35 103 61 c 1
 98 92 115 145 141 172 c 1
 88 197 49 234 49 297 c 0
 49 390 119 500 274 500 c 0xac
 324 500 368 483 387 475 c 1
 533 475 l 1
 533 417 l 1xcc
314 360 m 0xac
 314 407 314 448 276 448 c 0
 254 448 187 383 187 285 c 0
 187 239 191 206 224 206 c 0
 290 206 314 299 314 360 c 0xac
325 -83 m 0xb2
 325 -60 313 -40 276 -23 c 2
 164 26 l 1
 120 9 105 -25 105 -62 c 0
 105 -105 128 -173 210 -173 c 0
 301 -173 325 -114 325 -83 c 0xb2
EndSplineSet
Substitution2: "'ss07' Style Set 7 in Latin lookup 35 subtable" g.SngBowl
Substitution2: "'ss07' Style Set 7 in Cyrillic lookup 34 subtable" g.SngBowl
Substitution2: "'ss07' Style Set 7 lookup 33 subtable" g.SngBowl
Substitution2: "'smcp' Lowercase to Small Capitals in Latin lookup 14 subtable" g.sc
Substitution2: "'smcp' Lowercase to Small Capitals in Cyrillic lookup 13 subtable" g.sc
Substitution2: "'smcp' Lowercase to Small Capitals lookup 12 subtable" g.sc
AlternateSubs2: "'aalt' Access All Alternates lookup 1 subtable" g.sc g.SngBowl
EndChar

StartChar: h
Encoding: 104 104 73
Width: 564
Flags: MW
HStem: -12 21G<385.5 435.5> -12 62<385.5 493.5> 0 21G<17 150 17 17> 424 76<327 447>
VStem: 314 140 378 138
LayerCount: 2
Fore
SplineSet
563 28 m 1x54
 513 4 462 -12 409 -12 c 0x98
 362 -12 305 6 316 58 c 2
 376 349 l 2
 386 397 362 424 342 424 c 0
 312 424 264 392 223 350 c 1
 150 0 l 1
 17 0 l 1
 155 661 l 1
 67 669 l 1
 67 705 l 1
 236 737 l 1
 305 737 l 1
 245 454 l 1
 285 479 338 500 397 500 c 0x34
 497 500 529 443 512 359 c 2
 456 94 l 2
 449 61 468 50 479 50 c 0
 508 50 532 61 562 78 c 1x58
 563 28 l 1x54
EndSplineSet
Substitution2: "'smcp' Lowercase to Small Capitals in Latin lookup 14 subtable" h.sc
Substitution2: "'smcp' Lowercase to Small Capitals in Cyrillic lookup 13 subtable" h.sc
Substitution2: "'smcp' Lowercase to Small Capitals lookup 12 subtable" h.sc
Substitution2: "'aalt' Access All Alternates lookup 0 subtable" h.sc
EndChar

StartChar: i
Encoding: 105 105 74
Width: 310
Flags: MW
HStem: -12 65<102.5 209.5> 490 21G 730 21G
VStem: 48 135 140 155<641.5 684.5>
LayerCount: 2
Fore
SplineSet
295 663 m 0xe8
 295 620 260 585 217 585 c 0
 174 585 140 620 140 663 c 0
 140 706 174 740 217 740 c 0
 260 740 295 706 295 663 c 0xe8
308 32 m 1
 248 0 197 -12 139 -12 c 0
 66 -12 40 42 50 91 c 2
 113 423 l 1
 27 432 l 1
 27 467 l 1
 192 500 l 1
 262 500 l 1
 185 99 l 2
 180 75 180 53 204 53 c 0
 215 53 271 67 308 87 c 1xf0
 308 32 l 1
EndSplineSet
Substitution2: "'ss05' Style Set 5 in Latin lookup 41 subtable" i.SItal
Substitution2: "'ss05' Style Set 5 in Cyrillic lookup 40 subtable" i.SItal
Substitution2: "'ss05' Style Set 5 lookup 39 subtable" i.SItal
Substitution2: "'smcp' Lowercase to Small Capitals in Latin lookup 14 subtable" i.sc
Substitution2: "'smcp' Lowercase to Small Capitals in Cyrillic lookup 13 subtable" i.sc
Substitution2: "'smcp' Lowercase to Small Capitals lookup 12 subtable" i.sc
AlternateSubs2: "'aalt' Access All Alternates lookup 1 subtable" i.sc i.SItal
EndChar

StartChar: j
Encoding: 106 106 75
Width: 317
Flags: MW
HStem: -229 21G<-65.5 27> 490 21G 730 21G
VStem: 155 156<641.5 684.5>
LayerCount: 2
Fore
SplineSet
311 663 m 0
 311 620 275 585 232 585 c 0
 189 585 155 620 155 663 c 0
 155 706 189 740 232 740 c 0
 275 740 311 706 311 663 c 0
275 500 m 1
 204 84 l 2
 186 -17 96 -229 -42 -229 c 0
 -89 -229 -129 -204 -129 -171 c 0
 -129 -146 -111 -132 -88 -117 c 1
 7 -142 l 1
 25 -114 46 -55 55 -6 c 2
 129 422 l 1
 43 431 l 1
 43 467 l 1
 209 500 l 1
 275 500 l 1
EndSplineSet
Substitution2: "'smcp' Lowercase to Small Capitals in Latin lookup 14 subtable" j.sc
Substitution2: "'smcp' Lowercase to Small Capitals in Cyrillic lookup 13 subtable" j.sc
Substitution2: "'smcp' Lowercase to Small Capitals lookup 12 subtable" j.sc
Substitution2: "'aalt' Access All Alternates lookup 0 subtable" j.sc
EndChar

StartChar: k
Encoding: 107 107 76
Width: 549
Flags: MW
HStem: -12 21G<376 417> -12 63<376 456.5> 0 21G<12 145 12 12> 490 21G
VStem: 12 526<0 26>
LayerCount: 2
Fore
SplineSet
538 26 m 1x58
 505 9 440 -12 394 -12 c 0x98
 358 -12 315 16 297 43 c 0
 275 77 233 170 208 224 c 1
 187 205 l 1
 145 0 l 1
 12 0 l 1x38
 146 661 l 1
 58 669 l 1
 58 705 l 1
 227 737 l 1
 295 737 l 1
 211 326 l 1
 323 441 l 2
 364 484 399 500 438 500 c 0
 487 500 523 469 523 442 c 0
 523 418 517 371 440 345 c 1
 400 410 l 1
 368 383 325 338 300 316 c 1
 318 282 343 206 372 152 c 0
 401 100 422 51 456 51 c 0
 457 51 482 56 538 79 c 1
 538 26 l 1x58
EndSplineSet
Substitution2: "'smcp' Lowercase to Small Capitals in Latin lookup 14 subtable" k.sc
Substitution2: "'smcp' Lowercase to Small Capitals in Cyrillic lookup 13 subtable" k.sc
Substitution2: "'smcp' Lowercase to Small Capitals lookup 12 subtable" k.sc
Substitution2: "'aalt' Access All Alternates lookup 0 subtable" k.sc
EndChar

StartChar: l
Encoding: 108 108 77
Width: 306
Flags: MW
HStem: -12 65<111 210>
VStem: 39 137<41 102> 39 265<41 69.5>
LayerCount: 2
Fore
SplineSet
304 29 m 1xa0
 256 4 196 -12 144 -12 c 0
 78 -12 39 18 39 64 c 0
 39 75 40 87 43 100 c 2
 152 661 l 1
 64 669 l 1
 64 705 l 1
 233 737 l 1
 299 737 l 1
 176 102 l 2
 172 79 177 53 202 53 c 0xc0
 218 53 257 62 304 83 c 1
 304 29 l 1xa0
EndSplineSet
Substitution2: "'ss05' Style Set 5 in Latin lookup 41 subtable" l.SItal
Substitution2: "'ss05' Style Set 5 in Cyrillic lookup 40 subtable" l.SItal
Substitution2: "'ss05' Style Set 5 lookup 39 subtable" l.SItal
Substitution2: "'smcp' Lowercase to Small Capitals in Latin lookup 14 subtable" l.sc
Substitution2: "'smcp' Lowercase to Small Capitals in Cyrillic lookup 13 subtable" l.sc
Substitution2: "'smcp' Lowercase to Small Capitals lookup 12 subtable" l.sc
AlternateSubs2: "'aalt' Access All Alternates lookup 1 subtable" l.sc l.SItal
EndChar

StartChar: m
Encoding: 109 109 78
Width: 826
Flags: MW
HStem: -12 21G<645.5 701.5> -12 62<645.5 747> 0 21G<18 151 18 18 290 422 290 290> 422 78<187 356.5>
VStem: 574 139 637 139
LayerCount: 2
Fore
SplineSet
823 29 m 1x54
 773 3 727 -12 676 -12 c 0x98
 615 -12 565 13 575 62 c 2
 630 328 l 2
 643 390 637 422 611 422 c 0
 552 422 508 363 494 341 c 1
 422 0 l 1
 290 0 l 1
 359 329 l 2
 367 368 378 422 335 422 c 0
 293 422 248 370 222 339 c 1
 151 0 l 1
 18 0 l 1
 106 425 l 1
 22 433 l 1
 22 467 l 1
 187 500 l 1
 256 500 l 1
 244 443 l 1
 292 476 345 500 391 500 c 0
 446 500 478 466 493 432 c 1
 545 471 613 500 665 500 c 0x34
 736 500 789 448 772 369 c 2
 715 100 l 2
 709 72 715 50 740 50 c 0
 754 50 795 61 823 75 c 1x58
 823 29 l 1x54
EndSplineSet
Substitution2: "'smcp' Lowercase to Small Capitals in Latin lookup 14 subtable" m.sc
Substitution2: "'smcp' Lowercase to Small Capitals in Cyrillic lookup 13 subtable" m.sc
Substitution2: "'smcp' Lowercase to Small Capitals lookup 12 subtable" m.sc
Substitution2: "'aalt' Access All Alternates lookup 0 subtable" m.sc
EndChar

StartChar: n
Encoding: 110 110 79
Width: 578
Flags: MW
HStem: -12 21G<396 441> 0 21G<24 157 24 24> 421 79<192 364.5>
VStem: 381 142
LayerCount: 2
Fore
SplineSet
574 23 m 1x70
 539 6 464 -12 418 -12 c 0xb0
 374 -12 306 -2 317 51 c 2
 378 356 l 2
 388 405 375 421 354 421 c 0
 323 421 270 382 228 339 c 1
 157 0 l 1
 24 0 l 1
 112 425 l 1
 28 433 l 1
 28 467 l 1
 192 500 l 1
 261 500 l 1
 249 442 l 1
 298 475 358 500 410 500 c 0
 510 500 535 454 519 369 c 2
 465 88 l 2
 459 55 479 49 489 49 c 0
 510 49 542 58 572 71 c 1
 574 23 l 1x70
EndSplineSet
Substitution2: "'smcp' Lowercase to Small Capitals in Latin lookup 14 subtable" n.sc
Substitution2: "'smcp' Lowercase to Small Capitals in Cyrillic lookup 13 subtable" n.sc
Substitution2: "'smcp' Lowercase to Small Capitals lookup 12 subtable" n.sc
Substitution2: "'aalt' Access All Alternates lookup 0 subtable" n.sc
EndChar

StartChar: o
Encoding: 111 111 80
Width: 553
Flags: MW
HStem: -12 55<232.5 279 232.5 323> 447 53<278.5 321.5>
VStem: 32 143<133.5 252.5 133.5 259.5> 378 144<245.5 356>
LayerCount: 2
Fore
SplineSet
522 303 m 0
 522 146 414 -12 232 -12 c 0
 95 -12 32 70 32 181 c 0
 32 338 135 500 320 500 c 0
 443 500 522 433 522 303 c 0
378 307 m 0
 378 405 334 447 309 447 c 0
 248 447 175 320 175 185 c 0
 175 82 221 43 244 43 c 0
 314 43 378 184 378 307 c 0
EndSplineSet
Substitution2: "'smcp' Lowercase to Small Capitals in Latin lookup 14 subtable" o.sc
Substitution2: "'smcp' Lowercase to Small Capitals in Cyrillic lookup 13 subtable" o.sc
Substitution2: "'smcp' Lowercase to Small Capitals lookup 12 subtable" o.sc
Substitution2: "'aalt' Access All Alternates lookup 0 subtable" o.sc
EndChar

StartChar: p
Encoding: 112 112 81
Width: 541
Flags: MW
HStem: -219 51<123.5 129 123.5 198> -12 53<210 261 210 295> -4 21G<144 144> 430 70<329.5 335.5>
VStem: 369 140<248.5 335>
LayerCount: 2
Fore
SplineSet
509 311 m 0xd8
 509 151 390 -12 200 -12 c 0xd8
 176 -12 157 -8 144 -4 c 1xb8
 114 -152 l 2
 112 -161 118 -168 129 -168 c 2
 198 -174 l 1
 198 -219 l 1
 -96 -219 l 1
 -96 -174 l 1
 -75 -172 -36 -169 -36 -169 c 2
 -26 -168 -21 -161 -19 -152 c 2
 94 424 l 1
 11 433 l 1
 11 467 l 1
 176 500 l 1
 243 500 l 1
 236 463 l 1
 257 475 303 500 356 500 c 0
 461 500 509 402 509 311 c 0xd8
369 307 m 0
 369 363 362 430 309 430 c 0
 281 430 239 394 219 376 c 1
 158 68 l 1
 174 58 201 41 219 41 c 0
 303 41 369 190 369 307 c 0
EndSplineSet
Substitution2: "'smcp' Lowercase to Small Capitals in Latin lookup 14 subtable" p.sc
Substitution2: "'smcp' Lowercase to Small Capitals in Cyrillic lookup 13 subtable" p.sc
Substitution2: "'smcp' Lowercase to Small Capitals lookup 12 subtable" p.sc
Substitution2: "'aalt' Access All Alternates lookup 0 subtable" p.sc
EndChar

StartChar: q
Encoding: 113 113 82
Width: 569
Flags: MW
HStem: -219 51<258 258 413.5 419> -14 70<208.5 211> 445 55<308.5 354.5 240 358>
VStem: 34 137<139 246>
LayerCount: 2
Fore
SplineSet
538 500 m 1
 408 -152 l 2
 406 -161 408 -168 419 -168 c 2
 419 -168 446 -170 491 -174 c 1
 491 -219 l 1
 197 -219 l 1
 197 -174 l 1
 215 -173 258 -168 258 -168 c 2
 268 -167 273 -161 275 -152 c 2
 310 22 l 1
 270 -1 229 -14 193 -14 c 0
 86 -14 34 56 34 171 c 0
 34 321 142 500 338 500 c 0
 371 500 402 492 425 482 c 1
 441 500 l 1
 538 500 l 1
383 390 m 2
 386 404 365 445 351 445 c 0
 266 445 171 335 171 175 c 0
 171 103 184 56 233 56 c 0
 273 56 301 91 328 115 c 1
 383 390 l 2
EndSplineSet
Substitution2: "'smcp' Lowercase to Small Capitals in Latin lookup 14 subtable" q.sc
Substitution2: "'smcp' Lowercase to Small Capitals in Cyrillic lookup 13 subtable" q.sc
Substitution2: "'smcp' Lowercase to Small Capitals lookup 12 subtable" q.sc
Substitution2: "'aalt' Access All Alternates lookup 0 subtable" q.sc
EndChar

StartChar: r
Encoding: 114 114 83
Width: 418
Flags: MW
HStem: 0 21G<18 151 18 18> 490 21G
VStem: 18 438<0 443.5>
LayerCount: 2
Fore
SplineSet
456 429 m 0
 456 383 429 360 361 360 c 1
 334 414 l 1
 271 383 219 324 207 264 c 2
 151 0 l 1
 18 0 l 1
 106 423 l 1
 22 432 l 1
 22 467 l 1
 188 500 l 1
 257 500 l 1
 244 433 l 1
 280 470 330 500 380 500 c 0
 432 500 456 458 456 429 c 0
EndSplineSet
Substitution2: "'smcp' Lowercase to Small Capitals in Latin lookup 14 subtable" r.sc
Substitution2: "'smcp' Lowercase to Small Capitals in Cyrillic lookup 13 subtable" r.sc
Substitution2: "'smcp' Lowercase to Small Capitals lookup 12 subtable" r.sc
Substitution2: "'aalt' Access All Alternates lookup 0 subtable" r.sc
EndChar

StartChar: s
Encoding: 115 115 84
Width: 415
Flags: MW
HStem: -12 49<161.5 195 161.5 220> 445 55<218.5 240.5>
VStem: 70 121<362.5 393> 235 133<109.5 134.5>
LayerCount: 2
Fore
SplineSet
394 423 m 0
 394 378 371 358 310 354 c 1
 259 441 l 1
 259 441 248 445 233 445 c 0
 193 445 191 408 191 383 c 0
 191 342 237 304 280 271 c 0
 325 236 368 197 368 148 c 0
 368 71 295 -12 145 -12 c 0
 40 -12 -7 35 -7 83 c 0
 -7 118 22 151 49 151 c 0
 78 151 98 141 111 127 c 1
 93 68 l 1
 107 48 148 37 175 37 c 0
 215 37 235 67 235 114 c 0
 235 155 202 183 153 220 c 0
 111 252 70 296 70 346 c 0
 70 440 165 500 272 500 c 0
 355 500 394 448 394 423 c 0
EndSplineSet
Substitution2: "'smcp' Lowercase to Small Capitals in Latin lookup 14 subtable" s.sc
Substitution2: "'smcp' Lowercase to Small Capitals in Cyrillic lookup 13 subtable" s.sc
Substitution2: "'smcp' Lowercase to Small Capitals lookup 12 subtable" s.sc
Substitution2: "'aalt' Access All Alternates lookup 0 subtable" s.sc
EndChar

StartChar: t
Encoding: 116 116 85
Width: 344
Flags: MW
HStem: -12 69<121.5 235.5> 418 55<254 393 254 393 244 393>
VStem: 46 134
LayerCount: 2
Fore
SplineSet
393 418 m 1
 244 418 l 1
 181 109 l 2
 174 78 189 57 220 57 c 0
 251 57 313 81 345 92 c 1
 345 37 l 1
 323 27 223 -12 160 -12 c 0
 83 -12 46 26 46 78 c 0
 46 91 47 104 50 118 c 2
 111 416 l 1
 39 408 l 1
 39 449 l 1
 124 483 l 1
 175 586 l 1
 275 586 l 1
 254 473 l 1
 393 473 l 1
 393 418 l 1
EndSplineSet
Substitution2: "'smcp' Lowercase to Small Capitals in Latin lookup 14 subtable" t.sc
Substitution2: "'smcp' Lowercase to Small Capitals in Cyrillic lookup 13 subtable" t.sc
Substitution2: "'smcp' Lowercase to Small Capitals lookup 12 subtable" t.sc
Substitution2: "'aalt' Access All Alternates lookup 0 subtable" t.sc
EndChar

StartChar: u
Encoding: 117 117 86
Width: 574
Flags: MW
HStem: -12 60<379.5 493> -12 70<200.5 202.5> 478 21G 490 21G
VStem: 45 134
LayerCount: 2
Fore
SplineSet
572 28 m 1x58
 545 13 471 -12 414 -12 c 0
 345 -12 332 21 329 35 c 1
 285 5 235 -12 170 -12 c 0
 71 -12 35 63 47 117 c 2
 112 424 l 1
 28 433 l 1
 28 467 l 1
 193 500 l 1
 262 500 l 1
 180 117 l 2
 174 86 188 58 213 58 c 0x58
 258 58 297 85 333 118 c 1
 411 488 l 1
 544 488 l 1
 462 100 l 2
 454 63 467 48 488 48 c 0
 498 48 511 52 572 84 c 1xa8
 572 28 l 1x58
EndSplineSet
Substitution2: "'smcp' Lowercase to Small Capitals in Latin lookup 14 subtable" u.sc
Substitution2: "'smcp' Lowercase to Small Capitals in Cyrillic lookup 13 subtable" u.sc
Substitution2: "'smcp' Lowercase to Small Capitals lookup 12 subtable" u.sc
Substitution2: "'aalt' Access All Alternates lookup 0 subtable" u.sc
EndChar

StartChar: v
Encoding: 118 118 87
Width: 508
Flags: MW
HStem: -12 21G<116 214 116 116> 426 74<72 122> 490 21G
VStem: 3 511<429 455.5 419 465 419 465>
LayerCount: 2
Fore
SplineSet
514 436 m 0xb0
 514 402 499 373 492 361 c 0
 402 197 279 59 214 -12 c 1
 116 -12 l 1
 133 22 140 47 139 69 c 0
 139 77 118 356 97 409 c 0
 91 424 90 426 72 426 c 2
 72 426 37 428 3 429 c 1
 3 465 l 1xd0
 122 500 l 1
 191 499 229 475 234 425 c 2
 261 167 l 1
 310 233 354 284 380 347 c 1
 352 474 l 1
 369 490 400 500 431 500 c 0
 478 500 514 475 514 436 c 0xb0
EndSplineSet
Substitution2: "'ss05' Style Set 5 in Latin lookup 41 subtable" v.SItal
Substitution2: "'ss05' Style Set 5 in Cyrillic lookup 40 subtable" v.SItal
Substitution2: "'ss05' Style Set 5 lookup 39 subtable" v.SItal
Substitution2: "'smcp' Lowercase to Small Capitals in Latin lookup 14 subtable" v.sc
Substitution2: "'smcp' Lowercase to Small Capitals in Cyrillic lookup 13 subtable" v.sc
Substitution2: "'smcp' Lowercase to Small Capitals lookup 12 subtable" v.sc
AlternateSubs2: "'aalt' Access All Alternates lookup 1 subtable" v.sc v.SItal
EndChar

StartChar: w
Encoding: 119 119 88
Width: 750
Flags: MW
HStem: -12 21G<96 199 96 96 382 481 382 382>
VStem: 4 751<432 445.5 381.5 464 381.5 464>
LayerCount: 2
Fore
SplineSet
755 437 m 0
 755 326 506 18 481 -12 c 1
 382 -12 l 1
 362 274 l 1
 310 171 247 61 199 -12 c 1
 96 -12 l 1
 107 15 l 1
 80 424 l 1
 4 432 l 1
 4 464 l 1
 138 500 l 1
 210 488 l 1
 229 186 l 1
 275 275 323 380 365 476 c 1
 479 488 l 1
 503 136 l 1
 549 202 612 292 645 364 c 1
 607 470 l 1
 613 478 633 500 674 500 c 0
 728 500 755 454 755 437 c 0
EndSplineSet
Substitution2: "'smcp' Lowercase to Small Capitals in Latin lookup 14 subtable" w.sc
Substitution2: "'smcp' Lowercase to Small Capitals in Cyrillic lookup 13 subtable" w.sc
Substitution2: "'smcp' Lowercase to Small Capitals lookup 12 subtable" w.sc
Substitution2: "'aalt' Access All Alternates lookup 0 subtable" w.sc
EndChar

StartChar: x
Encoding: 120 120 89
Width: 576
Flags: MW
HStem: -12 63<349.5 453.5> 490 21G
VStem: -18 604<28.5 455.5>
LayerCount: 2
Fore
SplineSet
586 437 m 0
 586 411 584 361 516 361 c 1
 472 413 l 1
 440 389 382 331 351 256 c 1
 358 232 381 166 399 125 c 0
 417 85 425 51 448 51 c 0
 459 51 482 51 526 81 c 1
 526 23 l 1
 480 -4 440 -12 382 -12 c 0
 317 -12 272 86 251 155 c 1
 236 130 162 -12 74 -12 c 0
 28 -12 -18 9 -18 48 c 0
 -18 79 -7 126 68 126 c 1
 106 67 l 1
 141 97 193 156 224 234 c 1
 215 273 167 415 152 417 c 2
 53 429 l 1
 53 460 l 1
 77 469 181 500 195 500 c 0
 257 500 291 438 320 341 c 1
 366 411 434 500 504 500 c 0
 545 500 586 474 586 437 c 0
EndSplineSet
Substitution2: "'smcp' Lowercase to Small Capitals in Latin lookup 14 subtable" x.sc
Substitution2: "'smcp' Lowercase to Small Capitals in Cyrillic lookup 13 subtable" x.sc
Substitution2: "'smcp' Lowercase to Small Capitals lookup 12 subtable" x.sc
Substitution2: "'aalt' Access All Alternates lookup 0 subtable" x.sc
EndChar

StartChar: y
Encoding: 121 121 90
Width: 542
Flags: MW
HStem: -229 21G<-16.5 84.5> 424 76<109 167.5> 490 21G
VStem: -81 653<-167 444>
LayerCount: 2
Fore
SplineSet
572 444 m 1xb0
 520 412 l 1
 504 397 456 322 438 281 c 0
 409 217 358 94 295 -14 c 0
 228 -130 145 -229 24 -229 c 0
 -57 -229 -81 -181 -81 -153 c 0
 -81 -120 -62 -72 0 -70 c 1
 43 -146 l 1
 88 -136 138 -81 194 21 c 1
 191 37 173 135 152 230 c 0
 132 322 118 424 109 424 c 2
 3 432 l 1xd0
 3 463 l 1
 26 471 124 500 145 500 c 0
 190 500 217 496 245 402 c 0
 259 356 276 276 292 198 c 1
 429 500 l 1
 477 500 l 1
 572 470 l 1
 572 444 l 1xb0
EndSplineSet
Substitution2: "'smcp' Lowercase to Small Capitals in Latin lookup 14 subtable" y.sc
Substitution2: "'smcp' Lowercase to Small Capitals in Cyrillic lookup 13 subtable" y.sc
Substitution2: "'smcp' Lowercase to Small Capitals lookup 12 subtable" y.sc
Substitution2: "'aalt' Access All Alternates lookup 0 subtable" y.sc
EndChar

StartChar: z
Encoding: 122 122 91
Width: 491
Flags: MW
HStem: -11 84<298.5 317 298.5 326.5> 415 85<166 184.5>
VStem: -16 514<16 470>
LayerCount: 2
Fore
SplineSet
498 470 m 1
 168 92 l 1
 231 105 l 1
 267 86 287 73 310 73 c 0
 324 73 365 87 374 102 c 1
 314 166 l 1
 321 176 358 204 391 204 c 0
 434 204 453 157 453 130 c 0
 453 66 373 -11 280 -11 c 0
 212 -11 156 31 143 31 c 0
 134 31 126 31 122 25 c 2
 85 -39 l 1
 -16 16 l 1
 314 396 l 1
 251 383 l 1
 216 402 196 415 173 415 c 0
 159 415 118 401 109 386 c 1
 168 323 l 1
 162 312 125 284 92 284 c 0
 49 284 30 331 30 358 c 0
 30 422 110 500 203 500 c 0
 271 500 327 457 340 457 c 0
 349 457 356 458 361 463 c 2
 388 526 l 1
 498 470 l 1
EndSplineSet
Substitution2: "'ss05' Style Set 5 in Latin lookup 41 subtable" z.SItal
Substitution2: "'ss05' Style Set 5 in Cyrillic lookup 40 subtable" z.SItal
Substitution2: "'ss05' Style Set 5 lookup 39 subtable" z.SItal
Substitution2: "'smcp' Lowercase to Small Capitals in Latin lookup 14 subtable" z.sc
Substitution2: "'smcp' Lowercase to Small Capitals in Cyrillic lookup 13 subtable" z.sc
Substitution2: "'smcp' Lowercase to Small Capitals lookup 12 subtable" z.sc
AlternateSubs2: "'aalt' Access All Alternates lookup 1 subtable" z.sc z.SItal
EndChar

StartChar: braceleft
Encoding: 123 123 92
Width: 495
Flags: MW
HStem: -122 55<333.5 356> 264 57 651 55<499 499>
VStem: 220 125
LayerCount: 2
Fore
SplineSet
509 706 m 1
 499 651 l 1
 499 651 435 654 398 624 c 0
 327 565 367 413 270 336 c 0
 220 295 166 292 155 292 c 1
 166 292 218 287 252 247 c 0
 319 169 218 19 267 -40 c 0
 292 -70 356 -67 356 -67 c 1
 345 -122 l 1
 322 -122 197 -126 156 -81 c 0
 81 0 192 175 145 234 c 0
 114 273 41 262 41 262 c 1
 52 322 l 1
 52 322 121 310 167 349 c 0
 237 408 197 584 304 665 c 0
 363 710 486 706 509 706 c 1
EndSplineSet
EndChar

StartChar: bar
Encoding: 124 124 93
Width: 397
Flags: MW
HStem: -258 1054<156 242 156 242>
VStem: 156 85
LayerCount: 2
Fore
SplineSet
242 -258 m 1
 156 -258 l 1
 156 796 l 1
 242 796 l 1
 242 -258 l 1
EndSplineSet
EndChar

StartChar: braceright
Encoding: 125 125 94
Width: 495
Flags: MW
HStem: -122 55<8 8 8 8.5> 264 57 651 55<150 172.5>
LayerCount: 2
Fore
SplineSet
465 322 m 1
 454 262 l 1
 454 262 385 273 338 234 c 0
 268 174 309 0 203 -81 c 0
 144 -126 20 -122 -3 -122 c 1
 8 -67 l 1
 8 -67 71 -70 108 -40 c 0
 179 18 138 169 235 247 c 0
 284 286 337 291 350 292 c 1
 341 292 288 295 253 336 c 0
 186 414 287 566 239 624 c 0
 215 654 150 651 150 651 c 1
 161 706 l 1
 184 706 309 710 351 665 c 0
 425 584 314 408 361 349 c 0
 392 310 465 322 465 322 c 1
EndSplineSet
EndChar

StartChar: asciitilde
Encoding: 126 126 95
Width: 833
Flags: MW
HStem: 224 82<545 576.5 545 582.5> 291 82<254 318.5 254 324>
VStem: 86 661<201 300 296 300>
LayerCount: 2
Fore
SplineSet
747 300 m 1xa0
 666 242 611 224 554 224 c 0
 457 224 373 291 275 291 c 0
 229 291 169 264 86 201 c 1
 86 296 l 1
 161 353 227 373 281 373 c 0x60
 356 373 423 336 493 316 c 0
 514 310 535 306 555 306 c 0
 598 306 652 324 747 395 c 1
 747 300 l 1xa0
EndSplineSet
EndChar

StartChar: exclamdown
Encoding: 161 161 97
Width: 339
Flags: MW
HStem: 490 21G
VStem: 13 166<-157.5 -118> 120 158<398.5 438.5 394 442>
LayerCount: 2
Fore
SplineSet
278 416 m 0xa0
 278 372 239 339 195 339 c 0
 152 339 120 377 120 420 c 0
 120 464 153 500 196 500 c 0
 244 500 278 461 278 416 c 0xa0
202 280 m 1
 179 -118 l 2
 176 -174 126 -199 81 -199 c 0
 42 -199 13 -180 13 -135 c 0xc0
 13 -110 102 141 148 280 c 1
 202 280 l 1
EndSplineSet
EndChar

StartChar: cent
Encoding: 162 162 98
Width: 598
Flags: MW
HStem: -11 21G<314 314> -9 21G<237 237> 489 21G
VStem: 41 128<152 252.5 152 266>
LayerCount: 2
Fore
SplineSet
562 468 m 1x70
 535 335 l 1
 468 335 l 1
 468 341 484 426 459 432 c 0
 453 435 426 443 403 446 c 1
 324 42 l 1
 345 43 368 48 376 51 c 0
 415 57 412 121 427 157 c 1
 495 157 l 1
 469 20 l 1
 431 8 377 -7 314 -11 c 1xb0
 294 -110 l 1
 217 -110 l 1
 237 -9 l 1
 91 9 41 107 41 197 c 0
 41 335 150 476 336 497 c 1
 354 592 l 1
 432 592 l 1
 414 499 l 1
 463 495 505 484 562 468 c 1x70
324 434 m 1
 244 403 169 317 169 188 c 0
 169 116 205 73 249 54 c 1
 324 434 l 1
EndSplineSet
EndChar

StartChar: sterling
Encoding: 163 163 99
Width: 598
Flags: MW
HStem: 0 89<239 521 239 521> 298 60<89 158 89 167 310 492> 621 66<470 470>
VStem: -3 615<0 633.5 66 633.5>
LayerCount: 2
Fore
SplineSet
612 605 m 0
 612 554 576 530 513 521 c 1
 470 621 l 1
 341 613 319 409 310 358 c 1
 492 358 l 1
 492 298 l 1
 297 298 l 1
 281 212 234 135 155 78 c 1
 183 86 216 89 239 89 c 2
 521 89 l 1
 521 0 l 1
 -3 0 l 1
 -3 66 l 1
 60 79 95 109 118 153 c 0
 142 201 149 250 158 298 c 1
 89 298 l 1
 89 358 l 1
 167 358 l 1
 174 433 232 687 467 687 c 0
 535 687 612 662 612 605 c 0
EndSplineSet
EndChar

StartChar: currency
Encoding: 164 164 100
Width: 609
Flags: MW
HStem: 216 57<287 335> 582 57<288.5 335 288.5 354>
VStem: 99 57<403.5 450> 464 57<404.5 451.5 404.5 469.5>
LayerCount: 2
Fore
SplineSet
580 196 m 1
 544 160 l 1
 441 263 l 1
 405 232 358 216 312 216 c 0
 262 216 216 231 179 263 c 1
 76 160 l 1
 40 196 l 1
 143 299 l 1
 114 335 99 380 99 427 c 0
 99 473 113 524 145 559 c 1
 40 664 l 1
 76 700 l 1
 181 595 l 1
 217 624 265 639 312 639 c 0
 358 639 404 623 438 594 c 1
 544 700 l 1
 580 664 l 1
 476 560 l 1
 504 525 521 475 521 428 c 0
 521 381 507 335 477 299 c 1
 580 196 l 1
464 428 m 0
 464 511 396 582 312 582 c 0
 225 582 156 514 156 427 c 0
 156 341 226 273 312 273 c 0
 397 273 464 344 464 428 c 0
EndSplineSet
EndChar

StartChar: yen
Encoding: 165 165 101
Width: 598
Flags: MW
HStem: 0 55<166 166> 231 55<28 223 28 227 382 564> 373 55<56 180 56 198 56 180 493 592> 617 54<284 284 490 490> 619 52
VStem: 28 667<231 621 286 621>
LayerCount: 2
Fore
SplineSet
695 621 m 1xec
 634 609 l 1
 493 428 l 1
 592 428 l 1
 592 373 l 1
 450 373 l 1
 382 286 l 1
 564 286 l 1
 564 231 l 1
 368 231 l 1
 335 70 l 2
 333 58 340 56 354 55 c 2
 354 55 383 53 411 50 c 1
 411 0 l 1
 109 0 l 1
 109 50 l 1
 136 53 166 55 166 55 c 2
 179 56 188 58 191 71 c 2
 223 231 l 1
 28 231 l 1
 28 286 l 1
 227 286 l 1
 198 373 l 1
 56 373 l 1
 56 428 l 1
 180 428 l 1
 120 610 l 1
 55 621 l 1
 55 671 l 1
 341 671 l 1xec
 341 621 l 1
 311 619 284 617 284 617 c 2
 273 616 263 614 268 601 c 2
 337 384 l 1
 501 602 l 2
 506 607 505 616 490 617 c 2xf4
 440 621 l 1
 440 671 l 1
 695 671 l 1
 695 621 l 1xec
EndSplineSet
EndChar

StartChar: brokenbar
Encoding: 166 166 102
Width: 345
Flags: MW
HStem: -198 934<147 198 147 198>
VStem: 147 51<-198 202 336 736>
LayerCount: 2
Fore
SplineSet
198 336 m 1
 147 336 l 1
 147 736 l 1
 198 736 l 1
 198 336 l 1
198 -198 m 1
 147 -198 l 1
 147 202 l 1
 198 202 l 1
 198 -198 l 1
EndSplineSet
EndChar

StartChar: section
Encoding: 167 167 103
Width: 541
Flags: MW
HStem: -140 58<193.5 207.5 193.5 248> 661 57<347.5 360.5>
VStem: 59 135<267.5 300.5> 131 136<545.5 602.5> 291 134<-12.5 40> 362 137<291.5 324>
LayerCount: 2
Fore
SplineSet
539 689 m 1xd8
 513 554 l 1
 437 554 l 1
 441 639 l 1
 413 657 365 661 356 661 c 0
 339 661 267 638 267 577 c 0
 267 514 377 491 445 436 c 0
 476 410 499 378 499 331 c 0xd4
 499 252 428 182 347 146 c 1
 394 120 425 86 425 41 c 0
 425 -66 316 -140 180 -140 c 0
 114 -140 59 -126 12 -104 c 1
 36 32 l 1
 115 32 l 1
 112 -62 l 1
 140 -79 189 -82 198 -82 c 0
 217 -82 291 -57 291 5 c 0
 291 75 187 89 112 150 c 0
 80 176 59 209 59 257 c 0xe8
 59 344 119 403 205 441 c 1
 160 468 131 500 131 545 c 0
 131 660 243 718 382 718 c 0
 434 718 496 708 539 689 c 1xd8
362 305 m 0
 362 343 341 375 274 407 c 1
 216 378 194 326 194 289 c 0xe8
 194 246 210 221 280 182 c 1
 328 214 362 257 362 305 c 0
EndSplineSet
EndChar

StartChar: dieresis
Encoding: 168 168 104
Width: 348
Flags: MW
HStem: 585 138<129 167 339 377>
VStem: 79 138<635 673> 290 137<635 673>
LayerCount: 2
Fore
SplineSet
427 654 m 0
 427 616 396 585 358 585 c 0
 320 585 290 616 290 654 c 0
 290 692 320 723 358 723 c 0
 396 723 427 692 427 654 c 0
217 654 m 0
 217 616 186 585 148 585 c 0
 110 585 79 616 79 654 c 0
 79 692 110 723 148 723 c 0
 186 723 217 692 217 654 c 0
EndSplineSet
EndChar

StartChar: copyright
Encoding: 169 169 105
Width: 836
Flags: MW
HStem: -39 47<344 532 344 544.5> 114 50<433 495.5 433 506> 535 50<428 500> 692 47<346 532.5>
VStem: 51 48<255 444.5 255 457> 220 114<295.5 391.5 295.5 414.5> 552 56<264 264 437 437> 777 48<256.5 444.5>
LayerCount: 2
Fore
SplineSet
825 350 m 0
 825 135 652 -39 437 -39 c 0
 225 -39 51 135 51 350 c 0
 51 564 225 739 439 739 c 0
 650 739 825 565 825 350 c 0
777 350 m 0
 777 539 626 692 439 692 c 0
 253 692 99 541 99 348 c 0
 99 162 250 8 438 8 c 0
 626 8 777 163 777 350 c 0
608 139 m 1
 608 139 549 114 463 114 c 0
 321 114 220 201 220 350 c 0
 220 479 313 585 467 585 c 0
 557 585 608 558 608 558 c 1
 608 437 l 1
 552 437 l 1
 538 517 l 1
 538 517 519 535 481 535 c 0
 375 535 334 435 334 348 c 0
 334 243 388 164 478 164 c 0
 513 164 538 178 538 178 c 1
 552 264 l 1
 608 264 l 1
 608 139 l 1
EndSplineSet
EndChar

StartChar: ordfeminine
Encoding: 170 170 106
Width: 369
Flags: MW
HStem: 298 49<51 355 41 365> 376 41<308 365.5> 376 45<184 198> 648 27 648 35<245 286.5 207 290.5>
VStem: 74 92<473 523.5 473 530>
LayerCount: 2
Fore
SplineSet
421 401 m 1xd4
 391 390 355 376 322 376 c 0xcc
 294 376 275 385 267 403 c 1
 244 389 213 376 183 376 c 0
 102 376 74 441 74 485 c 0
 74 575 137 683 277 683 c 0xac
 296 683 316 677 331 670 c 1
 335 675 l 1
 405 675 l 1
 400 663 390 644 388 639 c 2
 346 441 l 2
 346 423 348 417 364 417 c 0
 367 417 414 428 421 430 c 1
 421 401 l 1xd4
365 347 m 1xac
 355 298 l 1
 41 298 l 1
 51 347 l 1
 365 347 l 1xac
297 619 m 0
 298 623 294 648 287 648 c 0
 203 648 166 558 166 489 c 0
 166 457 164 421 204 421 c 0
 231 421 254 448 263 456 c 1
 273 503 267 472 297 619 c 0
EndSplineSet
EndChar

StartChar: guillemotleft
Encoding: 171 171 107
Width: 413
Flags: MW
HStem: 0 21G<123 123 123 190 293 360 293 293>
VStem: 18 440<215 482>
LayerCount: 2
Fore
SplineSet
123 0 m 1
 18 215 l 1
 28 266 l 1
 220 482 l 1
 288 482 l 1
 124 241 l 1
 190 0 l 1
 123 0 l 1
293 0 m 1
 188 215 l 1
 199 266 l 1
 391 482 l 1
 458 482 l 1
 295 241 l 1
 360 0 l 1
 293 0 l 1
EndSplineSet
EndChar

StartChar: logicalnot
Encoding: 172 172 108
Width: 620
Flags: MW
HStem: 360 60<40 520 40 580>
VStem: 520 60<189 360 360 360>
LayerCount: 2
Fore
SplineSet
580 189 m 1
 520 189 l 1
 520 360 l 1
 40 360 l 1
 40 420 l 1
 580 420 l 1
 580 189 l 1
EndSplineSet
EndChar

StartChar: uni00AD
Encoding: 173 173 109
Width: 348
Flags: MW
HStem: 188 106<51 292 30 313>
VStem: 30 283<188 294>
LayerCount: 2
Fore
SplineSet
313 294 m 1
 292 188 l 1
 30 188 l 1
 51 294 l 1
 313 294 l 1
EndSplineSet
Substitution2: "'ss06' Style Set 6 in Latin lookup 44 subtable" uni00AD.ShowInv
Substitution2: "'ss06' Style Set 6 in Cyrillic lookup 43 subtable" uni00AD.ShowInv
Substitution2: "'ss06' Style Set 6 lookup 42 subtable" uni00AD.ShowInv
Substitution2: "'aalt' Access All Alternates lookup 0 subtable" uni00AD.ShowInv
EndChar

StartChar: registered
Encoding: 174 174 110
Width: 836
Flags: MW
HStem: -39 47<344 532 344 544.5> 142 36<261 265 383.5 387 226 265> 333 28<392 414.5 392 451> 530 50<372 393 372 372> 692 47<346 532.5>
VStem: 51 48<255 444.5 255 457> 276 96<193 334 362 529 529 530> 492 100<427 475.5> 777 48<256.5 444.5>
LayerCount: 2
Fore
SplineSet
825 350 m 0
 825 135 652 -39 437 -39 c 0
 225 -39 51 135 51 350 c 0
 51 564 225 739 439 739 c 0
 650 739 825 565 825 350 c 0
777 350 m 0
 777 539 626 692 439 692 c 0
 253 692 99 541 99 348 c 0
 99 162 250 8 438 8 c 0
 626 8 777 163 777 350 c 0
672 142 m 1
 643 138 627 138 610 138 c 0
 437 138 517 333 385 333 c 0
 380 333 380 334 372 334 c 1
 372 193 l 2
 372 184 380 178 387 178 c 2
 424 175 l 1
 424 142 l 1
 226 142 l 1
 226 175 l 1
 261 178 l 2
 269 178 276 184 276 193 c 2
 276 529 l 2
 276 537 269 542 261 543 c 2
 226 547 l 1
 226 580 l 1
 448 580 l 2
 496 580 592 564 592 471 c 0
 592 383 512 362 476 357 c 1
 624 327 533 158 672 175 c 1
 672 142 l 1
492 448 m 0
 492 503 457 530 393 530 c 2
 372 530 l 1
 372 362 l 1
 384 361 390 361 394 361 c 0
 435 361 492 374 492 448 c 0
EndSplineSet
EndChar

StartChar: macron
Encoding: 175 175 111
Width: 339
Flags: MW
HStem: 586 81<79 404 63 419>
VStem: 63 356<586 667>
LayerCount: 2
Fore
SplineSet
419 667 m 1
 404 586 l 1
 63 586 l 1
 79 667 l 1
 419 667 l 1
EndSplineSet
EndChar

StartChar: degree
Encoding: 176 176 112
Width: 319
Flags: MW
HStem: 500 40<140.5 179.5 140.5 190.5> 680 40<140.5 179.5>
VStem: 50 40<590.5 629.5 590.5 640.5> 230 40<590.5 629.5>
LayerCount: 2
Fore
SplineSet
270 610 m 0
 270 549 221 500 160 500 c 0
 99 500 50 549 50 610 c 0
 50 671 99 720 160 720 c 0
 221 720 270 671 270 610 c 0
230 610 m 0
 230 649 199 680 160 680 c 0
 121 680 90 649 90 610 c 0
 90 571 121 540 160 540 c 0
 199 540 230 571 230 610 c 0
EndSplineSet
EndChar

StartChar: plusminus
Encoding: 177 177 113
Width: 1000
Flags: MW
HStem: 0 62<200 800 200 800> 358 62<200 469 200 469 531 800>
VStem: 469 62<178 358 178 358 420 600>
LayerCount: 2
Fore
SplineSet
800 358 m 1
 531 358 l 1
 531 178 l 1
 469 178 l 1
 469 358 l 1
 200 358 l 1
 200 420 l 1
 469 420 l 1
 469 600 l 1
 531 600 l 1
 531 420 l 1
 800 420 l 1
 800 358 l 1
800 0 m 1
 200 0 l 1
 200 62 l 1
 800 62 l 1
 800 0 l 1
EndSplineSet
EndChar

StartChar: twosuperior
Encoding: 178 178 114
Width: 389
Flags: MW
HStem: 383 55<168 334 168 385> 383 105<356 385> 756 39<271 290>
VStem: 333 102<654 720.5>
LayerCount: 2
Fore
SplineSet
435 704 m 0xb0
 435 592 251 491 168 438 c 1
 334 438 l 1xb0
 356 488 l 1
 406 488 l 1x70
 385 383 l 1
 46 383 l 1
 55 425 l 1
 244 547 333 611 333 697 c 0
 333 744 300 756 280 756 c 0
 262 756 242 749 234 745 c 1
 220 683 l 1
 212 678 205 667 176 667 c 0
 147 667 127 684 127 704 c 0
 127 759 198 795 301 795 c 0
 385 795 435 766 435 704 c 0xb0
EndSplineSet
EndChar

StartChar: threesuperior
Encoding: 179 179 115
Width: 389
Flags: MW
HStem: 373 37<197.5 227 197.5 261> 573 40 758 37<268.5 284.5>
VStem: 307 99<484.5 540.5> 332 101<688 724>
LayerCount: 2
Fore
SplineSet
433 708 m 0xe8
 433 668 399 623 319 598 c 1
 376 588 406 564 406 521 c 0
 406 448 325 373 197 373 c 0
 103 373 66 414 66 441 c 0
 66 453 83 485 117 485 c 0
 137 485 147 475 156 471 c 1
 166 420 l 1
 171 418 191 410 204 410 c 0
 250 410 307 451 307 512 c 0xf0
 307 569 255 573 248 573 c 0
 236 573 225 571 188 566 c 1
 195 613 l 1
 274 609 332 643 332 700 c 0
 332 748 289 758 280 758 c 0
 257 758 240 748 233 743 c 1
 223 687 l 1
 214 683 192 674 177 674 c 0
 158 674 133 693 133 715 c 0
 133 761 209 795 302 795 c 0
 393 795 433 761 433 708 c 0xe8
EndSplineSet
EndChar

StartChar: acute
Encoding: 180 180 116
Width: 320
Flags: MW
HStem: 551 183<150 371.5>
VStem: 150 257<551 693>
LayerCount: 2
Fore
SplineSet
407 681 m 0
 407 668 396 647 381 639 c 2
 220 551 l 1
 150 551 l 1
 287 702 l 2
 309 727 323 734 350 734 c 0
 393 734 407 705 407 681 c 0
EndSplineSet
EndChar

StartChar: mu
Encoding: 181 181 117
Width: 583
Flags: MW
HStem: -222 21G<12.5 45.5> -12 67<388 486> -12 73<170.5 251> 478 21G
VStem: -28 131
LayerCount: 2
Fore
SplineSet
558 118 m 1xb8
 537 40 495 -12 410 -12 c 0
 366 -12 340 30 333 68 c 1
 290 18 249 -12 180 -12 c 0
 161 -12 124 13 111 27 c 1
 96 -44 108 -78 108 -146 c 0
 108 -186 65 -222 26 -222 c 0
 -1 -222 -28 -198 -28 -171 c 0
 -28 -124 -5 -115 11 -76 c 0
 30 -31 41 18 50 66 c 2
 134 488 l 1
 259 488 l 1
 195 163 l 2
 192 149 190 134 190 119 c 0
 190 97 203 61 230 61 c 0xb8
 272 61 307 99 336 125 c 1
 408 488 l 1
 535 488 l 1
 460 108 l 2
 458 96 453 55 471 55 c 0xd8
 501 55 516 96 525 118 c 1
 558 118 l 1xb8
EndSplineSet
EndChar

StartChar: paragraph
Encoding: 182 182 118
Width: 535
Flags: MW
HStem: 607 64<321 397 321 321> 614 57<298 532>
VStem: 51 270<388.5 545> 397 73<-79 604 -79 607 -79 607>
LayerCount: 2
Fore
SplineSet
532 614 m 1x50
 470 604 l 1x50
 470 -79 l 1
 397 -79 l 1
 397 607 l 1
 321 607 l 1
 321 270 l 1
 163 270 51 308 51 469 c 0
 51 621 145 671 298 671 c 2
 532 671 l 1xb0
 532 614 l 1x50
EndSplineSet
EndChar

StartChar: periodcentered
Encoding: 183 183 119
Width: 187
Flags: MW
HStem: 281 118<77.5 110.5>
VStem: 35 118<323.5 356.5>
LayerCount: 2
Fore
SplineSet
153 340 m 0
 153 307 127 281 94 281 c 0
 61 281 35 307 35 340 c 0
 35 373 61 399 94 399 c 0
 127 399 153 373 153 340 c 0
EndSplineSet
EndChar

StartChar: cedilla
Encoding: 184 184 120
Width: 246
Flags: MW
HStem: -231 53<5.5 31 5.5 60> -220 21G<-54 -54> -110 55<42.5 119>
VStem: 83 87<-152 -127.5>
LayerCount: 2
Fore
SplineSet
170 -113 m 0xb0
 170 -191 95 -231 25 -231 c 0xb0
 -16 -231 -54 -220 -54 -220 c 1x70
 -44 -170 l 1
 -44 -170 -7 -178 18 -178 c 0
 44 -178 83 -171 83 -137 c 0
 83 -118 66 -110 46 -110 c 0
 39 -110 23 -112 23 -112 c 1
 50 24 l 1
 101 24 l 1
 85 -54 l 1
 85 -54 89 -55 99 -55 c 0
 139 -55 170 -73 170 -113 c 0xb0
EndSplineSet
EndChar

StartChar: onesuperior
Encoding: 185 185 121
Width: 389
Flags: MW
HStem: 383 37<189 192>
VStem: 123 248
LayerCount: 2
Fore
SplineSet
371 795 m 1
 292 428 l 2
 291 424 298 421 305 420 c 2
 354 416 l 1
 354 383 l 1
 123 383 l 1
 123 416 l 1
 189 420 l 2
 195 420 200 424 201 429 c 2
 265 732 l 1
 165 720 l 1
 165 753 l 1
 327 795 l 1
 371 795 l 1
EndSplineSet
EndChar

StartChar: ordmasculine
Encoding: 186 186 122
Width: 358
Flags: MW
HStem: 298 49<41 326 31 335> 376 33<201.5 232 201.5 261> 651 32<231.5 259.5>
VStem: 72 93<463 534.5 463 538> 297 94<530 596.5>
LayerCount: 2
Fore
SplineSet
391 565 m 0
 391 471 320 376 202 376 c 0
 112 376 72 425 72 491 c 0
 72 585 139 683 259 683 c 0
 339 683 391 643 391 565 c 0
335 347 m 1
 326 298 l 1
 31 298 l 1
 41 347 l 1
 335 347 l 1
297 567 m 0
 297 626 268 651 251 651 c 0
 212 651 165 575 165 494 c 0
 165 432 194 409 209 409 c 0
 255 409 297 493 297 567 c 0
EndSplineSet
EndChar

StartChar: guillemotright
Encoding: 187 187 123
Width: 413
Flags: MW
HStem: 0 21G<-45 22 -45 -45 126 193 126 126>
VStem: -45 440
LayerCount: 2
Fore
SplineSet
291 482 m 1
 396 267 l 1
 385 216 l 1
 193 0 l 1
 126 0 l 1
 289 241 l 1
 224 482 l 1
 291 482 l 1
120 482 m 1
 225 267 l 1
 215 216 l 1
 22 0 l 1
 -45 0 l 1
 119 241 l 1
 53 482 l 1
 120 482 l 1
EndSplineSet
EndChar

StartChar: onequarter
Encoding: 188 188 124
Width: 907
Flags: MW
HStem: 0 21G<152 225 152 152> 107 49<548 677 770 833> 296 37<145 148>
VStem: 79 763<156 329 156 329>
LayerCount: 2
Fore
SplineSet
842 156 m 1
 833 107 l 1
 760 107 l 1
 735 -18 l 1
 652 -18 l 1
 677 107 l 1
 476 107 l 1
 486 158 l 1
 749 406 l 1
 819 406 l 1
 770 156 l 1
 842 156 l 1
805 695 m 1
 225 0 l 1
 152 0 l 1
 731 695 l 1
 805 695 l 1
327 708 m 1
 249 341 l 2
 248 337 254 334 261 333 c 2
 310 329 l 1
 310 296 l 1
 79 296 l 1
 79 329 l 1
 145 333 l 2
 151 333 156 338 157 342 c 2
 221 646 l 1
 121 633 l 1
 121 667 l 1
 283 708 l 1
 327 708 l 1
719 319 m 1
 548 156 l 1
 687 156 l 1
 719 319 l 1
EndSplineSet
EndChar

StartChar: onehalf
Encoding: 189 189 125
Width: 907
Flags: MW
HStem: 0 64<589 769 589 810> 296 37<145 148> 370 40<702.5 715>
VStem: 759 98<259 328>
LayerCount: 2
Fore
SplineSet
857 316 m 0
 857 202 675 110 589 64 c 1
 769 64 l 1
 790 118 l 1
 833 118 l 1
 810 0 l 1
 492 0 l 1
 501 50 l 1
 583 104 759 197 759 309 c 0
 759 347 734 370 696 370 c 0
 683 370 673 367 661 364 c 1
 645 283 l 1
 631 277 614 272 599 272 c 0
 577 272 557 281 557 306 c 0
 557 385 672 410 733 410 c 0
 792 410 857 385 857 316 c 0
782 695 m 1
 203 0 l 1
 130 0 l 1
 709 695 l 1
 782 695 l 1
327 708 m 1
 249 341 l 2
 248 337 254 334 261 333 c 2
 310 329 l 1
 310 296 l 1
 79 296 l 1
 79 329 l 1
 145 333 l 2
 151 333 156 338 157 342 c 2
 221 646 l 1
 121 633 l 1
 121 667 l 1
 283 708 l 1
 327 708 l 1
EndSplineSet
EndChar

StartChar: threequarters
Encoding: 190 190 126
Width: 907
Flags: MW
HStem: 0 21G<160 233 160 160> 107 49<557 685 777 841> 289 37<181 213.5 181 216> 479 27 665 40<253 259>
VStem: 288 96<395.5 452.5> 310 96<588 628>
LayerCount: 2
Fore
SplineSet
851 156 m 1xfc
 841 107 l 1
 768 107 l 1
 743 -18 l 1
 660 -18 l 1
 685 107 l 1
 485 107 l 1
 495 158 l 1
 757 406 l 1
 827 406 l 1
 777 156 l 1
 851 156 l 1xfc
812 695 m 1
 233 0 l 1
 160 0 l 1
 739 695 l 1
 812 695 l 1
406 622 m 0xfa
 406 554 335 513 274 507 c 1
 321 507 384 487 384 430 c 0
 384 329 257 289 175 289 c 0
 135 289 56 303 56 357 c 0
 56 389 82 408 112 408 c 0
 121 408 130 406 138 402 c 1
 146 334 l 1
 160 330 174 326 188 326 c 0
 239 326 288 370 288 421 c 0xfc
 288 484 215 483 170 477 c 1
 179 522 l 1
 239 518 310 535 310 609 c 0
 310 647 276 665 242 665 c 0
 231 665 221 663 210 660 c 1
 196 586 l 1
 184 580 172 578 160 578 c 0
 138 578 116 587 116 612 c 0
 116 681 227 705 279 705 c 0
 332 705 406 687 406 622 c 0xfa
727 319 m 1
 557 156 l 1
 694 156 l 1
 727 319 l 1
EndSplineSet
EndChar

StartChar: questiondown
Encoding: 191 191 127
Width: 521
Flags: MW
HStem: -199 61<227.5 241> -16 21G<329 358 358 372> 490 21G
VStem: 9 140<-76.5 7 -76.5 22.5> 266 158<399 439 394 441.5>
LayerCount: 2
Fore
SplineSet
424 416 m 0
 424 372 384 339 341 339 c 0
 298 339 266 378 266 420 c 0
 266 463 299 500 342 500 c 0
 389 500 424 462 424 416 c 0
414 -64 m 0
 414 -163 280 -199 202 -199 c 0
 107 -199 9 -154 9 -46 c 0
 9 91 151 181 272 205 c 1
 289 290 l 1
 357 290 l 1
 330 157 l 1
 237 138 149 57 149 -43 c 0
 149 -110 197 -138 258 -138 c 1
 272 -115 329 -16 329 -16 c 1
 358 -16 l 2
 386 -16 414 -33 414 -64 c 0
EndSplineSet
EndChar

StartChar: Agrave
Encoding: 192 192 128
Width: 714
Flags: MW
HStem: 0 53 0 54<622 622 622 668> 253 57<271 416 271 427 238 416> 746 183<319.5 541 319.5 471>
VStem: -53 721<0 50 0 50> 152 52<0 55> 284 257<746 888> 622 46
LayerCount: 2
Fore
SplineSet
668 0 m 1xa1
 391 0 l 1xa8
 391 50 l 1
 412 52 437 55 437 55 c 2
 450 56 458 58 456 70 c 2
 427 253 l 1
 238 253 l 1
 139 70 l 2
 133 60 139 56 152 55 c 2
 152 55 179 52 204 50 c 1x64
 204 0 l 1
 -53 0 l 1
 -53 50 l 1
 5 56 l 1xa4
 375 687 l 1
 493 687 l 1
 602 71 l 2
 604 58 607 56 622 54 c 2
 622 54 646 52 668 50 c 1x61
 668 0 l 1xa1
416 310 m 1
 383 504 l 1
 271 310 l 1
 416 310 l 1
541 746 m 1x12
 471 746 l 1
 309 834 l 2
 295 842 284 863 284 876 c 0
 284 900 298 929 341 929 c 0
 368 929 381 922 404 897 c 2
 541 746 l 1x12
EndSplineSet
Substitution2: "'c2sc' Capitals to Small Capitals in Latin lookup 17 subtable" agrave.sc
Substitution2: "'c2sc' Capitals to Small Capitals in Cyrillic lookup 16 subtable" agrave.sc
Substitution2: "'c2sc' Capitals to Small Capitals lookup 15 subtable" agrave.sc
EndChar

StartChar: Aacute
Encoding: 193 193 129
Width: 714
Flags: MW
HStem: 0 53 0 54<622 622 622 668> 253 57<271 416 271 427 238 416> 746 183<346 567.5>
VStem: -53 721<0 50 0 50> 152 52<0 55> 346 257<746 888> 622 46
LayerCount: 2
Fore
SplineSet
668 0 m 1xa1
 391 0 l 1xa8
 391 50 l 1
 412 52 437 55 437 55 c 2
 450 56 458 58 456 70 c 2
 427 253 l 1
 238 253 l 1
 139 70 l 2
 133 60 139 56 152 55 c 2
 152 55 179 52 204 50 c 1x64
 204 0 l 1
 -53 0 l 1
 -53 50 l 1
 5 56 l 1xa4
 375 687 l 1
 493 687 l 1
 602 71 l 2
 604 58 607 56 622 54 c 2
 622 54 646 52 668 50 c 1x61
 668 0 l 1xa1
416 310 m 1
 383 504 l 1
 271 310 l 1
 416 310 l 1
603 876 m 0x12
 603 863 592 842 577 834 c 2
 416 746 l 1
 346 746 l 1
 483 897 l 2
 505 922 519 929 546 929 c 0
 589 929 603 900 603 876 c 0x12
EndSplineSet
Substitution2: "'c2sc' Capitals to Small Capitals in Latin lookup 17 subtable" aacute.sc
Substitution2: "'c2sc' Capitals to Small Capitals in Cyrillic lookup 16 subtable" aacute.sc
Substitution2: "'c2sc' Capitals to Small Capitals lookup 15 subtable" aacute.sc
EndChar

StartChar: Acircumflex
Encoding: 194 194 130
Width: 714
Flags: MW
HStem: 0 53 0 54<622 622 622 668> 253 57<271 416 271 427 238 416> 746 171<262 524 262 524 518 524 407 602 518 518>
VStem: -53 721<0 50 0 50> 152 52<0 55> 262 340<746 746> 622 46
LayerCount: 2
Fore
SplineSet
668 0 m 1xa1
 391 0 l 1xa8
 391 50 l 1
 412 52 437 55 437 55 c 2
 450 56 458 58 456 70 c 2
 427 253 l 1
 238 253 l 1
 139 70 l 2
 133 60 139 56 152 55 c 2
 152 55 179 52 204 50 c 1x64
 204 0 l 1
 -53 0 l 1
 -53 50 l 1
 5 56 l 1xa4
 375 687 l 1
 493 687 l 1
 602 71 l 2
 604 58 607 56 622 54 c 2
 622 54 646 52 668 50 c 1x61
 668 0 l 1xa1
416 310 m 1
 383 504 l 1
 271 310 l 1
 416 310 l 1
602 746 m 1x12
 518 746 l 1
 451 841 l 1
 345 746 l 1
 262 746 l 1
 407 917 l 1
 524 917 l 1
 602 746 l 1x12
EndSplineSet
Substitution2: "'c2sc' Capitals to Small Capitals in Latin lookup 17 subtable" acircumflex.sc
Substitution2: "'c2sc' Capitals to Small Capitals in Cyrillic lookup 16 subtable" acircumflex.sc
Substitution2: "'c2sc' Capitals to Small Capitals lookup 15 subtable" acircumflex.sc
EndChar

StartChar: Atilde
Encoding: 195 195 131
Width: 714
Flags: MW
HStem: 0 53 0 54<622 622 622 668> 253 57<271 416 271 427 238 416> 780 77<495 521> 828 76<367.5 393>
VStem: -53 721<0 50 0 50> 152 52<0 55> 256 376<780 904> 622 46
LayerCount: 2
Fore
SplineSet
668 0 m 1xa080
 391 0 l 1xa4
 391 50 l 1
 412 52 437 55 437 55 c 2
 450 56 458 58 456 70 c 2
 427 253 l 1
 238 253 l 1
 139 70 l 2
 133 60 139 56 152 55 c 2
 152 55 179 52 204 50 c 1x62
 204 0 l 1
 -53 0 l 1
 -53 50 l 1
 5 56 l 1xa2
 375 687 l 1
 493 687 l 1
 602 71 l 2
 604 58 607 56 622 54 c 2
 622 54 646 52 668 50 c 1x6080
 668 0 l 1xa080
416 310 m 1
 383 504 l 1
 271 310 l 1
 416 310 l 1
632 904 m 1x00
 602 835 555 780 487 780 c 0x09
 434 780 423 828 363 828 c 0
 342 828 320 807 311 780 c 1
 256 780 l 1
 287 849 334 904 401 904 c 0x11
 454 904 465 857 525 857 c 0
 546 857 570 878 578 904 c 1
 632 904 l 1x00
EndSplineSet
Substitution2: "'c2sc' Capitals to Small Capitals in Latin lookup 17 subtable" atilde.sc
Substitution2: "'c2sc' Capitals to Small Capitals in Cyrillic lookup 16 subtable" atilde.sc
Substitution2: "'c2sc' Capitals to Small Capitals lookup 15 subtable" atilde.sc
EndChar

StartChar: Adieresis
Encoding: 196 196 132
Width: 714
Flags: MW
HStem: 0 53 0 54<622 622 622 668> 253 57<271 416 271 427 238 416> 780 138<329 367 539 577>
VStem: -53 721<0 50 0 50> 152 52<0 55> 279 138<830 868> 490 137 622 46
LayerCount: 2
Fore
SplineSet
668 0 m 1xa080
 391 0 l 1xa8
 391 50 l 1
 412 52 437 55 437 55 c 2
 450 56 458 58 456 70 c 2
 427 253 l 1
 238 253 l 1
 139 70 l 2
 133 60 139 56 152 55 c 2
 152 55 179 52 204 50 c 1x64
 204 0 l 1
 -53 0 l 1
 -53 50 l 1
 5 56 l 1xa4
 375 687 l 1
 493 687 l 1
 602 71 l 2
 604 58 607 56 622 54 c 2
 622 54 646 52 668 50 c 1x6080
 668 0 l 1xa080
416 310 m 1
 383 504 l 1
 271 310 l 1
 416 310 l 1
626 849 m 0x13
 626 811 596 780 558 780 c 0
 520 780 490 811 490 849 c 0
 490 887 520 918 558 918 c 0
 596 918 626 887 626 849 c 0x13
417 849 m 0
 417 811 386 780 348 780 c 0
 310 780 279 811 279 849 c 0
 279 887 310 918 348 918 c 0
 386 918 417 887 417 849 c 0
EndSplineSet
Substitution2: "'c2sc' Capitals to Small Capitals in Latin lookup 17 subtable" adieresis.sc
Substitution2: "'c2sc' Capitals to Small Capitals in Cyrillic lookup 16 subtable" adieresis.sc
Substitution2: "'c2sc' Capitals to Small Capitals lookup 15 subtable" adieresis.sc
EndChar

StartChar: Aring
Encoding: 197 197 133
Width: 714
Flags: MW
HStem: 0 53 0 54<622 622 622 668> 253 57<271 416 271 427 238 416> 746 63<437.5 472 437.5 479> 936 63<458.5 493>
VStem: -53 721<0 50 0 50> 152 52<0 55> 336 64<845 879.5 845 887> 529 64<864.5 899> 622 46
LayerCount: 2
Fore
SplineSet
668 0 m 1xa040
 391 0 l 1xa4
 391 50 l 1
 412 52 437 55 437 55 c 2
 450 56 458 58 456 70 c 2
 427 253 l 1
 238 253 l 1
 139 70 l 2
 133 60 139 56 152 55 c 2
 152 55 179 52 204 50 c 1x62
 204 0 l 1
 -53 0 l 1
 -53 50 l 1
 5 56 l 1xa2
 375 687 l 1
 493 687 l 1
 602 71 l 2
 604 58 607 56 622 54 c 2
 622 54 646 52 668 50 c 1x6040
 668 0 l 1xa040
416 310 m 1
 383 504 l 1
 271 310 l 1
 416 310 l 1
593 897 m 0x1980
 593 817 518 746 440 746 c 0
 381 746 336 787 336 847 c 0
 336 927 411 999 490 999 c 0
 549 999 593 956 593 897 c 0x1980
529 884 m 0
 529 914 508 936 478 936 c 0
 439 936 400 899 400 860 c 0
 400 830 423 809 452 809 c 0
 492 809 529 845 529 884 c 0
EndSplineSet
Substitution2: "'c2sc' Capitals to Small Capitals in Latin lookup 17 subtable" aring.sc
Substitution2: "'c2sc' Capitals to Small Capitals in Cyrillic lookup 16 subtable" aring.sc
Substitution2: "'c2sc' Capitals to Small Capitals lookup 15 subtable" aring.sc
EndChar

StartChar: AE
Encoding: 198 198 134
Width: 978
Flags: MW
HStem: 0 55<159 160 159 217> 0 60<596 801 801 805.5 596 905> 250 62<346 491 295 503> 318 61<659 754 647 763> 611 60<705 880 705 705> 617 54<446 446>
VStem: -53 1068<0 671 50 671>
LayerCount: 2
Fore
SplineSet
1015 671 m 1x6a
 984 513 l 1
 903 513 l 1
 903 598 l 2
 903 608 891 611 880 611 c 2
 705 611 l 1
 659 379 l 1
 763 379 l 2
 773 379 788 384 791 394 c 2
 811 464 l 1
 885 464 l 1
 838 229 l 1
 765 229 l 1
 777 304 l 2
 779 312 764 318 754 318 c 2
 647 318 l 1
 596 60 l 1
 801 60 l 2
 810 60 826 66 829 74 c 2
 861 174 l 1
 939 174 l 1
 905 0 l 1
 375 0 l 1x7a
 375 50 l 1
 473 58 451 52 455 71 c 2
 491 250 l 1
 295 250 l 1
 146 72 l 2
 140 64 158 55 160 55 c 2
 217 50 l 1xaa
 217 0 l 1
 -53 0 l 1x6a
 -53 50 l 1
 -30 52 -6 54 -6 54 c 2
 6 55 8 57 20 72 c 2
 460 601 l 2
 467 609 460 616 446 617 c 2
 446 617 420 619 400 621 c 1xa6
 400 671 l 1
 1015 671 l 1x6a
550 552 m 1
 346 312 l 1
 503 312 l 1x6a
 550 552 l 1
EndSplineSet
Substitution2: "'c2sc' Capitals to Small Capitals in Latin lookup 17 subtable" ae.sc
Substitution2: "'c2sc' Capitals to Small Capitals in Cyrillic lookup 16 subtable" ae.sc
Substitution2: "'c2sc' Capitals to Small Capitals lookup 15 subtable" ae.sc
EndChar

StartChar: Ccedilla
Encoding: 199 199 135
Width: 671
Flags: MW
HStem: -231 53<258.5 284 258.5 312> -220 21G<198 198> -110 55<294.5 372> -16 61<337 394 337 394> 626 61<412.5 491>
VStem: 48 148<200 371> 335 87<-152 -127.5>
LayerCount: 2
Fore
SplineSet
687 645 m 1x1c
 656 469 l 1
 582 469 l 1
 583 581 l 2
 584 589 578 601 568 604 c 0
 557 610 506 626 476 626 c 0
 349 626 196 489 196 257 c 0
 196 105 294 45 380 45 c 0
 408 45 451 54 463 60 c 0
 473 61 478 69 481 76 c 2
 529 208 l 1
 604 208 l 1
 573 27 l 1
 522 9 441 -16 347 -16 c 0
 122 -16 48 132 48 268 c 0
 48 474 206 687 471 687 c 0
 548 687 608 670 687 645 c 1x1c
422 -113 m 0x00
 422 -191 347 -231 277 -231 c 0x62
 236 -231 198 -220 198 -220 c 1xa2
 208 -170 l 1
 208 -170 246 -178 271 -178 c 0
 297 -178 335 -171 335 -137 c 0
 335 -118 318 -110 298 -110 c 0
 291 -110 275 -112 275 -112 c 1
 302 24 l 1
 354 24 l 1
 337 -54 l 1
 337 -54 342 -55 352 -55 c 0
 392 -55 422 -73 422 -113 c 0x00
EndSplineSet
Substitution2: "'c2sc' Capitals to Small Capitals in Latin lookup 17 subtable" ccedilla.sc
Substitution2: "'c2sc' Capitals to Small Capitals in Cyrillic lookup 16 subtable" ccedilla.sc
Substitution2: "'c2sc' Capitals to Small Capitals lookup 15 subtable" ccedilla.sc
EndChar

StartChar: Egrave
Encoding: 200 200 136
Width: 600
Flags: MW
HStem: 0 55<45 45 45 526> 0 60<209 422 422 427 209 526> 318 61<271 374 259 384> 611 60<316 488 316 316> 616 55<153 153> 746 183<269.5 491 269.5 421>
VStem: -15 638<0 671 50 671> 234 257<746 888>
LayerCount: 2
Fore
SplineSet
623 671 m 1x72
 591 513 l 1
 511 513 l 1
 511 598 l 2
 511 608 499 611 488 611 c 2
 316 611 l 1
 271 379 l 1
 384 379 l 2
 394 379 409 384 412 394 c 2
 433 464 l 1
 506 464 l 1
 460 229 l 1
 386 229 l 1
 396 304 l 2
 398 312 383 318 374 318 c 2
 259 318 l 1
 209 60 l 1
 422 60 l 2
 432 60 447 66 450 74 c 2
 482 174 l 1
 561 174 l 1
 526 0 l 1
 -15 0 l 1x72
 -15 50 l 1
 15 53 45 55 45 55 c 2
 60 56 65 58 67 71 c 2
 171 601 l 2
 174 613 166 615 153 616 c 2
 153 616 123 618 96 621 c 1xaa
 96 671 l 1
 623 671 l 1x72
491 746 m 1x05
 421 746 l 1
 259 834 l 2
 245 842 234 863 234 876 c 0
 234 900 248 929 291 929 c 0
 318 929 331 922 354 897 c 2
 491 746 l 1x05
EndSplineSet
Substitution2: "'c2sc' Capitals to Small Capitals in Latin lookup 17 subtable" egrave.sc
Substitution2: "'c2sc' Capitals to Small Capitals in Cyrillic lookup 16 subtable" egrave.sc
Substitution2: "'c2sc' Capitals to Small Capitals lookup 15 subtable" egrave.sc
EndChar

StartChar: Eacute
Encoding: 201 201 137
Width: 600
Flags: MW
HStem: 0 55<45 45 45 526> 0 60<209 422 422 427 209 526> 318 61<271 374 259 384> 611 60<316 488 316 316> 616 55<153 153> 746 183<295 517.5>
VStem: -15 638<0 671 50 671> 295 257
LayerCount: 2
Fore
SplineSet
623 671 m 1x72
 591 513 l 1
 511 513 l 1
 511 598 l 2
 511 608 499 611 488 611 c 2
 316 611 l 1
 271 379 l 1
 384 379 l 2
 394 379 409 384 412 394 c 2
 433 464 l 1
 506 464 l 1
 460 229 l 1
 386 229 l 1
 396 304 l 2
 398 312 383 318 374 318 c 2
 259 318 l 1
 209 60 l 1
 422 60 l 2
 432 60 447 66 450 74 c 2
 482 174 l 1
 561 174 l 1
 526 0 l 1
 -15 0 l 1x72
 -15 50 l 1
 15 53 45 55 45 55 c 2
 60 56 65 58 67 71 c 2
 171 601 l 2
 174 613 166 615 153 616 c 2
 153 616 123 618 96 621 c 1xaa
 96 671 l 1
 623 671 l 1x72
553 876 m 0x05
 553 863 541 842 526 834 c 2
 366 746 l 1
 295 746 l 1
 433 897 l 2
 455 922 469 929 496 929 c 0
 539 929 553 900 553 876 c 0x05
EndSplineSet
Substitution2: "'c2sc' Capitals to Small Capitals in Latin lookup 17 subtable" eacute.sc
Substitution2: "'c2sc' Capitals to Small Capitals in Cyrillic lookup 16 subtable" eacute.sc
Substitution2: "'c2sc' Capitals to Small Capitals lookup 15 subtable" eacute.sc
EndChar

StartChar: Ecircumflex
Encoding: 202 202 138
Width: 600
Flags: MW
HStem: 0 55<45 45 45 526> 0 60<209 422 422 427 209 526> 318 61<271 374 259 384> 611 60<316 488 316 316> 616 55<153 153> 746 171<211 474 211 474 467 474 356 551 467 467>
VStem: -15 638<0 671 50 671> 211 340<746 746>
LayerCount: 2
Fore
SplineSet
623 671 m 1x72
 591 513 l 1
 511 513 l 1
 511 598 l 2
 511 608 499 611 488 611 c 2
 316 611 l 1
 271 379 l 1
 384 379 l 2
 394 379 409 384 412 394 c 2
 433 464 l 1
 506 464 l 1
 460 229 l 1
 386 229 l 1
 396 304 l 2
 398 312 383 318 374 318 c 2
 259 318 l 1
 209 60 l 1
 422 60 l 2
 432 60 447 66 450 74 c 2
 482 174 l 1
 561 174 l 1
 526 0 l 1
 -15 0 l 1x72
 -15 50 l 1
 15 53 45 55 45 55 c 2
 60 56 65 58 67 71 c 2
 171 601 l 2
 174 613 166 615 153 616 c 2
 153 616 123 618 96 621 c 1xaa
 96 671 l 1
 623 671 l 1x72
551 746 m 1x05
 467 746 l 1
 400 841 l 1
 294 746 l 1
 211 746 l 1
 356 917 l 1
 474 917 l 1
 551 746 l 1x05
EndSplineSet
Substitution2: "'c2sc' Capitals to Small Capitals in Latin lookup 17 subtable" ecircumflex.sc
Substitution2: "'c2sc' Capitals to Small Capitals in Cyrillic lookup 16 subtable" ecircumflex.sc
Substitution2: "'c2sc' Capitals to Small Capitals lookup 15 subtable" ecircumflex.sc
EndChar

StartChar: Edieresis
Encoding: 203 203 139
Width: 600
Flags: MW
HStem: 0 55<45 45 45 526> 0 60<209 422 422 427 209 526> 318 61<271 374 259 384> 611 60<316 488 316 316> 616 55<153 153> 780 138<278 316 488 526>
VStem: -15 638<0 671 50 671> 229 138 439 137<830 868>
LayerCount: 2
Fore
SplineSet
623 671 m 1x72
 591 513 l 1
 511 513 l 1
 511 598 l 2
 511 608 499 611 488 611 c 2
 316 611 l 1
 271 379 l 1
 384 379 l 2
 394 379 409 384 412 394 c 2
 433 464 l 1
 506 464 l 1
 460 229 l 1
 386 229 l 1
 396 304 l 2
 398 312 383 318 374 318 c 2
 259 318 l 1
 209 60 l 1
 422 60 l 2
 432 60 447 66 450 74 c 2
 482 174 l 1
 561 174 l 1
 526 0 l 1
 -15 0 l 1x72
 -15 50 l 1
 15 53 45 55 45 55 c 2
 60 56 65 58 67 71 c 2
 171 601 l 2
 174 613 166 615 153 616 c 2
 153 616 123 618 96 621 c 1xaa
 96 671 l 1
 623 671 l 1x72
576 849 m 0x0580
 576 811 545 780 507 780 c 0
 469 780 439 811 439 849 c 0
 439 887 469 918 507 918 c 0
 545 918 576 887 576 849 c 0x0580
366 849 m 0
 366 811 335 780 297 780 c 0
 259 780 229 811 229 849 c 0
 229 887 259 918 297 918 c 0
 335 918 366 887 366 849 c 0
EndSplineSet
Substitution2: "'c2sc' Capitals to Small Capitals in Latin lookup 17 subtable" edieresis.sc
Substitution2: "'c2sc' Capitals to Small Capitals in Cyrillic lookup 16 subtable" edieresis.sc
Substitution2: "'c2sc' Capitals to Small Capitals lookup 15 subtable" edieresis.sc
EndChar

StartChar: Igrave
Encoding: 204 204 140
Width: 355
Flags: MW
HStem: 0 55<225 225 225 288> 616 55<153 153 329 329> 619 52 746 183<149.5 371 149.5 301>
VStem: -15 413 114 257<746 888>
LayerCount: 2
Fore
SplineSet
398 621 m 1xa8
 329 616 l 2
 319 615 316 609 314 600 c 2xa8
 210 70 l 2
 208 59 212 56 225 55 c 2
 225 55 256 53 288 50 c 1
 288 0 l 1
 -15 0 l 1
 -15 50 l 1
 14 52 44 54 44 54 c 2
 59 55 65 57 67 71 c 2
 171 601 l 2
 174 613 166 615 153 616 c 2
 153 616 123 618 96 621 c 1xc8
 96 671 l 1
 398 671 l 1
 398 621 l 1xa8
371 746 m 1x14
 301 746 l 1
 139 834 l 2
 125 842 114 863 114 876 c 0
 114 900 128 929 171 929 c 0
 198 929 211 922 234 897 c 2
 371 746 l 1x14
EndSplineSet
Substitution2: "'c2sc' Capitals to Small Capitals in Latin lookup 17 subtable" igrave.sc
Substitution2: "'c2sc' Capitals to Small Capitals in Cyrillic lookup 16 subtable" igrave.sc
Substitution2: "'c2sc' Capitals to Small Capitals lookup 15 subtable" igrave.sc
EndChar

StartChar: Iacute
Encoding: 205 205 141
Width: 355
Flags: MW
HStem: 0 55<225 225 225 288> 616 55<153 153 329 329> 619 52 746 183<176 397.5>
VStem: -15 413 176 257<746 888>
LayerCount: 2
Fore
SplineSet
398 621 m 1xa8
 329 616 l 2
 319 615 316 609 314 600 c 2xa8
 210 70 l 2
 208 59 212 56 225 55 c 2
 225 55 256 53 288 50 c 1
 288 0 l 1
 -15 0 l 1
 -15 50 l 1
 14 52 44 54 44 54 c 2
 59 55 65 57 67 71 c 2
 171 601 l 2
 174 613 166 615 153 616 c 2
 153 616 123 618 96 621 c 1xc8
 96 671 l 1
 398 671 l 1
 398 621 l 1xa8
433 876 m 0x14
 433 863 422 842 407 834 c 2
 246 746 l 1
 176 746 l 1
 313 897 l 2
 335 922 349 929 376 929 c 0
 419 929 433 900 433 876 c 0x14
EndSplineSet
Substitution2: "'c2sc' Capitals to Small Capitals in Latin lookup 17 subtable" iacute.sc
Substitution2: "'c2sc' Capitals to Small Capitals in Cyrillic lookup 16 subtable" iacute.sc
Substitution2: "'c2sc' Capitals to Small Capitals lookup 15 subtable" iacute.sc
EndChar

StartChar: Icircumflex
Encoding: 206 206 142
Width: 355
Flags: MW
HStem: 0 55<225 225 225 288> 616 55<153 153 329 329> 619 52 746 171<92 354 92 354 348 354 237 432 348 348>
VStem: -15 413 92 340<746 746>
LayerCount: 2
Fore
SplineSet
398 621 m 1xa8
 329 616 l 2
 319 615 316 609 314 600 c 2xa8
 210 70 l 2
 208 59 212 56 225 55 c 2
 225 55 256 53 288 50 c 1
 288 0 l 1
 -15 0 l 1
 -15 50 l 1
 14 52 44 54 44 54 c 2
 59 55 65 57 67 71 c 2
 171 601 l 2
 174 613 166 615 153 616 c 2
 153 616 123 618 96 621 c 1xc8
 96 671 l 1
 398 671 l 1
 398 621 l 1xa8
432 746 m 1x14
 348 746 l 1
 281 841 l 1
 175 746 l 1
 92 746 l 1
 237 917 l 1
 354 917 l 1
 432 746 l 1x14
EndSplineSet
Substitution2: "'c2sc' Capitals to Small Capitals in Latin lookup 17 subtable" icircumflex.sc
Substitution2: "'c2sc' Capitals to Small Capitals in Cyrillic lookup 16 subtable" icircumflex.sc
Substitution2: "'c2sc' Capitals to Small Capitals lookup 15 subtable" icircumflex.sc
EndChar

StartChar: Idieresis
Encoding: 207 207 143
Width: 355
Flags: MW
HStem: 0 55<225 225 225 288> 616 55<153 153 329 329> 619 52 780 138<159 197 369 407>
VStem: -15 413 109 138<830 868> 320 137<830 868>
LayerCount: 2
Fore
SplineSet
398 621 m 1xa8
 329 616 l 2
 319 615 316 609 314 600 c 2xa8
 210 70 l 2
 208 59 212 56 225 55 c 2
 225 55 256 53 288 50 c 1
 288 0 l 1
 -15 0 l 1
 -15 50 l 1
 14 52 44 54 44 54 c 2
 59 55 65 57 67 71 c 2
 171 601 l 2
 174 613 166 615 153 616 c 2
 153 616 123 618 96 621 c 1xc8
 96 671 l 1
 398 671 l 1
 398 621 l 1xa8
457 849 m 0x16
 457 811 426 780 388 780 c 0
 350 780 320 811 320 849 c 0
 320 887 350 918 388 918 c 0
 426 918 457 887 457 849 c 0x16
247 849 m 0
 247 811 216 780 178 780 c 0
 140 780 109 811 109 849 c 0
 109 887 140 918 178 918 c 0
 216 918 247 887 247 849 c 0
EndSplineSet
Substitution2: "'c2sc' Capitals to Small Capitals in Latin lookup 17 subtable" idieresis.sc
Substitution2: "'c2sc' Capitals to Small Capitals in Cyrillic lookup 16 subtable" idieresis.sc
Substitution2: "'c2sc' Capitals to Small Capitals lookup 15 subtable" idieresis.sc
EndChar

StartChar: Eth
Encoding: 208 208 144
Width: 712
Flags: MW
HStem: 0 54<45 45 45 241> 0 62<208 241> 321 63<20 391 20 391> 616 55<153 153>
VStem: 20 371<321 384 321 384> 545 150<327.5 505.5>
LayerCount: 2
Fore
SplineSet
20 321 m 1x28
 20 384 l 1
 391 384 l 1
 391 321 l 1
 20 321 l 1x28
695 414 m 0x00
 695 176 523 0 241 0 c 2
 -15 0 l 1x94
 -15 50 l 1
 14 53 45 54 45 54 c 2
 61 55 64 57 67 71 c 2x54
 171 601 l 2
 173 613 165 615 153 616 c 2
 153 616 123 618 95 621 c 1
 95 671 l 1
 355 671 l 2
 562 671 695 598 695 414 c 0x00
545 423 m 0
 545 588 433 608 330 611 c 2
 316 611 l 1x54
 208 62 l 1
 259 62 l 2
 435 64 545 232 545 423 c 0
EndSplineSet
Substitution2: "'c2sc' Capitals to Small Capitals in Latin lookup 17 subtable" eth.sc
Substitution2: "'c2sc' Capitals to Small Capitals in Cyrillic lookup 16 subtable" eth.sc
Substitution2: "'c2sc' Capitals to Small Capitals lookup 15 subtable" eth.sc
EndChar

StartChar: Ntilde
Encoding: 209 209 145
Width: 752
Flags: MW
HStem: 0 55<43 43> 616 55<153 153 580 580> 618 53 780 77<520 546> 828 76<392.5 418>
VStem: -14 811<0 621 50 621> 281 376<780 904>
LayerCount: 2
Fore
SplineSet
797 621 m 1xa4
 732 615 l 2
 723 614 717 609 715 600 c 2xa4
 596 0 l 1
 485 0 l 1
 261 465 l 1
 184 70 l 2
 182 58 188 56 202 55 c 2
 202 55 231 53 260 50 c 1
 260 0 l 1
 -14 0 l 1
 -14 50 l 1
 14 53 43 55 43 55 c 2
 57 56 65 58 68 71 c 2
 171 601 l 2
 174 613 166 615 153 616 c 2
 153 616 124 618 96 621 c 1
 96 671 l 1
 331 671 l 1
 331 640 l 1
 526 233 l 1
 599 601 l 2
 602 613 592 615 580 616 c 2
 580 616 550 618 523 621 c 1
 523 671 l 1
 797 671 l 1xc4
 797 621 l 1xa4
657 904 m 1x12
 627 835 580 780 512 780 c 0x12
 459 780 448 828 388 828 c 0
 367 828 344 807 335 780 c 1
 281 780 l 1
 312 849 359 904 426 904 c 0x0a
 479 904 490 857 550 857 c 0
 571 857 595 878 603 904 c 1
 657 904 l 1x12
EndSplineSet
Substitution2: "'c2sc' Capitals to Small Capitals in Latin lookup 17 subtable" ntilde.sc
Substitution2: "'c2sc' Capitals to Small Capitals in Cyrillic lookup 16 subtable" ntilde.sc
Substitution2: "'c2sc' Capitals to Small Capitals lookup 15 subtable" ntilde.sc
EndChar

StartChar: Ograve
Encoding: 210 210 146
Width: 751
Flags: MW
HStem: -16 62<315 407 315 472> 627 60<372.5 466.5> 746 183<347.5 569 347.5 499>
VStem: 48 155<186 345 186 367> 312 257<746 888> 577 156<330 484>
LayerCount: 2
Fore
SplineSet
733 417 m 0
 733 212 603 -16 341 -16 c 0
 155 -16 48 101 48 263 c 0
 48 471 194 687 441 687 c 0
 634 687 733 559 733 417 c 0
577 417 m 0
 577 551 501 627 432 627 c 0
 313 627 203 435 203 255 c 0
 203 117 282 46 348 46 c 0
 466 46 577 243 577 417 c 0
569 746 m 1
 499 746 l 1
 337 834 l 2
 323 842 312 863 312 876 c 0
 312 900 326 929 369 929 c 0
 396 929 409 922 432 897 c 2
 569 746 l 1
EndSplineSet
Substitution2: "'c2sc' Capitals to Small Capitals in Latin lookup 17 subtable" ograve.sc
Substitution2: "'c2sc' Capitals to Small Capitals in Cyrillic lookup 16 subtable" ograve.sc
Substitution2: "'c2sc' Capitals to Small Capitals lookup 15 subtable" ograve.sc
EndChar

StartChar: Oacute
Encoding: 211 211 147
Width: 751
Flags: MW
HStem: -16 62<315 407 315 472> 627 60<372.5 466.5> 746 183<374 595.5>
VStem: 48 155<186 345 186 367> 374 257<746 888> 577 156<330 484>
LayerCount: 2
Fore
SplineSet
733 417 m 0xd4
 733 212 603 -16 341 -16 c 0
 155 -16 48 101 48 263 c 0
 48 471 194 687 441 687 c 0
 634 687 733 559 733 417 c 0xd4
577 417 m 0
 577 551 501 627 432 627 c 0
 313 627 203 435 203 255 c 0
 203 117 282 46 348 46 c 0
 466 46 577 243 577 417 c 0
631 876 m 0x28
 631 863 619 842 604 834 c 2
 444 746 l 1
 374 746 l 1
 511 897 l 2
 533 922 547 929 574 929 c 0
 617 929 631 900 631 876 c 0x28
EndSplineSet
Substitution2: "'c2sc' Capitals to Small Capitals in Latin lookup 17 subtable" oacute.sc
Substitution2: "'c2sc' Capitals to Small Capitals in Cyrillic lookup 16 subtable" oacute.sc
Substitution2: "'c2sc' Capitals to Small Capitals lookup 15 subtable" oacute.sc
EndChar

StartChar: Ocircumflex
Encoding: 212 212 148
Width: 751
Flags: MW
HStem: -16 62<315 407 315 472> 627 60<372.5 466.5> 746 171<290 552 290 552 545 552 435 629 545 545>
VStem: 48 155<186 345 186 367> 290 340 577 156<330 484>
LayerCount: 2
Fore
SplineSet
733 417 m 0xd4
 733 212 603 -16 341 -16 c 0
 155 -16 48 101 48 263 c 0
 48 471 194 687 441 687 c 0
 634 687 733 559 733 417 c 0xd4
577 417 m 0
 577 551 501 627 432 627 c 0
 313 627 203 435 203 255 c 0
 203 117 282 46 348 46 c 0
 466 46 577 243 577 417 c 0
629 746 m 1x28
 545 746 l 1
 479 841 l 1
 373 746 l 1
 290 746 l 1
 435 917 l 1
 552 917 l 1
 629 746 l 1x28
EndSplineSet
Substitution2: "'c2sc' Capitals to Small Capitals in Latin lookup 17 subtable" ocircumflex.sc
Substitution2: "'c2sc' Capitals to Small Capitals in Cyrillic lookup 16 subtable" ocircumflex.sc
Substitution2: "'c2sc' Capitals to Small Capitals lookup 15 subtable" ocircumflex.sc
EndChar

StartChar: Otilde
Encoding: 213 213 149
Width: 751
Flags: MW
HStem: -16 62<315 407 315 472> 627 60<372.5 466.5> 780 77<523 549> 828 76<395.5 421>
VStem: 48 155<186 345 186 367> 284 376<780 904> 577 156<330 484>
LayerCount: 2
Fore
SplineSet
733 417 m 0xca
 733 212 603 -16 341 -16 c 0
 155 -16 48 101 48 263 c 0
 48 471 194 687 441 687 c 0
 634 687 733 559 733 417 c 0xca
577 417 m 0
 577 551 501 627 432 627 c 0
 313 627 203 435 203 255 c 0
 203 117 282 46 348 46 c 0
 466 46 577 243 577 417 c 0
660 904 m 1x24
 630 835 583 780 515 780 c 0x24
 462 780 451 828 391 828 c 0
 370 828 347 807 338 780 c 1
 284 780 l 1
 315 849 362 904 429 904 c 0x14
 482 904 493 857 553 857 c 0
 574 857 598 878 606 904 c 1
 660 904 l 1x24
EndSplineSet
Substitution2: "'c2sc' Capitals to Small Capitals in Latin lookup 17 subtable" otilde.sc
Substitution2: "'c2sc' Capitals to Small Capitals in Cyrillic lookup 16 subtable" otilde.sc
Substitution2: "'c2sc' Capitals to Small Capitals lookup 15 subtable" otilde.sc
EndChar

StartChar: Odieresis
Encoding: 214 214 150
Width: 751
Flags: MW
HStem: -16 62<315 407 315 472> 627 60<372.5 466.5> 780 138<356 394 566 604>
VStem: 48 155<186 345 186 367> 307 138 518 137 577 156<330 484>
LayerCount: 2
Fore
SplineSet
733 417 m 0xd2
 733 212 603 -16 341 -16 c 0
 155 -16 48 101 48 263 c 0
 48 471 194 687 441 687 c 0
 634 687 733 559 733 417 c 0xd2
577 417 m 0
 577 551 501 627 432 627 c 0
 313 627 203 435 203 255 c 0
 203 117 282 46 348 46 c 0
 466 46 577 243 577 417 c 0
654 849 m 0x2c
 654 811 623 780 585 780 c 0
 547 780 518 811 518 849 c 0
 518 887 547 918 585 918 c 0
 623 918 654 887 654 849 c 0x2c
444 849 m 0
 444 811 413 780 375 780 c 0
 337 780 307 811 307 849 c 0
 307 887 337 918 375 918 c 0
 413 918 444 887 444 849 c 0
EndSplineSet
Substitution2: "'c2sc' Capitals to Small Capitals in Latin lookup 17 subtable" odieresis.sc
Substitution2: "'c2sc' Capitals to Small Capitals in Cyrillic lookup 16 subtable" odieresis.sc
Substitution2: "'c2sc' Capitals to Small Capitals lookup 15 subtable" odieresis.sc
EndChar

StartChar: multiply
Encoding: 215 215 151
Width: 1000
Flags: MW
HStem: 30 540<269 269 269 731>
VStem: 230 540<69 69 69 531>
LayerCount: 2
Fore
SplineSet
770 69 m 1
 731 30 l 1
 500 262 l 1
 269 30 l 1
 230 69 l 1
 460 300 l 1
 230 531 l 1
 269 570 l 1
 500 338 l 1
 731 570 l 1
 770 531 l 1
 540 300 l 1
 770 69 l 1
EndSplineSet
EndChar

StartChar: Oslash
Encoding: 216 216 152
Width: 751
Flags: MW
HStem: -16 62<334 407 334 472> 627 60<372.5 443> 664 21G
VStem: 48 155<240 345 240 367> 577 156<330 438.5>
LayerCount: 2
Fore
SplineSet
733 417 m 0xb8
 733 212 603 -16 341 -16 c 0
 292 -16 248 -8 210 7 c 1
 142 -96 l 1
 70 -44 l 1
 134 54 l 1
 78 104 48 177 48 263 c 0
 48 471 194 687 441 687 c 0xd8
 478 687 511 682 541 674 c 1
 600 763 l 1
 680 713 l 1
 627 633 l 1
 698 583 733 502 733 417 c 0xb8
496 605 m 1
 476 620 454 627 432 627 c 0
 313 627 203 435 203 255 c 0
 203 225 207 198 213 174 c 1
 496 605 l 1
577 417 m 0
 577 460 570 497 557 527 c 1
 263 85 l 1
 289 59 320 46 348 46 c 0
 466 46 577 243 577 417 c 0
EndSplineSet
Substitution2: "'c2sc' Capitals to Small Capitals in Latin lookup 17 subtable" oslash.sc
Substitution2: "'c2sc' Capitals to Small Capitals in Cyrillic lookup 16 subtable" oslash.sc
Substitution2: "'c2sc' Capitals to Small Capitals lookup 15 subtable" oslash.sc
EndChar

StartChar: Ugrave
Encoding: 217 217 153
Width: 749
Flags: MW
HStem: -16 75<328 410 328 424> 616 55<155 155 339 339 580 580 725 725> 619 52 746 183<352.5 573 352.5 503>
VStem: 92 146<134.5 171.5> 316 257<746 888>
LayerCount: 2
Fore
SplineSet
791 621 m 1xa8
 725 616 l 2
 716 615 711 609 709 600 c 2xa8
 632 215 l 2
 605 76 516 -16 332 -16 c 0
 184 -16 92 38 92 162 c 0
 92 181 96 220 105 265 c 2
 175 601 l 2
 177 613 169 615 155 616 c 2
 155 616 126 618 99 621 c 1
 99 671 l 1
 401 671 l 1
 401 621 l 1
 370 618 339 616 339 616 c 2
 327 615 320 612 318 600 c 2
 249 265 l 2
 241 227 238 195 238 177 c 0
 238 92 298 59 358 59 c 0
 462 59 507 140 529 250 c 2
 599 601 l 2
 601 613 596 615 580 616 c 2
 580 616 550 618 523 621 c 1
 523 671 l 1
 791 671 l 1xc8
 791 621 l 1xa8
573 746 m 1x14
 503 746 l 1
 341 834 l 2
 327 842 316 863 316 876 c 0
 316 900 331 929 374 929 c 0
 401 929 414 922 437 897 c 2
 573 746 l 1x14
EndSplineSet
Substitution2: "'c2sc' Capitals to Small Capitals in Latin lookup 17 subtable" ugrave.sc
Substitution2: "'c2sc' Capitals to Small Capitals in Cyrillic lookup 16 subtable" ugrave.sc
Substitution2: "'c2sc' Capitals to Small Capitals lookup 15 subtable" ugrave.sc
EndChar

StartChar: Uacute
Encoding: 218 218 154
Width: 749
Flags: MW
HStem: -16 75<328 410 328 424> 616 55<155 155 339 339 580 580 725 725> 619 52 746 183<378 599.5>
VStem: 92 146<134.5 171.5> 378 257<746 888>
LayerCount: 2
Fore
SplineSet
791 621 m 1xa8
 725 616 l 2
 716 615 711 609 709 600 c 2xa8
 632 215 l 2
 605 76 516 -16 332 -16 c 0
 184 -16 92 38 92 162 c 0
 92 181 96 220 105 265 c 2
 175 601 l 2
 177 613 169 615 155 616 c 2
 155 616 126 618 99 621 c 1
 99 671 l 1
 401 671 l 1
 401 621 l 1
 370 618 339 616 339 616 c 2
 327 615 320 612 318 600 c 2
 249 265 l 2
 241 227 238 195 238 177 c 0
 238 92 298 59 358 59 c 0
 462 59 507 140 529 250 c 2
 599 601 l 2
 601 613 596 615 580 616 c 2
 580 616 550 618 523 621 c 1
 523 671 l 1
 791 671 l 1xc8
 791 621 l 1xa8
635 876 m 0x14
 635 863 624 842 609 834 c 2
 448 746 l 1
 378 746 l 1
 515 897 l 2
 537 922 551 929 578 929 c 0
 621 929 635 900 635 876 c 0x14
EndSplineSet
Substitution2: "'c2sc' Capitals to Small Capitals in Latin lookup 17 subtable" uacute.sc
Substitution2: "'c2sc' Capitals to Small Capitals in Cyrillic lookup 16 subtable" uacute.sc
Substitution2: "'c2sc' Capitals to Small Capitals lookup 15 subtable" uacute.sc
EndChar

StartChar: Ucircumflex
Encoding: 219 219 155
Width: 749
Flags: MW
HStem: -16 75<328 410 328 424> 616 55<155 155 339 339 580 580 725 725> 619 52 746 171<294 557 294 557 550 557 439 634 550 550>
VStem: 92 146<134.5 171.5> 294 340<746 746>
LayerCount: 2
Fore
SplineSet
791 621 m 1xa8
 725 616 l 2
 716 615 711 609 709 600 c 2xa8
 632 215 l 2
 605 76 516 -16 332 -16 c 0
 184 -16 92 38 92 162 c 0
 92 181 96 220 105 265 c 2
 175 601 l 2
 177 613 169 615 155 616 c 2
 155 616 126 618 99 621 c 1
 99 671 l 1
 401 671 l 1
 401 621 l 1
 370 618 339 616 339 616 c 2
 327 615 320 612 318 600 c 2
 249 265 l 2
 241 227 238 195 238 177 c 0
 238 92 298 59 358 59 c 0
 462 59 507 140 529 250 c 2
 599 601 l 2
 601 613 596 615 580 616 c 2
 580 616 550 618 523 621 c 1
 523 671 l 1
 791 671 l 1xc8
 791 621 l 1xa8
634 746 m 1x14
 550 746 l 1
 483 841 l 1
 377 746 l 1
 294 746 l 1
 439 917 l 1
 557 917 l 1
 634 746 l 1x14
EndSplineSet
Substitution2: "'c2sc' Capitals to Small Capitals in Latin lookup 17 subtable" ucircumflex.sc
Substitution2: "'c2sc' Capitals to Small Capitals in Cyrillic lookup 16 subtable" ucircumflex.sc
Substitution2: "'c2sc' Capitals to Small Capitals lookup 15 subtable" ucircumflex.sc
EndChar

StartChar: Udieresis
Encoding: 220 220 156
Width: 749
Flags: MW
HStem: -16 75<328 410 328 424> 616 55<155 155 339 339 580 580 725 725> 619 52 780 138<361 399 571 609>
VStem: 92 146<134.5 171.5> 311 138<830 868> 522 137<830 868>
LayerCount: 2
Fore
SplineSet
791 621 m 1xa8
 725 616 l 2
 716 615 711 609 709 600 c 2xa8
 632 215 l 2
 605 76 516 -16 332 -16 c 0
 184 -16 92 38 92 162 c 0
 92 181 96 220 105 265 c 2
 175 601 l 2
 177 613 169 615 155 616 c 2
 155 616 126 618 99 621 c 1
 99 671 l 1
 401 671 l 1
 401 621 l 1
 370 618 339 616 339 616 c 2
 327 615 320 612 318 600 c 2
 249 265 l 2
 241 227 238 195 238 177 c 0
 238 92 298 59 358 59 c 0
 462 59 507 140 529 250 c 2
 599 601 l 2
 601 613 596 615 580 616 c 2
 580 616 550 618 523 621 c 1
 523 671 l 1
 791 671 l 1xc8
 791 621 l 1xa8
659 849 m 0x16
 659 811 628 780 590 780 c 0
 552 780 522 811 522 849 c 0
 522 887 552 918 590 918 c 0
 628 918 659 887 659 849 c 0x16
449 849 m 0
 449 811 418 780 380 780 c 0
 342 780 311 811 311 849 c 0
 311 887 342 918 380 918 c 0
 418 918 449 887 449 849 c 0
EndSplineSet
Substitution2: "'c2sc' Capitals to Small Capitals in Latin lookup 17 subtable" udieresis.sc
Substitution2: "'c2sc' Capitals to Small Capitals in Cyrillic lookup 16 subtable" udieresis.sc
Substitution2: "'c2sc' Capitals to Small Capitals lookup 15 subtable" udieresis.sc
EndChar

StartChar: Yacute
Encoding: 221 221 157
Width: 681
Flags: MW
HStem: 0 55<205 205> 617 54<134 134 317.5 323 529 529> 619 52 746 183<343 564.5>
VStem: 84 669<621 671 621 671> 343 257<746 888>
LayerCount: 2
Fore
SplineSet
753 621 m 1xa8
 689 616 l 2
 682 615 674 608 671 604 c 2xa8
 417 281 l 1
 375 70 l 2
 372 58 379 56 393 55 c 2
 393 55 422 53 450 50 c 1
 450 0 l 1
 148 0 l 1
 148 50 l 1
 175 53 205 55 205 55 c 2
 218 56 227 58 230 71 c 2
 271 273 l 1
 159 605 l 2
 156 616 146 616 134 617 c 2
 134 617 107 619 84 621 c 1
 84 671 l 1
 385 671 l 1
 385 621 l 1
 355 619 323 617 323 617 c 2
 312 617 302 614 307 601 c 2
 376 384 l 1
 541 602 l 2
 545 607 544 616 529 617 c 2xc8
 470 621 l 1xa8
 470 671 l 1
 753 671 l 1xc8
 753 621 l 1xa8
600 876 m 0x14
 600 863 589 842 574 834 c 2
 413 746 l 1
 343 746 l 1
 480 897 l 2
 502 922 516 929 543 929 c 0
 586 929 600 900 600 876 c 0x14
EndSplineSet
Substitution2: "'c2sc' Capitals to Small Capitals in Latin lookup 17 subtable" yacute.sc
Substitution2: "'c2sc' Capitals to Small Capitals in Cyrillic lookup 16 subtable" yacute.sc
Substitution2: "'c2sc' Capitals to Small Capitals lookup 15 subtable" yacute.sc
EndChar

StartChar: Thorn
Encoding: 222 222 158
Width: 607
Flags: MW
HStem: 0 55<45 45> 123 62<230 362> 491 56<319.5 339 339 355.5> 616 55<150 150 332 332>
VStem: 441 146<330 407.5>
LayerCount: 2
Fore
SplineSet
587 384 m 0
 587 229 462 123 262 123 c 0
 251 123 233 124 218 124 c 1
 208 70 l 2
 206 58 215 56 227 55 c 2
 227 55 257 53 285 50 c 1
 285 0 l 1
 -17 0 l 1
 -17 50 l 1
 14 53 45 55 45 55 c 2
 58 56 63 59 65 71 c 2
 170 601 l 2
 172 613 167 615 150 616 c 2
 150 616 121 618 94 621 c 1
 94 671 l 1
 394 671 l 1
 394 621 l 1
 362 618 332 616 332 616 c 2
 321 615 314 612 312 600 c 2
 302 547 l 1
 339 547 l 2
 528 547 587 474 587 384 c 0
441 368 m 0
 441 447 389 491 322 491 c 0
 317 491 296 491 291 490 c 1
 230 185 l 1
 269 183 314 190 355 214 c 0
 403 243 441 292 441 368 c 0
EndSplineSet
Substitution2: "'c2sc' Capitals to Small Capitals in Latin lookup 17 subtable" thorn.sc
Substitution2: "'c2sc' Capitals to Small Capitals in Cyrillic lookup 16 subtable" thorn.sc
Substitution2: "'c2sc' Capitals to Small Capitals lookup 15 subtable" thorn.sc
EndChar

StartChar: germandbls
Encoding: 223 223 159
Width: 598
Flags: MW
HStem: -229 21G<-101 -34> -14 51<368.5 397.5 368.5 425.5> 679 58<357.5 410>
VStem: 277 120<350 371> 441 131<99 133.5> 461 124<584 628.5>
LayerCount: 2
Fore
SplineSet
585 602 m 0xf4
 585 543 565 481 549 425 c 1xf4
 499 430 490 430 481 430 c 0
 468 430 397 425 397 368 c 0
 397 332 442 301 485 268 c 0
 529 233 572 196 572 146 c 0
 572 52 489 -14 362 -14 c 0
 273 -14 225 17 225 83 c 0
 225 114 260 153 304 153 c 0
 346 153 341 137 353 130 c 1
 335 65 l 1
 352 44 359 37 378 37 c 0
 417 37 441 64 441 115 c 0xf8
 441 152 405 179 359 214 c 0
 317 246 277 280 277 332 c 0
 277 410 343 469 440 482 c 1
 451 523 461 564 461 604 c 0
 461 653 430 679 390 679 c 0
 325 679 269 602 239 490 c 0
 191 314 207 137 143 -39 c 0
 118 -105 9 -229 -77 -229 c 0
 -125 -229 -160 -206 -160 -171 c 0
 -160 -154 -151 -139 -122 -117 c 1
 -22 -144 l 1
 13 -96 34 22 41 65 c 2
 100 453 l 2
 121 591 199 737 396 737 c 0
 514 737 585 685 585 602 c 0xf4
EndSplineSet
Substitution2: "'smcp' Lowercase to Small Capitals in Latin lookup 14 subtable" germandbls.sc
Substitution2: "'smcp' Lowercase to Small Capitals in Cyrillic lookup 13 subtable" germandbls.sc
Substitution2: "'smcp' Lowercase to Small Capitals lookup 12 subtable" germandbls.sc
Substitution2: "'aalt' Access All Alternates lookup 0 subtable" germandbls.sc
EndChar

StartChar: agrave
Encoding: 224 224 160
Width: 567
Flags: MW
HStem: -12 69<392 480.5> -12 75<201 223> 442 46 442 58<295 358.5 236.5 364.5> 551 183<256.5 478 256.5 408>
VStem: 32 141<150.5 234 150.5 245.5> 221 257<551 693>
LayerCount: 2
Fore
SplineSet
565 30 m 1x54
 519 12 464 -12 413 -12 c 0
 371 -12 342 4 329 33 c 1
 294 10 247 -12 199 -12 c 0
 76 -12 32 96 32 171 c 0
 32 320 129 500 344 500 c 0
 373 500 404 491 427 479 c 1x54
 434 488 l 1
 541 488 l 1
 534 468 518 436 516 427 c 2
 451 97 l 1
 451 67 454 57 478 57 c 0
 483 57 555 76 565 78 c 1xa4
 565 30 l 1x54
375 394 m 0
 377 400 370 442 359 442 c 0
 231 442 173 291 173 177 c 0
 173 124 171 63 231 63 c 0
 274 63 309 108 323 121 c 1
 338 201 328 149 375 394 c 0
478 551 m 1x0a
 408 551 l 1
 246 639 l 2
 232 647 221 668 221 681 c 0
 221 705 235 734 278 734 c 0
 305 734 318 727 341 702 c 2
 478 551 l 1x0a
EndSplineSet
Substitution2: "'ss05' Style Set 5 in Latin lookup 41 subtable" agrave.2StorySItal
Substitution2: "'ss05' Style Set 5 in Cyrillic lookup 40 subtable" agrave.2StorySItal
Substitution2: "'ss05' Style Set 5 lookup 39 subtable" agrave.2StorySItal
Substitution2: "'ss07' Style Set 7 in Latin lookup 35 subtable" agrave.SngStory
Substitution2: "'ss07' Style Set 7 in Cyrillic lookup 34 subtable" agrave.SngStory
Substitution2: "'ss07' Style Set 7 lookup 33 subtable" agrave.SngStory
Substitution2: "'smcp' Lowercase to Small Capitals in Latin lookup 14 subtable" agrave.sc
Substitution2: "'smcp' Lowercase to Small Capitals in Cyrillic lookup 13 subtable" agrave.sc
Substitution2: "'smcp' Lowercase to Small Capitals lookup 12 subtable" agrave.sc
AlternateSubs2: "'aalt' Access All Alternates lookup 1 subtable" agrave.sc agrave.SngStory agrave.2StorySItal
EndChar

StartChar: aacute
Encoding: 225 225 161
Width: 567
Flags: MW
HStem: -12 69<392 480.5> -12 75<201 223> 442 46 442 58<295 358.5 236.5 364.5> 551 183<282 503.5>
VStem: 32 141<150.5 234 150.5 245.5> 282 257
LayerCount: 2
Fore
SplineSet
565 30 m 1x54
 519 12 464 -12 413 -12 c 0
 371 -12 342 4 329 33 c 1
 294 10 247 -12 199 -12 c 0
 76 -12 32 96 32 171 c 0
 32 320 129 500 344 500 c 0
 373 500 404 491 427 479 c 1x54
 434 488 l 1
 541 488 l 1
 534 468 518 436 516 427 c 2
 451 97 l 1
 451 67 454 57 478 57 c 0
 483 57 555 76 565 78 c 1xa4
 565 30 l 1x54
375 394 m 0
 377 400 370 442 359 442 c 0
 231 442 173 291 173 177 c 0
 173 124 171 63 231 63 c 0
 274 63 309 108 323 121 c 1
 338 201 328 149 375 394 c 0
540 681 m 0x0a
 540 668 528 647 513 639 c 2
 353 551 l 1
 282 551 l 1
 419 702 l 2
 441 727 455 734 482 734 c 0
 525 734 540 705 540 681 c 0x0a
EndSplineSet
Substitution2: "'ss05' Style Set 5 in Latin lookup 41 subtable" aacute.2StorySItal
Substitution2: "'ss05' Style Set 5 in Cyrillic lookup 40 subtable" aacute.2StorySItal
Substitution2: "'ss05' Style Set 5 lookup 39 subtable" aacute.2StorySItal
Substitution2: "'ss07' Style Set 7 in Latin lookup 35 subtable" aacute.SngStory
Substitution2: "'ss07' Style Set 7 in Cyrillic lookup 34 subtable" aacute.SngStory
Substitution2: "'ss07' Style Set 7 lookup 33 subtable" aacute.SngStory
Substitution2: "'smcp' Lowercase to Small Capitals in Latin lookup 14 subtable" aacute.sc
Substitution2: "'smcp' Lowercase to Small Capitals in Cyrillic lookup 13 subtable" aacute.sc
Substitution2: "'smcp' Lowercase to Small Capitals lookup 12 subtable" aacute.sc
AlternateSubs2: "'aalt' Access All Alternates lookup 1 subtable" aacute.sc aacute.SngStory aacute.2StorySItal
EndChar

StartChar: acircumflex
Encoding: 226 226 162
Width: 567
Flags: MW
HStem: -12 69<392 480.5> -12 75<201 223> 442 46 442 58<295 358.5 236.5 364.5> 551 171<198 461 198 461 454 461 343 538 454 454>
VStem: 32 141<150.5 234 150.5 245.5> 198 340<551 551>
LayerCount: 2
Fore
SplineSet
565 30 m 1x54
 519 12 464 -12 413 -12 c 0
 371 -12 342 4 329 33 c 1
 294 10 247 -12 199 -12 c 0
 76 -12 32 96 32 171 c 0
 32 320 129 500 344 500 c 0
 373 500 404 491 427 479 c 1x54
 434 488 l 1
 541 488 l 1
 534 468 518 436 516 427 c 2
 451 97 l 1
 451 67 454 57 478 57 c 0
 483 57 555 76 565 78 c 1xa4
 565 30 l 1x54
375 394 m 0
 377 400 370 442 359 442 c 0
 231 442 173 291 173 177 c 0
 173 124 171 63 231 63 c 0
 274 63 309 108 323 121 c 1
 338 201 328 149 375 394 c 0
538 551 m 1x0a
 454 551 l 1
 387 646 l 1
 281 551 l 1
 198 551 l 1
 343 722 l 1
 461 722 l 1
 538 551 l 1x0a
EndSplineSet
Substitution2: "'ss05' Style Set 5 in Latin lookup 41 subtable" acircumflex.2StorySItal
Substitution2: "'ss05' Style Set 5 in Cyrillic lookup 40 subtable" acircumflex.2StorySItal
Substitution2: "'ss05' Style Set 5 lookup 39 subtable" acircumflex.2StorySItal
Substitution2: "'ss07' Style Set 7 in Latin lookup 35 subtable" acircumflex.SngStory
Substitution2: "'ss07' Style Set 7 in Cyrillic lookup 34 subtable" acircumflex.SngStory
Substitution2: "'ss07' Style Set 7 lookup 33 subtable" acircumflex.SngStory
Substitution2: "'smcp' Lowercase to Small Capitals in Latin lookup 14 subtable" acircumflex.sc
Substitution2: "'smcp' Lowercase to Small Capitals in Cyrillic lookup 13 subtable" acircumflex.sc
Substitution2: "'smcp' Lowercase to Small Capitals lookup 12 subtable" acircumflex.sc
AlternateSubs2: "'aalt' Access All Alternates lookup 1 subtable" acircumflex.sc acircumflex.SngStory acircumflex.2StorySItal
EndChar

StartChar: atilde
Encoding: 227 227 163
Width: 567
Flags: MW
HStem: -12 69<392 480.5> -12 75<201 223> 442 46 442 58<295 358.5 236.5 364.5> 585 77<432 458> 633 76<304.5 330>
VStem: 32 141<150.5 234 150.5 245.5> 193 376<585 709>
LayerCount: 2
Fore
SplineSet
565 30 m 1x52
 519 12 464 -12 413 -12 c 0
 371 -12 342 4 329 33 c 1
 294 10 247 -12 199 -12 c 0
 76 -12 32 96 32 171 c 0
 32 320 129 500 344 500 c 0
 373 500 404 491 427 479 c 1x52
 434 488 l 1
 541 488 l 1
 534 468 518 436 516 427 c 2
 451 97 l 1
 451 67 454 57 478 57 c 0
 483 57 555 76 565 78 c 1xa2
 565 30 l 1x52
375 394 m 0
 377 400 370 442 359 442 c 0
 231 442 173 291 173 177 c 0
 173 124 171 63 231 63 c 0
 274 63 309 108 323 121 c 1
 338 201 328 149 375 394 c 0
569 709 m 1x09
 539 640 492 585 424 585 c 0x09
 371 585 360 633 300 633 c 0
 279 633 256 612 247 585 c 1
 193 585 l 1
 224 654 271 709 338 709 c 0x05
 391 709 402 662 462 662 c 0
 483 662 507 683 515 709 c 1
 569 709 l 1x09
EndSplineSet
Substitution2: "'ss05' Style Set 5 in Latin lookup 41 subtable" atilde.2StorySItal
Substitution2: "'ss05' Style Set 5 in Cyrillic lookup 40 subtable" atilde.2StorySItal
Substitution2: "'ss05' Style Set 5 lookup 39 subtable" atilde.2StorySItal
Substitution2: "'ss07' Style Set 7 in Latin lookup 35 subtable" atilde.SngStory
Substitution2: "'ss07' Style Set 7 in Cyrillic lookup 34 subtable" atilde.SngStory
Substitution2: "'ss07' Style Set 7 lookup 33 subtable" atilde.SngStory
Substitution2: "'smcp' Lowercase to Small Capitals in Latin lookup 14 subtable" atilde.sc
Substitution2: "'smcp' Lowercase to Small Capitals in Cyrillic lookup 13 subtable" atilde.sc
Substitution2: "'smcp' Lowercase to Small Capitals lookup 12 subtable" atilde.sc
AlternateSubs2: "'aalt' Access All Alternates lookup 1 subtable" atilde.sc atilde.SngStory atilde.2StorySItal
EndChar

StartChar: adieresis
Encoding: 228 228 164
Width: 567
Flags: MW
HStem: -12 69<392 480.5> -12 75<201 223> 442 46 442 58<295 358.5 236.5 364.5> 585 138<265 303 475 513>
VStem: 32 141<150.5 234 150.5 245.5> 215 138<635 673> 426 137<635 673>
LayerCount: 2
Fore
SplineSet
565 30 m 1x54
 519 12 464 -12 413 -12 c 0
 371 -12 342 4 329 33 c 1
 294 10 247 -12 199 -12 c 0
 76 -12 32 96 32 171 c 0
 32 320 129 500 344 500 c 0
 373 500 404 491 427 479 c 1x54
 434 488 l 1
 541 488 l 1
 534 468 518 436 516 427 c 2
 451 97 l 1
 451 67 454 57 478 57 c 0
 483 57 555 76 565 78 c 1xa4
 565 30 l 1x54
375 394 m 0
 377 400 370 442 359 442 c 0
 231 442 173 291 173 177 c 0
 173 124 171 63 231 63 c 0
 274 63 309 108 323 121 c 1
 338 201 328 149 375 394 c 0
563 654 m 0x0b
 563 616 532 585 494 585 c 0
 456 585 426 616 426 654 c 0
 426 692 456 723 494 723 c 0
 532 723 563 692 563 654 c 0x0b
353 654 m 0
 353 616 322 585 284 585 c 0
 246 585 215 616 215 654 c 0
 215 692 246 723 284 723 c 0
 322 723 353 692 353 654 c 0
EndSplineSet
Substitution2: "'ss05' Style Set 5 in Latin lookup 41 subtable" adieresis.2StorySItal
Substitution2: "'ss05' Style Set 5 in Cyrillic lookup 40 subtable" adieresis.2StorySItal
Substitution2: "'ss05' Style Set 5 lookup 39 subtable" adieresis.2StorySItal
Substitution2: "'ss07' Style Set 7 in Latin lookup 35 subtable" adieresis.SngStory
Substitution2: "'ss07' Style Set 7 in Cyrillic lookup 34 subtable" adieresis.SngStory
Substitution2: "'ss07' Style Set 7 lookup 33 subtable" adieresis.SngStory
Substitution2: "'smcp' Lowercase to Small Capitals in Latin lookup 14 subtable" adieresis.sc
Substitution2: "'smcp' Lowercase to Small Capitals in Cyrillic lookup 13 subtable" adieresis.sc
Substitution2: "'smcp' Lowercase to Small Capitals lookup 12 subtable" adieresis.sc
AlternateSubs2: "'aalt' Access All Alternates lookup 1 subtable" adieresis.sc adieresis.SngStory adieresis.2StorySItal
EndChar

StartChar: aring
Encoding: 229 229 165
Width: 567
Flags: MW
HStem: -12 69<392 480.5> -12 75<201 223> 442 46 442 58<295 358.5 236.5 364.5> 551 63<374.5 409 374.5 416> 740 63<394.5 429>
VStem: 32 141<150.5 234 150.5 245.5> 273 64<650 684.5 650 692> 466 64<669.5 704>
LayerCount: 2
Fore
SplineSet
565 30 m 1x52
 519 12 464 -12 413 -12 c 0
 371 -12 342 4 329 33 c 1
 294 10 247 -12 199 -12 c 0
 76 -12 32 96 32 171 c 0
 32 320 129 500 344 500 c 0
 373 500 404 491 427 479 c 1x52
 434 488 l 1
 541 488 l 1
 534 468 518 436 516 427 c 2
 451 97 l 1
 451 67 454 57 478 57 c 0
 483 57 555 76 565 78 c 1xa2
 565 30 l 1x52
375 394 m 0
 377 400 370 442 359 442 c 0
 231 442 173 291 173 177 c 0
 173 124 171 63 231 63 c 0
 274 63 309 108 323 121 c 1
 338 201 328 149 375 394 c 0
530 702 m 0x0d80
 530 622 455 551 377 551 c 0
 318 551 273 592 273 652 c 0
 273 732 348 803 427 803 c 0
 486 803 530 761 530 702 c 0x0d80
466 689 m 0
 466 719 444 740 414 740 c 0
 375 740 337 704 337 665 c 0
 337 635 360 614 389 614 c 0
 429 614 466 650 466 689 c 0
EndSplineSet
Substitution2: "'ss05' Style Set 5 in Latin lookup 41 subtable" aring.2StorySItal
Substitution2: "'ss05' Style Set 5 in Cyrillic lookup 40 subtable" aring.2StorySItal
Substitution2: "'ss05' Style Set 5 lookup 39 subtable" aring.2StorySItal
Substitution2: "'ss07' Style Set 7 in Latin lookup 35 subtable" aring.SngStory
Substitution2: "'ss07' Style Set 7 in Cyrillic lookup 34 subtable" aring.SngStory
Substitution2: "'ss07' Style Set 7 lookup 33 subtable" aring.SngStory
Substitution2: "'smcp' Lowercase to Small Capitals in Latin lookup 14 subtable" aring.sc
Substitution2: "'smcp' Lowercase to Small Capitals in Cyrillic lookup 13 subtable" aring.sc
Substitution2: "'smcp' Lowercase to Small Capitals lookup 12 subtable" aring.sc
AlternateSubs2: "'aalt' Access All Alternates lookup 1 subtable" aring.sc aring.SngStory aring.2StorySItal
EndChar

StartChar: ae
Encoding: 230 230 166
Width: 785
Flags: MW
HStem: -12 68<506 556> -12 74<197 226.5> 441 47 441 59 444 56<339 339>
VStem: 32 138<154.5 231.5 154.5 245.5> 641 127<365 408>
LayerCount: 2
Fore
SplineSet
768 396 m 0x96
 768 292 597 231 463 220 c 1
 455 192 454 176 454 151 c 0
 454 108 467 56 545 56 c 0
 589 56 623 88 730 182 c 1
 730 86 l 1
 692 47 604 -12 508 -12 c 0
 424 -12 379 1 355 52 c 1
 312 11 256 -12 197 -12 c 0
 75 -12 32 96 32 171 c 0
 32 320 128 500 341 500 c 0
 368 500 390 482 405 467 c 1x96
 415 488 l 1
 520 488 l 1xa6
 506 449 l 1
 551 487 615 500 652 500 c 0
 749 500 768 426 768 396 c 0x96
641 396 m 0
 641 420 636 441 605 441 c 0
 553 441 478 359 470 270 c 1
 542 286 641 334 641 396 c 0
372 394 m 1
 339 444 l 1
 222 431 170 286 170 177 c 0
 170 132 165 62 229 62 c 0x4e
 265 62 304 99 321 121 c 1
 372 394 l 1
EndSplineSet
Substitution2: "'ss05' Style Set 5 in Latin lookup 41 subtable" ae.2StorySItal
Substitution2: "'ss05' Style Set 5 in Cyrillic lookup 40 subtable" ae.2StorySItal
Substitution2: "'ss05' Style Set 5 lookup 39 subtable" ae.2StorySItal
Substitution2: "'smcp' Lowercase to Small Capitals in Latin lookup 14 subtable" ae.sc
Substitution2: "'smcp' Lowercase to Small Capitals in Cyrillic lookup 13 subtable" ae.sc
Substitution2: "'smcp' Lowercase to Small Capitals lookup 12 subtable" ae.sc
AlternateSubs2: "'aalt' Access All Alternates lookup 1 subtable" ae.sc ae.2StorySItal
EndChar

StartChar: ccedilla
Encoding: 231 231 167
Width: 480
Flags: MW
HStem: -231 53<157.5 183 157.5 212> -220 21G<98 98> -110 55<194.5 271> -12 74<208 256.5> 427 73<299 299> 490 21G
VStem: 33 137<158.5 209.5 158.5 264.5> 235 87<-152 -127.5>
LayerCount: 2
Fore
SplineSet
450 426 m 0x16
 450 402 429 349 354 349 c 1
 299 427 l 1x1a
 186 402 170 230 170 189 c 0
 170 128 176 62 240 62 c 0
 290 62 338 86 428 194 c 1
 428 94 l 1
 373 30 304 -12 209 -12 c 0
 87 -12 33 64 33 178 c 0
 33 351 144 500 335 500 c 0
 414 500 450 458 450 426 c 0x16
322 -113 m 0x00
 322 -191 247 -231 177 -231 c 0x61
 136 -231 98 -220 98 -220 c 1xa1
 108 -170 l 1
 108 -170 145 -178 170 -178 c 0
 196 -178 235 -171 235 -137 c 0
 235 -118 218 -110 198 -110 c 0
 191 -110 175 -112 175 -112 c 1
 202 24 l 1
 253 24 l 1
 237 -54 l 1
 237 -54 241 -55 251 -55 c 0
 291 -55 322 -73 322 -113 c 0x00
EndSplineSet
Substitution2: "'smcp' Lowercase to Small Capitals in Latin lookup 14 subtable" ccedilla.sc
Substitution2: "'smcp' Lowercase to Small Capitals in Cyrillic lookup 13 subtable" ccedilla.sc
Substitution2: "'smcp' Lowercase to Small Capitals lookup 12 subtable" ccedilla.sc
Substitution2: "'aalt' Access All Alternates lookup 0 subtable" ccedilla.sc
EndChar

StartChar: egrave
Encoding: 232 232 168
Width: 479
Flags: MW
HStem: -12 70<219 262.5> 444 56<267 313> 551 183<207.5 429 207.5 359>
VStem: 33 139<143.5 183.5 143.5 250> 172 257<551 693> 333 130<365.5 407.5>
LayerCount: 2
Fore
SplineSet
463 395 m 0xd4
 463 290 308 230 175 219 c 1
 174 207 172 189 172 178 c 0
 172 109 191 58 247 58 c 0
 290 58 330 90 440 185 c 1
 440 90 l 1
 401 52 311 -12 214 -12 c 0
 127 -12 33 26 33 174 c 0
 33 326 150 500 321 500 c 0
 419 500 463 425 463 395 c 0xd4
333 396 m 0
 333 419 328 444 298 444 c 0
 236 444 200 344 182 271 c 1
 251 287 333 335 333 396 c 0
429 551 m 1x28
 359 551 l 1
 197 639 l 2
 183 647 172 668 172 681 c 0
 172 705 186 734 229 734 c 0
 256 734 269 727 292 702 c 2
 429 551 l 1x28
EndSplineSet
Substitution2: "'smcp' Lowercase to Small Capitals in Latin lookup 14 subtable" egrave.sc
Substitution2: "'smcp' Lowercase to Small Capitals in Cyrillic lookup 13 subtable" egrave.sc
Substitution2: "'smcp' Lowercase to Small Capitals lookup 12 subtable" egrave.sc
Substitution2: "'aalt' Access All Alternates lookup 0 subtable" egrave.sc
EndChar

StartChar: eacute
Encoding: 233 233 169
Width: 479
Flags: MW
HStem: -12 70<219 262.5> 444 56<267 313> 551 183<234 455.5>
VStem: 33 139<143.5 183.5 143.5 250> 234 257<551 693> 333 130<365.5 407.5>
LayerCount: 2
Fore
SplineSet
463 395 m 0xd4
 463 290 308 230 175 219 c 1
 174 207 172 189 172 178 c 0
 172 109 191 58 247 58 c 0
 290 58 330 90 440 185 c 1
 440 90 l 1
 401 52 311 -12 214 -12 c 0
 127 -12 33 26 33 174 c 0
 33 326 150 500 321 500 c 0
 419 500 463 425 463 395 c 0xd4
333 396 m 0
 333 419 328 444 298 444 c 0
 236 444 200 344 182 271 c 1
 251 287 333 335 333 396 c 0
491 681 m 0x28
 491 668 480 647 465 639 c 2
 304 551 l 1
 234 551 l 1
 371 702 l 2
 393 727 407 734 434 734 c 0
 477 734 491 705 491 681 c 0x28
EndSplineSet
Substitution2: "'smcp' Lowercase to Small Capitals in Latin lookup 14 subtable" eacute.sc
Substitution2: "'smcp' Lowercase to Small Capitals in Cyrillic lookup 13 subtable" eacute.sc
Substitution2: "'smcp' Lowercase to Small Capitals lookup 12 subtable" eacute.sc
Substitution2: "'aalt' Access All Alternates lookup 0 subtable" eacute.sc
EndChar

StartChar: ecircumflex
Encoding: 234 234 170
Width: 479
Flags: MW
HStem: -12 70<219 262.5> 444 56<267 313> 551 171<150 413 150 413 406 413 295 490 406 406>
VStem: 33 139<143.5 183.5 143.5 250> 150 340<551 551> 333 130<365.5 407.5>
LayerCount: 2
Fore
SplineSet
463 395 m 0xd4
 463 290 308 230 175 219 c 1
 174 207 172 189 172 178 c 0
 172 109 191 58 247 58 c 0
 290 58 330 90 440 185 c 1
 440 90 l 1
 401 52 311 -12 214 -12 c 0
 127 -12 33 26 33 174 c 0
 33 326 150 500 321 500 c 0
 419 500 463 425 463 395 c 0xd4
333 396 m 0
 333 419 328 444 298 444 c 0
 236 444 200 344 182 271 c 1
 251 287 333 335 333 396 c 0
490 551 m 1x28
 406 551 l 1
 339 646 l 1
 233 551 l 1
 150 551 l 1
 295 722 l 1
 413 722 l 1
 490 551 l 1x28
EndSplineSet
Substitution2: "'smcp' Lowercase to Small Capitals in Latin lookup 14 subtable" ecircumflex.sc
Substitution2: "'smcp' Lowercase to Small Capitals in Cyrillic lookup 13 subtable" ecircumflex.sc
Substitution2: "'smcp' Lowercase to Small Capitals lookup 12 subtable" ecircumflex.sc
Substitution2: "'aalt' Access All Alternates lookup 0 subtable" ecircumflex.sc
EndChar

StartChar: edieresis
Encoding: 235 235 171
Width: 479
Flags: MW
HStem: -12 70<219 262.5> 444 56<267 313> 585 138<217 255 427 465>
VStem: 33 139<143.5 183.5 143.5 250> 167 138<635 673> 333 130<365.5 407.5> 378 137<635 673>
LayerCount: 2
Fore
SplineSet
463 395 m 0xd4
 463 290 308 230 175 219 c 1
 174 207 172 189 172 178 c 0
 172 109 191 58 247 58 c 0
 290 58 330 90 440 185 c 1
 440 90 l 1
 401 52 311 -12 214 -12 c 0
 127 -12 33 26 33 174 c 0
 33 326 150 500 321 500 c 0
 419 500 463 425 463 395 c 0xd4
333 396 m 0
 333 419 328 444 298 444 c 0
 236 444 200 344 182 271 c 1
 251 287 333 335 333 396 c 0
515 654 m 0x2a
 515 616 484 585 446 585 c 0
 408 585 378 616 378 654 c 0
 378 692 408 723 446 723 c 0
 484 723 515 692 515 654 c 0x2a
305 654 m 0
 305 616 274 585 236 585 c 0
 198 585 167 616 167 654 c 0
 167 692 198 723 236 723 c 0
 274 723 305 692 305 654 c 0
EndSplineSet
Substitution2: "'smcp' Lowercase to Small Capitals in Latin lookup 14 subtable" edieresis.sc
Substitution2: "'smcp' Lowercase to Small Capitals in Cyrillic lookup 13 subtable" edieresis.sc
Substitution2: "'smcp' Lowercase to Small Capitals lookup 12 subtable" edieresis.sc
Substitution2: "'aalt' Access All Alternates lookup 0 subtable" edieresis.sc
EndChar

StartChar: igrave
Encoding: 236 236 172
Width: 310
Flags: MW
HStem: -12 65<102.5 209.5> 490 21G 551 183<98.5 319 98.5 250>
VStem: 48 135 62 257<551 693>
LayerCount: 2
Fore
SplineSet
308 32 m 1xd0
 248 0 197 -12 139 -12 c 0
 66 -12 40 42 50 91 c 2
 113 423 l 1
 27 432 l 1
 27 467 l 1
 192 500 l 1
 262 500 l 1
 185 99 l 2
 180 75 180 53 204 53 c 0
 215 53 271 67 308 87 c 1
 308 32 l 1xd0
319 551 m 1x28
 250 551 l 1
 87 639 l 2
 73 647 62 668 62 681 c 0
 62 705 77 734 120 734 c 0
 147 734 160 727 183 702 c 2
 319 551 l 1x28
EndSplineSet
Substitution2: "'ss05' Style Set 5 in Latin lookup 41 subtable" igrave.SItal
Substitution2: "'ss05' Style Set 5 in Cyrillic lookup 40 subtable" igrave.SItal
Substitution2: "'ss05' Style Set 5 lookup 39 subtable" igrave.SItal
Substitution2: "'smcp' Lowercase to Small Capitals in Latin lookup 14 subtable" igrave.sc
Substitution2: "'smcp' Lowercase to Small Capitals in Cyrillic lookup 13 subtable" igrave.sc
Substitution2: "'smcp' Lowercase to Small Capitals lookup 12 subtable" igrave.sc
AlternateSubs2: "'aalt' Access All Alternates lookup 1 subtable" igrave.sc igrave.SItal
EndChar

StartChar: iacute
Encoding: 237 237 173
Width: 310
Flags: MW
HStem: -12 65<102.5 209.5> 490 21G 551 183<124 345.5>
VStem: 48 135 124 257<551 693>
LayerCount: 2
Fore
SplineSet
308 32 m 1xd0
 248 0 197 -12 139 -12 c 0
 66 -12 40 42 50 91 c 2
 113 423 l 1
 27 432 l 1
 27 467 l 1
 192 500 l 1
 262 500 l 1
 185 99 l 2
 180 75 180 53 204 53 c 0
 215 53 271 67 308 87 c 1
 308 32 l 1xd0
381 681 m 0x28
 381 668 370 647 355 639 c 2
 194 551 l 1
 124 551 l 1
 261 702 l 2
 283 727 297 734 324 734 c 0
 367 734 381 705 381 681 c 0x28
EndSplineSet
Substitution2: "'ss05' Style Set 5 in Latin lookup 41 subtable" iacute.SItal
Substitution2: "'ss05' Style Set 5 in Cyrillic lookup 40 subtable" iacute.SItal
Substitution2: "'ss05' Style Set 5 lookup 39 subtable" iacute.SItal
Substitution2: "'smcp' Lowercase to Small Capitals in Latin lookup 14 subtable" iacute.sc
Substitution2: "'smcp' Lowercase to Small Capitals in Cyrillic lookup 13 subtable" iacute.sc
Substitution2: "'smcp' Lowercase to Small Capitals lookup 12 subtable" iacute.sc
Substitution2: "'locl' Localized Forms in Latin lookup 7 subtable" iacute.locl
AlternateSubs2: "'aalt' Access All Alternates lookup 1 subtable" iacute.locl iacute.sc iacute.SItal
EndChar

StartChar: icircumflex
Encoding: 238 238 174
Width: 310
Flags: MW
HStem: -12 65<102.5 209.5> 490 21G 551 171<40 303 40 303 296 303 185 380 296 296>
VStem: 40 340<551 551> 48 135
LayerCount: 2
Fore
SplineSet
308 32 m 1xc8
 248 0 197 -12 139 -12 c 0
 66 -12 40 42 50 91 c 2
 113 423 l 1
 27 432 l 1
 27 467 l 1
 192 500 l 1
 262 500 l 1
 185 99 l 2
 180 75 180 53 204 53 c 0
 215 53 271 67 308 87 c 1
 308 32 l 1xc8
380 551 m 1x30
 296 551 l 1
 229 646 l 1
 123 551 l 1
 40 551 l 1
 185 722 l 1
 303 722 l 1
 380 551 l 1x30
EndSplineSet
Substitution2: "'ss05' Style Set 5 in Latin lookup 41 subtable" icircumflex.SItal
Substitution2: "'ss05' Style Set 5 in Cyrillic lookup 40 subtable" icircumflex.SItal
Substitution2: "'ss05' Style Set 5 lookup 39 subtable" icircumflex.SItal
Substitution2: "'smcp' Lowercase to Small Capitals in Latin lookup 14 subtable" icircumflex.sc
Substitution2: "'smcp' Lowercase to Small Capitals in Cyrillic lookup 13 subtable" icircumflex.sc
Substitution2: "'smcp' Lowercase to Small Capitals lookup 12 subtable" icircumflex.sc
AlternateSubs2: "'aalt' Access All Alternates lookup 1 subtable" icircumflex.sc icircumflex.SItal
EndChar

StartChar: idieresis
Encoding: 239 239 175
Width: 310
Flags: MW
HStem: -12 65<102.5 209.5> 490 21G 585 138<107 145 317 355>
VStem: 48 135 57 138<635 673> 268 137<635 673>
LayerCount: 2
Fore
SplineSet
308 32 m 1xd0
 248 0 197 -12 139 -12 c 0
 66 -12 40 42 50 91 c 2
 113 423 l 1
 27 432 l 1
 27 467 l 1
 192 500 l 1
 262 500 l 1
 185 99 l 2
 180 75 180 53 204 53 c 0
 215 53 271 67 308 87 c 1
 308 32 l 1xd0
405 654 m 0x2c
 405 616 374 585 336 585 c 0
 298 585 268 616 268 654 c 0
 268 692 298 723 336 723 c 0
 374 723 405 692 405 654 c 0x2c
195 654 m 0
 195 616 164 585 126 585 c 0
 88 585 57 616 57 654 c 0
 57 692 88 723 126 723 c 0
 164 723 195 692 195 654 c 0
EndSplineSet
Substitution2: "'ss05' Style Set 5 in Latin lookup 41 subtable" idieresis.SItal
Substitution2: "'ss05' Style Set 5 in Cyrillic lookup 40 subtable" idieresis.SItal
Substitution2: "'ss05' Style Set 5 lookup 39 subtable" idieresis.SItal
Substitution2: "'smcp' Lowercase to Small Capitals in Latin lookup 14 subtable" idieresis.sc
Substitution2: "'smcp' Lowercase to Small Capitals in Cyrillic lookup 13 subtable" idieresis.sc
Substitution2: "'smcp' Lowercase to Small Capitals lookup 12 subtable" idieresis.sc
AlternateSubs2: "'aalt' Access All Alternates lookup 1 subtable" idieresis.sc idieresis.SItal
EndChar

StartChar: eth
Encoding: 240 240 176
Width: 546
Flags: MW
HStem: -12 55<234 278 234 340> 445 52<274.5 313 221.5 328.5> 485 21G 672 21G 730 21G
VStem: 32 142<132 244.5 132 261> 370 139<238.5 323>
LayerCount: 2
Fore
SplineSet
527 652 m 1xde
 415 607 l 1
 461 525 509 399 509 295 c 0
 509 182 449 -12 231 -12 c 0
 100 -12 32 68 32 182 c 0
 32 340 133 497 310 497 c 0xde
 316 497 323 496 330 495 c 1xbe
 320 519 308 545 300 563 c 1
 159 507 l 1
 134 567 l 1
 265 617 l 1
 233 662 l 1
 154 682 l 1
 158 716 l 1
 324 740 l 1
 379 662 l 1
 500 709 l 1
 527 652 l 1xde
370 292 m 0
 370 354 363 393 350 433 c 1
 343 439 336 445 321 445 c 0
 228 445 174 303 174 186 c 0
 174 78 225 43 243 43 c 0
 313 43 370 170 370 292 c 0
EndSplineSet
Substitution2: "'smcp' Lowercase to Small Capitals in Latin lookup 14 subtable" eth.sc
Substitution2: "'smcp' Lowercase to Small Capitals in Cyrillic lookup 13 subtable" eth.sc
Substitution2: "'smcp' Lowercase to Small Capitals lookup 12 subtable" eth.sc
Substitution2: "'aalt' Access All Alternates lookup 0 subtable" eth.sc
EndChar

StartChar: ntilde
Encoding: 241 241 177
Width: 578
Flags: MW
HStem: -12 21G<396 441> 0 21G<24 157 24 24> 421 79<192 364.5> 585 77<408 434> 633 76<280.5 306>
VStem: 169 376<585 709> 381 142
LayerCount: 2
Fore
SplineSet
574 23 m 1x72
 539 6 464 -12 418 -12 c 0xaa
 374 -12 306 -2 317 51 c 2
 378 356 l 2
 388 405 375 421 354 421 c 0
 323 421 270 382 228 339 c 1
 157 0 l 1
 24 0 l 1
 112 425 l 1
 28 433 l 1
 28 467 l 1
 192 500 l 1
 261 500 l 1
 249 442 l 1
 298 475 358 500 410 500 c 0
 510 500 535 454 519 369 c 2
 465 88 l 2
 459 55 479 49 489 49 c 0
 510 49 542 58 572 71 c 1
 574 23 l 1x72
545 709 m 1xac
 515 640 468 585 400 585 c 0xb2
 347 585 336 633 276 633 c 0xaa
 255 633 232 612 223 585 c 1
 169 585 l 1xb4
 200 654 247 709 314 709 c 0xaa
 367 709 378 662 438 662 c 0xb2
 459 662 483 683 491 709 c 1
 545 709 l 1xac
EndSplineSet
Substitution2: "'smcp' Lowercase to Small Capitals in Latin lookup 14 subtable" ntilde.sc
Substitution2: "'smcp' Lowercase to Small Capitals in Cyrillic lookup 13 subtable" ntilde.sc
Substitution2: "'smcp' Lowercase to Small Capitals lookup 12 subtable" ntilde.sc
Substitution2: "'aalt' Access All Alternates lookup 0 subtable" ntilde.sc
EndChar

StartChar: ograve
Encoding: 242 242 178
Width: 553
Flags: MW
HStem: -12 55<232.5 279 232.5 323> 447 53<278.5 321.5> 551 183<227.5 449 227.5 379>
VStem: 32 143<133.5 252.5 133.5 259.5> 192 257<551 693> 378 144<245.5 356>
LayerCount: 2
Fore
SplineSet
522 303 m 0xd4
 522 146 414 -12 232 -12 c 0
 95 -12 32 70 32 181 c 0
 32 338 135 500 320 500 c 0
 443 500 522 433 522 303 c 0xd4
378 307 m 0
 378 405 334 447 309 447 c 0
 248 447 175 320 175 185 c 0
 175 82 221 43 244 43 c 0
 314 43 378 184 378 307 c 0
449 551 m 1x28
 379 551 l 1
 217 639 l 2
 203 647 192 668 192 681 c 0
 192 705 206 734 249 734 c 0
 276 734 289 727 312 702 c 2
 449 551 l 1x28
EndSplineSet
Substitution2: "'smcp' Lowercase to Small Capitals in Latin lookup 14 subtable" ograve.sc
Substitution2: "'smcp' Lowercase to Small Capitals in Cyrillic lookup 13 subtable" ograve.sc
Substitution2: "'smcp' Lowercase to Small Capitals lookup 12 subtable" ograve.sc
Substitution2: "'aalt' Access All Alternates lookup 0 subtable" ograve.sc
EndChar

StartChar: oacute
Encoding: 243 243 179
Width: 553
Flags: MW
HStem: -12 55<232.5 279 232.5 323> 447 53<278.5 321.5> 551 183<253 475.5>
VStem: 32 143<133.5 252.5 133.5 259.5> 253 257 378 144<245.5 356>
LayerCount: 2
Fore
SplineSet
522 303 m 0xd4
 522 146 414 -12 232 -12 c 0
 95 -12 32 70 32 181 c 0
 32 338 135 500 320 500 c 0
 443 500 522 433 522 303 c 0xd4
378 307 m 0
 378 405 334 447 309 447 c 0
 248 447 175 320 175 185 c 0
 175 82 221 43 244 43 c 0
 314 43 378 184 378 307 c 0
511 681 m 0x28
 511 668 499 647 484 639 c 2
 324 551 l 1
 253 551 l 1
 391 702 l 2
 413 727 427 734 454 734 c 0
 497 734 511 705 511 681 c 0x28
EndSplineSet
Substitution2: "'smcp' Lowercase to Small Capitals in Latin lookup 14 subtable" oacute.sc
Substitution2: "'smcp' Lowercase to Small Capitals in Cyrillic lookup 13 subtable" oacute.sc
Substitution2: "'smcp' Lowercase to Small Capitals lookup 12 subtable" oacute.sc
Substitution2: "'aalt' Access All Alternates lookup 0 subtable" oacute.sc
EndChar

StartChar: ocircumflex
Encoding: 244 244 180
Width: 553
Flags: MW
HStem: -12 55<232.5 279 232.5 323> 447 53<278.5 321.5> 551 171<169 432 169 432 425 432 314 509 425 425>
VStem: 32 143<133.5 252.5 133.5 259.5> 169 340<551 551> 378 144<245.5 356>
LayerCount: 2
Fore
SplineSet
522 303 m 0xd4
 522 146 414 -12 232 -12 c 0
 95 -12 32 70 32 181 c 0
 32 338 135 500 320 500 c 0
 443 500 522 433 522 303 c 0xd4
378 307 m 0
 378 405 334 447 309 447 c 0
 248 447 175 320 175 185 c 0
 175 82 221 43 244 43 c 0
 314 43 378 184 378 307 c 0
509 551 m 1x28
 425 551 l 1
 358 646 l 1
 252 551 l 1
 169 551 l 1
 314 722 l 1
 432 722 l 1
 509 551 l 1x28
EndSplineSet
Substitution2: "'smcp' Lowercase to Small Capitals in Latin lookup 14 subtable" ocircumflex.sc
Substitution2: "'smcp' Lowercase to Small Capitals in Cyrillic lookup 13 subtable" ocircumflex.sc
Substitution2: "'smcp' Lowercase to Small Capitals lookup 12 subtable" ocircumflex.sc
Substitution2: "'aalt' Access All Alternates lookup 0 subtable" ocircumflex.sc
EndChar

StartChar: otilde
Encoding: 245 245 181
Width: 553
Flags: MW
HStem: -12 55<232.5 279 232.5 323> 447 53<278.5 321.5> 585 77<403 429> 633 76<275.5 301>
VStem: 32 143<133.5 252.5 133.5 259.5> 164 376<585 709> 378 144<245.5 356>
LayerCount: 2
Fore
SplineSet
522 303 m 0xca
 522 146 414 -12 232 -12 c 0
 95 -12 32 70 32 181 c 0
 32 338 135 500 320 500 c 0
 443 500 522 433 522 303 c 0xca
378 307 m 0
 378 405 334 447 309 447 c 0
 248 447 175 320 175 185 c 0
 175 82 221 43 244 43 c 0
 314 43 378 184 378 307 c 0
540 709 m 1x24
 510 640 463 585 395 585 c 0x24
 342 585 331 633 271 633 c 0
 250 633 227 612 218 585 c 1
 164 585 l 1
 195 654 242 709 309 709 c 0x14
 362 709 373 662 433 662 c 0
 454 662 478 683 486 709 c 1
 540 709 l 1x24
EndSplineSet
Substitution2: "'smcp' Lowercase to Small Capitals in Latin lookup 14 subtable" otilde.sc
Substitution2: "'smcp' Lowercase to Small Capitals in Cyrillic lookup 13 subtable" otilde.sc
Substitution2: "'smcp' Lowercase to Small Capitals lookup 12 subtable" otilde.sc
Substitution2: "'aalt' Access All Alternates lookup 0 subtable" otilde.sc
EndChar

StartChar: odieresis
Encoding: 246 246 182
Width: 553
Flags: MW
HStem: -12 55<232.5 279 232.5 323> 447 53<278.5 321.5> 585 138<236 274 446 484>
VStem: 32 143<133.5 252.5 133.5 259.5> 187 138 378 144<245.5 356> 397 137<635 673>
LayerCount: 2
Fore
SplineSet
522 303 m 0xd4
 522 146 414 -12 232 -12 c 0
 95 -12 32 70 32 181 c 0
 32 338 135 500 320 500 c 0
 443 500 522 433 522 303 c 0xd4
378 307 m 0
 378 405 334 447 309 447 c 0
 248 447 175 320 175 185 c 0
 175 82 221 43 244 43 c 0
 314 43 378 184 378 307 c 0
534 654 m 0x2a
 534 616 503 585 465 585 c 0
 427 585 397 616 397 654 c 0
 397 692 427 723 465 723 c 0
 503 723 534 692 534 654 c 0x2a
324 654 m 0
 324 616 293 585 255 585 c 0
 217 585 187 616 187 654 c 0
 187 692 217 723 255 723 c 0
 293 723 324 692 324 654 c 0
EndSplineSet
Substitution2: "'smcp' Lowercase to Small Capitals in Latin lookup 14 subtable" odieresis.sc
Substitution2: "'smcp' Lowercase to Small Capitals in Cyrillic lookup 13 subtable" odieresis.sc
Substitution2: "'smcp' Lowercase to Small Capitals lookup 12 subtable" odieresis.sc
Substitution2: "'aalt' Access All Alternates lookup 0 subtable" odieresis.sc
EndChar

StartChar: divide
Encoding: 247 247 183
Width: 1000
Flags: MW
HStem: 80 119<483.5 516.5> 269 62<200 800 200 800> 401 120<483.5 516.5>
VStem: 440 120<122.5 156 444 477.5>
LayerCount: 2
Fore
SplineSet
560 461 m 0
 560 427 533 401 500 401 c 0
 467 401 440 427 440 461 c 0
 440 494 467 521 500 521 c 0
 533 521 560 494 560 461 c 0
800 269 m 1
 200 269 l 1
 200 331 l 1
 800 331 l 1
 800 269 l 1
560 139 m 0
 560 106 533 80 500 80 c 0
 467 80 440 106 440 139 c 0
 440 173 467 199 500 199 c 0
 533 199 560 173 560 139 c 0
EndSplineSet
EndChar

StartChar: oslash
Encoding: 248 248 184
Width: 553
Flags: MW
HStem: -12 55<238.5 279 238.5 323> -2 21G<157 157> 447 53<278.5 315> 480 21G
VStem: 32 143<178 252.5 178 259.5> 378 144<245.5 313>
LayerCount: 2
Fore
SplineSet
522 303 m 0xac
 522 146 414 -12 232 -12 c 0xac
 204 -12 179 -8 157 -2 c 1
 98 -94 l 1
 47 -60 l 1
 101 25 l 1
 54 60 32 115 32 181 c 0
 32 338 135 500 320 500 c 0x6c
 348 500 373 496 396 490 c 1x9c
 442 563 l 1
 498 531 l 1
 454 462 l 1
 498 430 522 377 522 303 c 0xac
350 418 m 1
 336 438 321 447 309 447 c 0
 248 447 175 320 175 185 c 0
 175 171 176 158 178 146 c 1
 350 418 l 1
378 307 m 0
 378 319 378 331 376 341 c 1
 204 72 l 1
 217 52 233 43 244 43 c 0
 314 43 378 184 378 307 c 0
EndSplineSet
Substitution2: "'smcp' Lowercase to Small Capitals in Latin lookup 14 subtable" oslash.sc
Substitution2: "'smcp' Lowercase to Small Capitals in Cyrillic lookup 13 subtable" oslash.sc
Substitution2: "'smcp' Lowercase to Small Capitals lookup 12 subtable" oslash.sc
Substitution2: "'aalt' Access All Alternates lookup 0 subtable" oslash.sc
EndChar

StartChar: ugrave
Encoding: 249 249 185
Width: 574
Flags: MW
HStem: -12 60<379.5 493> -12 70<200.5 202.5> 478 21G 490 21G 551 183<249.5 471 249.5 401>
VStem: 45 134 214 257<551 693>
LayerCount: 2
Fore
SplineSet
572 28 m 1x54
 545 13 471 -12 414 -12 c 0
 345 -12 332 21 329 35 c 1
 285 5 235 -12 170 -12 c 0
 71 -12 35 63 47 117 c 2
 112 424 l 1
 28 433 l 1
 28 467 l 1
 193 500 l 1
 262 500 l 1
 180 117 l 2
 174 86 188 58 213 58 c 0x54
 258 58 297 85 333 118 c 1
 411 488 l 1
 544 488 l 1
 462 100 l 2
 454 63 467 48 488 48 c 0
 498 48 511 52 572 84 c 1xa4
 572 28 l 1x54
471 551 m 1x0a
 401 551 l 1
 239 639 l 2
 225 647 214 668 214 681 c 0
 214 705 228 734 271 734 c 0
 298 734 311 727 334 702 c 2
 471 551 l 1x0a
EndSplineSet
Substitution2: "'smcp' Lowercase to Small Capitals in Latin lookup 14 subtable" ugrave.sc
Substitution2: "'smcp' Lowercase to Small Capitals in Cyrillic lookup 13 subtable" ugrave.sc
Substitution2: "'smcp' Lowercase to Small Capitals lookup 12 subtable" ugrave.sc
Substitution2: "'aalt' Access All Alternates lookup 0 subtable" ugrave.sc
EndChar

StartChar: uacute
Encoding: 250 250 186
Width: 574
Flags: MW
HStem: -12 60<379.5 493> -12 70<200.5 202.5> 478 21G 490 21G 551 183<275 497.5>
VStem: 45 134 275 257
LayerCount: 2
Fore
SplineSet
572 28 m 1x54
 545 13 471 -12 414 -12 c 0
 345 -12 332 21 329 35 c 1
 285 5 235 -12 170 -12 c 0
 71 -12 35 63 47 117 c 2
 112 424 l 1
 28 433 l 1
 28 467 l 1
 193 500 l 1
 262 500 l 1
 180 117 l 2
 174 86 188 58 213 58 c 0x54
 258 58 297 85 333 118 c 1
 411 488 l 1
 544 488 l 1
 462 100 l 2
 454 63 467 48 488 48 c 0
 498 48 511 52 572 84 c 1xa4
 572 28 l 1x54
533 681 m 0x0a
 533 668 521 647 506 639 c 2
 346 551 l 1
 275 551 l 1
 413 702 l 2
 435 727 449 734 476 734 c 0
 519 734 533 705 533 681 c 0x0a
EndSplineSet
Substitution2: "'smcp' Lowercase to Small Capitals in Latin lookup 14 subtable" uacute.sc
Substitution2: "'smcp' Lowercase to Small Capitals in Cyrillic lookup 13 subtable" uacute.sc
Substitution2: "'smcp' Lowercase to Small Capitals lookup 12 subtable" uacute.sc
Substitution2: "'aalt' Access All Alternates lookup 0 subtable" uacute.sc
EndChar

StartChar: ucircumflex
Encoding: 251 251 187
Width: 574
Flags: MW
HStem: -12 60<379.5 493> -12 70<200.5 202.5> 478 21G 490 21G 551 171<191 454 191 454 447 454 336 531 447 447>
VStem: 45 134 191 340<551 551>
LayerCount: 2
Fore
SplineSet
572 28 m 1x54
 545 13 471 -12 414 -12 c 0
 345 -12 332 21 329 35 c 1
 285 5 235 -12 170 -12 c 0
 71 -12 35 63 47 117 c 2
 112 424 l 1
 28 433 l 1
 28 467 l 1
 193 500 l 1
 262 500 l 1
 180 117 l 2
 174 86 188 58 213 58 c 0x54
 258 58 297 85 333 118 c 1
 411 488 l 1
 544 488 l 1
 462 100 l 2
 454 63 467 48 488 48 c 0
 498 48 511 52 572 84 c 1xa4
 572 28 l 1x54
531 551 m 1x0a
 447 551 l 1
 380 646 l 1
 274 551 l 1
 191 551 l 1
 336 722 l 1
 454 722 l 1
 531 551 l 1x0a
EndSplineSet
Substitution2: "'smcp' Lowercase to Small Capitals in Latin lookup 14 subtable" ucircumflex.sc
Substitution2: "'smcp' Lowercase to Small Capitals in Cyrillic lookup 13 subtable" ucircumflex.sc
Substitution2: "'smcp' Lowercase to Small Capitals lookup 12 subtable" ucircumflex.sc
Substitution2: "'aalt' Access All Alternates lookup 0 subtable" ucircumflex.sc
EndChar

StartChar: udieresis
Encoding: 252 252 188
Width: 574
Flags: MW
HStem: -12 60<379.5 493> -12 70<200.5 202.5> 478 21G 490 21G 585 138<258 296 468 506>
VStem: 45 134 208 138<635 673> 419 137<635 673>
LayerCount: 2
Fore
SplineSet
572 28 m 1x54
 545 13 471 -12 414 -12 c 0
 345 -12 332 21 329 35 c 1
 285 5 235 -12 170 -12 c 0
 71 -12 35 63 47 117 c 2
 112 424 l 1
 28 433 l 1
 28 467 l 1
 193 500 l 1
 262 500 l 1
 180 117 l 2
 174 86 188 58 213 58 c 0x54
 258 58 297 85 333 118 c 1
 411 488 l 1
 544 488 l 1
 462 100 l 2
 454 63 467 48 488 48 c 0
 498 48 511 52 572 84 c 1xa4
 572 28 l 1x54
556 654 m 0x0b
 556 616 525 585 487 585 c 0
 449 585 419 616 419 654 c 0
 419 692 449 723 487 723 c 0
 525 723 556 692 556 654 c 0x0b
346 654 m 0
 346 616 315 585 277 585 c 0
 239 585 208 616 208 654 c 0
 208 692 239 723 277 723 c 0
 315 723 346 692 346 654 c 0
EndSplineSet
Substitution2: "'smcp' Lowercase to Small Capitals in Latin lookup 14 subtable" udieresis.sc
Substitution2: "'smcp' Lowercase to Small Capitals in Cyrillic lookup 13 subtable" udieresis.sc
Substitution2: "'smcp' Lowercase to Small Capitals lookup 12 subtable" udieresis.sc
Substitution2: "'aalt' Access All Alternates lookup 0 subtable" udieresis.sc
EndChar

StartChar: yacute
Encoding: 253 253 189
Width: 542
Flags: MW
HStem: -229 21G<-16.5 84.5> 424 76<109 167.5> 490 21G 551 183<242 463.5>
VStem: -81 653<-167 444> 242 257<551 693>
LayerCount: 2
Fore
SplineSet
572 444 m 1xa8
 520 412 l 1
 504 397 456 322 438 281 c 0
 409 217 358 94 295 -14 c 0
 228 -130 145 -229 24 -229 c 0
 -57 -229 -81 -181 -81 -153 c 0
 -81 -120 -62 -72 0 -70 c 1
 43 -146 l 1
 88 -136 138 -81 194 21 c 1
 191 37 173 135 152 230 c 0
 132 322 118 424 109 424 c 2
 3 432 l 1xc8
 3 463 l 1
 26 471 124 500 145 500 c 0
 190 500 217 496 245 402 c 0
 259 356 276 276 292 198 c 1
 429 500 l 1
 477 500 l 1
 572 470 l 1
 572 444 l 1xa8
499 681 m 0x14
 499 668 488 647 473 639 c 2
 312 551 l 1
 242 551 l 1
 379 702 l 2
 401 727 415 734 442 734 c 0
 485 734 499 705 499 681 c 0x14
EndSplineSet
Substitution2: "'smcp' Lowercase to Small Capitals in Latin lookup 14 subtable" yacute.sc
Substitution2: "'smcp' Lowercase to Small Capitals in Cyrillic lookup 13 subtable" yacute.sc
Substitution2: "'smcp' Lowercase to Small Capitals lookup 12 subtable" yacute.sc
Substitution2: "'aalt' Access All Alternates lookup 0 subtable" yacute.sc
EndChar

StartChar: thorn
Encoding: 254 254 190
Width: 541
Flags: MW
HStem: -219 51<123.5 129 123.5 198> -12 53<210 261 210 295> -4 21G<144 144> 430 70<329.5 335.5>
VStem: 56 142 369 140<248.5 335>
LayerCount: 2
Fore
SplineSet
509 311 m 0xdc
 509 151 390 -12 200 -12 c 0xdc
 176 -12 157 -8 144 -4 c 1xbc
 114 -152 l 2
 112 -161 118 -168 129 -168 c 2
 198 -174 l 1
 198 -219 l 1
 -96 -219 l 1
 -96 -174 l 1
 -75 -172 -36 -169 -36 -169 c 2
 -26 -168 -21 -161 -19 -152 c 2
 139 661 l 1
 56 670 l 1
 56 705 l 1
 221 737 l 1
 288 737 l 1
 236 463 l 1
 257 475 303 500 356 500 c 0
 461 500 509 402 509 311 c 0xdc
369 307 m 0
 369 363 362 430 309 430 c 0
 281 430 239 394 219 376 c 1
 158 68 l 1
 174 58 201 41 219 41 c 0
 303 41 369 190 369 307 c 0
EndSplineSet
Substitution2: "'smcp' Lowercase to Small Capitals in Latin lookup 14 subtable" thorn.sc
Substitution2: "'smcp' Lowercase to Small Capitals in Cyrillic lookup 13 subtable" thorn.sc
Substitution2: "'smcp' Lowercase to Small Capitals lookup 12 subtable" thorn.sc
Substitution2: "'aalt' Access All Alternates lookup 0 subtable" thorn.sc
EndChar

StartChar: ydieresis
Encoding: 255 255 191
Width: 542
Flags: MW
HStem: -229 21G<-16.5 84.5> 424 76<109 167.5> 490 21G 585 138<225 263 435 473>
VStem: -81 653<-167 444> 175 138 386 137
LayerCount: 2
Fore
SplineSet
572 444 m 1xa8
 520 412 l 1
 504 397 456 322 438 281 c 0
 409 217 358 94 295 -14 c 0
 228 -130 145 -229 24 -229 c 0
 -57 -229 -81 -181 -81 -153 c 0
 -81 -120 -62 -72 0 -70 c 1
 43 -146 l 1
 88 -136 138 -81 194 21 c 1
 191 37 173 135 152 230 c 0
 132 322 118 424 109 424 c 2
 3 432 l 1xc8
 3 463 l 1
 26 471 124 500 145 500 c 0
 190 500 217 496 245 402 c 0
 259 356 276 276 292 198 c 1
 429 500 l 1
 477 500 l 1
 572 470 l 1
 572 444 l 1xa8
522 654 m 0x16
 522 616 492 585 454 585 c 0
 416 585 386 616 386 654 c 0
 386 692 416 723 454 723 c 0
 492 723 522 692 522 654 c 0x16
312 654 m 0
 312 616 282 585 244 585 c 0
 206 585 175 616 175 654 c 0
 175 692 206 723 244 723 c 0
 282 723 312 692 312 654 c 0
EndSplineSet
Substitution2: "'smcp' Lowercase to Small Capitals in Latin lookup 14 subtable" ydieresis.sc
Substitution2: "'smcp' Lowercase to Small Capitals in Cyrillic lookup 13 subtable" ydieresis.sc
Substitution2: "'smcp' Lowercase to Small Capitals lookup 12 subtable" ydieresis.sc
Substitution2: "'aalt' Access All Alternates lookup 0 subtable" ydieresis.sc
EndChar

StartChar: Amacron
Encoding: 256 256 192
Width: 714
Flags: MW
HStem: 0 53 0 54<622 622 622 668> 253 57<271 416 271 427 238 416> 781 81<285 609 269 625>
VStem: -53 721<0 50 0 50> 152 52<0 55> 269 356<781 862> 622 46
LayerCount: 2
Fore
SplineSet
668 0 m 1xa1
 391 0 l 1xa8
 391 50 l 1
 412 52 437 55 437 55 c 2
 450 56 458 58 456 70 c 2
 427 253 l 1
 238 253 l 1
 139 70 l 2
 133 60 139 56 152 55 c 2
 152 55 179 52 204 50 c 1x64
 204 0 l 1
 -53 0 l 1
 -53 50 l 1
 5 56 l 1xa4
 375 687 l 1
 493 687 l 1
 602 71 l 2
 604 58 607 56 622 54 c 2
 622 54 646 52 668 50 c 1x61
 668 0 l 1xa1
416 310 m 1
 383 504 l 1
 271 310 l 1
 416 310 l 1
625 862 m 1x12
 609 781 l 1
 269 781 l 1
 285 862 l 1
 625 862 l 1x12
EndSplineSet
Substitution2: "'c2sc' Capitals to Small Capitals in Latin lookup 17 subtable" amacron.sc
Substitution2: "'c2sc' Capitals to Small Capitals in Cyrillic lookup 16 subtable" amacron.sc
Substitution2: "'c2sc' Capitals to Small Capitals lookup 15 subtable" amacron.sc
EndChar

StartChar: amacron
Encoding: 257 257 193
Width: 567
Flags: MW
HStem: -12 69<392 480.5> -12 75<201 223> 442 46 442 58<295 358.5 236.5 364.5> 586 81<221 546 205 561>
VStem: 32 141<150.5 234 150.5 245.5> 205 356<586 667>
LayerCount: 2
Fore
SplineSet
565 30 m 1x54
 519 12 464 -12 413 -12 c 0
 371 -12 342 4 329 33 c 1
 294 10 247 -12 199 -12 c 0
 76 -12 32 96 32 171 c 0
 32 320 129 500 344 500 c 0
 373 500 404 491 427 479 c 1x54
 434 488 l 1
 541 488 l 1
 534 468 518 436 516 427 c 2
 451 97 l 1
 451 67 454 57 478 57 c 0
 483 57 555 76 565 78 c 1xa4
 565 30 l 1x54
375 394 m 0
 377 400 370 442 359 442 c 0
 231 442 173 291 173 177 c 0
 173 124 171 63 231 63 c 0
 274 63 309 108 323 121 c 1
 338 201 328 149 375 394 c 0
561 667 m 1x0a
 546 586 l 1
 205 586 l 1
 221 667 l 1
 561 667 l 1x0a
EndSplineSet
Substitution2: "'ss05' Style Set 5 in Latin lookup 41 subtable" amacron.2StorySItal
Substitution2: "'ss05' Style Set 5 in Cyrillic lookup 40 subtable" amacron.2StorySItal
Substitution2: "'ss05' Style Set 5 lookup 39 subtable" amacron.2StorySItal
Substitution2: "'ss07' Style Set 7 in Latin lookup 35 subtable" amacron.SngStory
Substitution2: "'ss07' Style Set 7 in Cyrillic lookup 34 subtable" amacron.SngStory
Substitution2: "'ss07' Style Set 7 lookup 33 subtable" amacron.SngStory
Substitution2: "'smcp' Lowercase to Small Capitals in Latin lookup 14 subtable" amacron.sc
Substitution2: "'smcp' Lowercase to Small Capitals in Cyrillic lookup 13 subtable" amacron.sc
Substitution2: "'smcp' Lowercase to Small Capitals lookup 12 subtable" amacron.sc
AlternateSubs2: "'aalt' Access All Alternates lookup 1 subtable" amacron.sc amacron.SngStory amacron.2StorySItal
EndChar

StartChar: Abreve
Encoding: 258 258 194
Width: 714
Flags: MW
HStem: 0 53 0 54<622 622 622 668> 253 57<271 416 271 427 238 416> 746 81<423 476.5 423 482.5>
VStem: -53 721<0 50 0 50> 152 52<0 55> 304 317<827.5 909> 622 46
LayerCount: 2
Fore
SplineSet
668 0 m 1xa1
 391 0 l 1xa8
 391 50 l 1
 412 52 437 55 437 55 c 2
 450 56 458 58 456 70 c 2
 427 253 l 1
 238 253 l 1
 139 70 l 2
 133 60 139 56 152 55 c 2
 152 55 179 52 204 50 c 1x64
 204 0 l 1
 -53 0 l 1
 -53 50 l 1
 5 56 l 1xa4
 375 687 l 1
 493 687 l 1
 602 71 l 2
 604 58 607 56 622 54 c 2
 622 54 646 52 668 50 c 1x61
 668 0 l 1xa1
416 310 m 1
 383 504 l 1
 271 310 l 1
 416 310 l 1
621 909 m 1x12
 603 814 532 746 433 746 c 0
 355 746 304 788 304 867 c 0
 304 881 306 895 309 909 c 1
 361 909 l 1
 362 855 397 827 449 827 c 0
 504 827 548 858 569 909 c 1
 621 909 l 1x12
EndSplineSet
Substitution2: "'c2sc' Capitals to Small Capitals in Latin lookup 17 subtable" abreve.sc
Substitution2: "'c2sc' Capitals to Small Capitals in Cyrillic lookup 16 subtable" abreve.sc
Substitution2: "'c2sc' Capitals to Small Capitals lookup 15 subtable" abreve.sc
EndChar

StartChar: abreve
Encoding: 259 259 195
Width: 567
Flags: MW
HStem: -12 69<392 480.5> -12 75<201 223> 442 46 442 58<295 358.5 236.5 364.5> 551 81<359 412.5 359 418.5>
VStem: 32 141<150.5 234 150.5 245.5> 240 317<632.5 714>
LayerCount: 2
Fore
SplineSet
565 30 m 1x54
 519 12 464 -12 413 -12 c 0
 371 -12 342 4 329 33 c 1
 294 10 247 -12 199 -12 c 0
 76 -12 32 96 32 171 c 0
 32 320 129 500 344 500 c 0
 373 500 404 491 427 479 c 1x54
 434 488 l 1
 541 488 l 1
 534 468 518 436 516 427 c 2
 451 97 l 1
 451 67 454 57 478 57 c 0
 483 57 555 76 565 78 c 1xa4
 565 30 l 1x54
375 394 m 0
 377 400 370 442 359 442 c 0
 231 442 173 291 173 177 c 0
 173 124 171 63 231 63 c 0
 274 63 309 108 323 121 c 1
 338 201 328 149 375 394 c 0
557 714 m 1x0a
 539 619 468 551 369 551 c 0
 291 551 240 593 240 672 c 0
 240 686 242 700 245 714 c 1
 297 714 l 1
 298 660 333 632 385 632 c 0
 440 632 484 663 505 714 c 1
 557 714 l 1x0a
EndSplineSet
Substitution2: "'ss05' Style Set 5 in Latin lookup 41 subtable" abreve.2StorySItal
Substitution2: "'ss05' Style Set 5 in Cyrillic lookup 40 subtable" abreve.2StorySItal
Substitution2: "'ss05' Style Set 5 lookup 39 subtable" abreve.2StorySItal
Substitution2: "'ss07' Style Set 7 in Latin lookup 35 subtable" abreve.SngStory
Substitution2: "'ss07' Style Set 7 in Cyrillic lookup 34 subtable" abreve.SngStory
Substitution2: "'ss07' Style Set 7 lookup 33 subtable" abreve.SngStory
Substitution2: "'smcp' Lowercase to Small Capitals in Latin lookup 14 subtable" abreve.sc
Substitution2: "'smcp' Lowercase to Small Capitals in Cyrillic lookup 13 subtable" abreve.sc
Substitution2: "'smcp' Lowercase to Small Capitals lookup 12 subtable" abreve.sc
AlternateSubs2: "'aalt' Access All Alternates lookup 1 subtable" abreve.sc abreve.SngStory abreve.2StorySItal
EndChar

StartChar: Aogonek
Encoding: 260 260 196
Width: 714
Flags: MW
HStem: -208 58<478.5 537.5> 0 53 0 54<622 622 622 668> 253 57<271 416 271 427 238 416>
VStem: -53 721<0 50 0 50> 152 52<0 55> 404 85<-123.5 -110.5> 622 46
LayerCount: 2
Fore
SplineSet
668 0 m 1x51
 391 0 l 1x58
 391 50 l 1
 412 52 437 55 437 55 c 2
 450 56 458 58 456 70 c 2
 427 253 l 1
 238 253 l 1
 139 70 l 2
 133 60 139 56 152 55 c 2
 152 55 179 52 204 50 c 1x34
 204 0 l 1
 -53 0 l 1
 -53 50 l 1
 5 56 l 1x54
 375 687 l 1
 493 687 l 1
 602 71 l 2
 604 58 607 56 622 54 c 2
 622 54 646 52 668 50 c 1x31
 668 0 l 1x51
416 310 m 1
 383 504 l 1
 271 310 l 1
 416 310 l 1
601 -177 m 1x82
 576 -188 526 -208 500 -208 c 0
 457 -208 404 -191 404 -140 c 0
 404 -81 464 -28 511 1 c 1
 574 1 l 1
 537 -23 489 -63 489 -111 c 0
 489 -136 507 -150 531 -150 c 0
 544 -150 569 -133 581 -125 c 1
 601 -177 l 1x82
EndSplineSet
Substitution2: "'c2sc' Capitals to Small Capitals in Latin lookup 17 subtable" aogonek.sc
Substitution2: "'c2sc' Capitals to Small Capitals in Cyrillic lookup 16 subtable" aogonek.sc
Substitution2: "'c2sc' Capitals to Small Capitals lookup 15 subtable" aogonek.sc
EndChar

StartChar: aogonek
Encoding: 261 261 197
Width: 567
Flags: MW
HStem: -208 58<387.5 447.5> -12 69<392 480.5> -12 75<201 223> 442 46 442 58<295 358.5 236.5 364.5>
VStem: 32 141<150.5 234 150.5 245.5> 314 85<-123.5 -110.5>
LayerCount: 2
Fore
SplineSet
565 30 m 1x2c
 519 12 464 -12 413 -12 c 0
 371 -12 342 4 329 33 c 1
 294 10 247 -12 199 -12 c 0
 76 -12 32 96 32 171 c 0
 32 320 129 500 344 500 c 0
 373 500 404 491 427 479 c 1x2c
 434 488 l 1
 541 488 l 1
 534 468 518 436 516 427 c 2
 451 97 l 1
 451 67 454 57 478 57 c 0
 483 57 555 76 565 78 c 1x54
 565 30 l 1x2c
375 394 m 0
 377 400 370 442 359 442 c 0
 231 442 173 291 173 177 c 0
 173 124 171 63 231 63 c 0
 274 63 309 108 323 121 c 1
 338 201 328 149 375 394 c 0
510 -177 m 1x82
 485 -188 435 -208 409 -208 c 0
 366 -208 314 -191 314 -140 c 0
 314 -81 374 -28 421 1 c 1
 484 1 l 1
 447 -23 399 -63 399 -111 c 0
 399 -136 417 -150 441 -150 c 0
 454 -150 478 -133 490 -125 c 1
 510 -177 l 1x82
EndSplineSet
Substitution2: "'ss05' Style Set 5 in Latin lookup 41 subtable" aogonek.2StorySItal
Substitution2: "'ss05' Style Set 5 in Cyrillic lookup 40 subtable" aogonek.2StorySItal
Substitution2: "'ss05' Style Set 5 lookup 39 subtable" aogonek.2StorySItal
Substitution2: "'ss07' Style Set 7 in Latin lookup 35 subtable" aogonek.SngStory
Substitution2: "'ss07' Style Set 7 in Cyrillic lookup 34 subtable" aogonek.SngStory
Substitution2: "'ss07' Style Set 7 lookup 33 subtable" aogonek.SngStory
Substitution2: "'smcp' Lowercase to Small Capitals in Latin lookup 14 subtable" aogonek.sc
Substitution2: "'smcp' Lowercase to Small Capitals in Cyrillic lookup 13 subtable" aogonek.sc
Substitution2: "'smcp' Lowercase to Small Capitals lookup 12 subtable" aogonek.sc
AlternateSubs2: "'aalt' Access All Alternates lookup 1 subtable" aogonek.sc aogonek.SngStory aogonek.2StorySItal
EndChar

StartChar: Cacute
Encoding: 262 262 198
Width: 671
Flags: MW
HStem: -16 61<337 394 337 394> 626 61<412.5 491> 746 183<381 603.5>
VStem: 48 148<200 371> 381 257
LayerCount: 2
Fore
SplineSet
687 645 m 1
 656 469 l 1
 582 469 l 1
 583 581 l 2
 584 589 578 601 568 604 c 0
 557 610 506 626 476 626 c 0
 349 626 196 489 196 257 c 0
 196 105 294 45 380 45 c 0
 408 45 451 54 463 60 c 0
 473 61 478 69 481 76 c 2
 529 208 l 1
 604 208 l 1
 573 27 l 1
 522 9 441 -16 347 -16 c 0
 122 -16 48 132 48 268 c 0
 48 474 206 687 471 687 c 0
 548 687 608 670 687 645 c 1
639 876 m 0
 639 863 627 842 612 834 c 2
 452 746 l 1
 381 746 l 1
 519 897 l 2
 541 922 555 929 582 929 c 0
 625 929 639 900 639 876 c 0
EndSplineSet
Substitution2: "'c2sc' Capitals to Small Capitals in Latin lookup 17 subtable" cacute.sc
Substitution2: "'c2sc' Capitals to Small Capitals in Cyrillic lookup 16 subtable" cacute.sc
Substitution2: "'c2sc' Capitals to Small Capitals lookup 15 subtable" cacute.sc
EndChar

StartChar: cacute
Encoding: 263 263 199
Width: 480
Flags: MW
HStem: -12 74<208 256.5> 427 73<299 299> 490 21G 551 183<244 465.5>
VStem: 33 137<158.5 209.5 158.5 264.5> 244 257<551 693>
LayerCount: 2
Fore
SplineSet
450 426 m 0xa8
 450 402 429 349 354 349 c 1
 299 427 l 1xc8
 186 402 170 230 170 189 c 0
 170 128 176 62 240 62 c 0
 290 62 338 86 428 194 c 1
 428 94 l 1
 373 30 304 -12 209 -12 c 0
 87 -12 33 64 33 178 c 0
 33 351 144 500 335 500 c 0
 414 500 450 458 450 426 c 0xa8
501 681 m 0x14
 501 668 490 647 475 639 c 2
 314 551 l 1
 244 551 l 1
 381 702 l 2
 403 727 417 734 444 734 c 0
 487 734 501 705 501 681 c 0x14
EndSplineSet
Substitution2: "'smcp' Lowercase to Small Capitals in Latin lookup 14 subtable" cacute.sc
Substitution2: "'smcp' Lowercase to Small Capitals in Cyrillic lookup 13 subtable" cacute.sc
Substitution2: "'smcp' Lowercase to Small Capitals lookup 12 subtable" cacute.sc
Substitution2: "'aalt' Access All Alternates lookup 0 subtable" cacute.sc
EndChar

StartChar: Ccircumflex
Encoding: 264 264 200
Width: 671
Flags: MW
HStem: -16 61<337 394 337 394> 626 61<412.5 491> 746 171<297 560 297 560 553 560 442 637 553 553>
VStem: 48 148<200 371> 297 340<746 746>
LayerCount: 2
Fore
SplineSet
687 645 m 1
 656 469 l 1
 582 469 l 1
 583 581 l 2
 584 589 578 601 568 604 c 0
 557 610 506 626 476 626 c 0
 349 626 196 489 196 257 c 0
 196 105 294 45 380 45 c 0
 408 45 451 54 463 60 c 0
 473 61 478 69 481 76 c 2
 529 208 l 1
 604 208 l 1
 573 27 l 1
 522 9 441 -16 347 -16 c 0
 122 -16 48 132 48 268 c 0
 48 474 206 687 471 687 c 0
 548 687 608 670 687 645 c 1
637 746 m 1
 553 746 l 1
 486 841 l 1
 380 746 l 1
 297 746 l 1
 442 917 l 1
 560 917 l 1
 637 746 l 1
EndSplineSet
Substitution2: "'c2sc' Capitals to Small Capitals in Latin lookup 17 subtable" ccircumflex.sc
Substitution2: "'c2sc' Capitals to Small Capitals in Cyrillic lookup 16 subtable" ccircumflex.sc
Substitution2: "'c2sc' Capitals to Small Capitals lookup 15 subtable" ccircumflex.sc
EndChar

StartChar: ccircumflex
Encoding: 265 265 201
Width: 480
Flags: MW
HStem: -12 74<208 256.5> 427 73<299 299> 490 21G 551 171<160 422 160 422 416 422 305 500 416 416>
VStem: 33 137<158.5 209.5 158.5 264.5> 160 340<551 551>
LayerCount: 2
Fore
SplineSet
450 426 m 0xa8
 450 402 429 349 354 349 c 1
 299 427 l 1xc8
 186 402 170 230 170 189 c 0
 170 128 176 62 240 62 c 0
 290 62 338 86 428 194 c 1
 428 94 l 1
 373 30 304 -12 209 -12 c 0
 87 -12 33 64 33 178 c 0
 33 351 144 500 335 500 c 0
 414 500 450 458 450 426 c 0xa8
500 551 m 1x14
 416 551 l 1
 349 646 l 1
 243 551 l 1
 160 551 l 1
 305 722 l 1
 422 722 l 1
 500 551 l 1x14
EndSplineSet
Substitution2: "'smcp' Lowercase to Small Capitals in Latin lookup 14 subtable" ccircumflex.sc
Substitution2: "'smcp' Lowercase to Small Capitals in Cyrillic lookup 13 subtable" ccircumflex.sc
Substitution2: "'smcp' Lowercase to Small Capitals lookup 12 subtable" ccircumflex.sc
Substitution2: "'aalt' Access All Alternates lookup 0 subtable" ccircumflex.sc
EndChar

StartChar: Cdotaccent
Encoding: 266 266 202
Width: 671
Flags: MW
HStem: -16 61<337 394 337 394> 626 61<412.5 491> 780 141<460.5 498.5 459 499>
VStem: 48 148<200 371> 413 135
LayerCount: 2
Fore
SplineSet
687 645 m 1
 656 469 l 1
 582 469 l 1
 583 581 l 2
 584 589 578 601 568 604 c 0
 557 610 506 626 476 626 c 0
 349 626 196 489 196 257 c 0
 196 105 294 45 380 45 c 0
 408 45 451 54 463 60 c 0
 473 61 478 69 481 76 c 2
 529 208 l 1
 604 208 l 1
 573 27 l 1
 522 9 441 -16 347 -16 c 0
 122 -16 48 132 48 268 c 0
 48 474 206 687 471 687 c 0
 548 687 608 670 687 645 c 1
547 848 m 0
 547 811 518 780 480 780 c 0
 441 780 413 809 413 848 c 0
 413 888 439 921 479 921 c 0
 518 921 547 889 547 848 c 0
EndSplineSet
Substitution2: "'c2sc' Capitals to Small Capitals in Latin lookup 17 subtable" cdotaccent.sc
Substitution2: "'c2sc' Capitals to Small Capitals in Cyrillic lookup 16 subtable" cdotaccent.sc
Substitution2: "'c2sc' Capitals to Small Capitals lookup 15 subtable" cdotaccent.sc
EndChar

StartChar: cdotaccent
Encoding: 267 267 203
Width: 480
Flags: MW
HStem: -12 74<208 256.5> 427 73<299 299> 490 21G 585 141<323.5 361.5 322 362>
VStem: 33 137<158.5 209.5 158.5 264.5> 275 135<634.5 673>
LayerCount: 2
Fore
SplineSet
450 426 m 0xa8
 450 402 429 349 354 349 c 1
 299 427 l 1xc8
 186 402 170 230 170 189 c 0
 170 128 176 62 240 62 c 0
 290 62 338 86 428 194 c 1
 428 94 l 1
 373 30 304 -12 209 -12 c 0
 87 -12 33 64 33 178 c 0
 33 351 144 500 335 500 c 0
 414 500 450 458 450 426 c 0xa8
410 653 m 0x14
 410 616 381 585 343 585 c 0
 304 585 275 614 275 653 c 0
 275 693 302 726 342 726 c 0
 381 726 410 694 410 653 c 0x14
EndSplineSet
Substitution2: "'smcp' Lowercase to Small Capitals in Latin lookup 14 subtable" cdotaccent.sc
Substitution2: "'smcp' Lowercase to Small Capitals in Cyrillic lookup 13 subtable" cdotaccent.sc
Substitution2: "'smcp' Lowercase to Small Capitals lookup 12 subtable" cdotaccent.sc
Substitution2: "'aalt' Access All Alternates lookup 0 subtable" cdotaccent.sc
EndChar

StartChar: Ccaron
Encoding: 268 268 204
Width: 671
Flags: MW
HStem: -16 61<337 394 337 394> 626 61<412.5 491> 746 171<409 415 332 527 409 409>
VStem: 48 148<200 371> 332 340<917 917>
LayerCount: 2
Fore
SplineSet
687 645 m 1
 656 469 l 1
 582 469 l 1
 583 581 l 2
 584 589 578 601 568 604 c 0
 557 610 506 626 476 626 c 0
 349 626 196 489 196 257 c 0
 196 105 294 45 380 45 c 0
 408 45 451 54 463 60 c 0
 473 61 478 69 481 76 c 2
 529 208 l 1
 604 208 l 1
 573 27 l 1
 522 9 441 -16 347 -16 c 0
 122 -16 48 132 48 268 c 0
 48 474 206 687 471 687 c 0
 548 687 608 670 687 645 c 1
672 917 m 1
 527 746 l 1
 409 746 l 1
 332 917 l 1
 415 917 l 1
 484 823 l 1
 589 917 l 1
 672 917 l 1
EndSplineSet
Substitution2: "'c2sc' Capitals to Small Capitals in Latin lookup 17 subtable" ccaron.sc
Substitution2: "'c2sc' Capitals to Small Capitals in Cyrillic lookup 16 subtable" ccaron.sc
Substitution2: "'c2sc' Capitals to Small Capitals lookup 15 subtable" ccaron.sc
EndChar

StartChar: ccaron
Encoding: 269 269 205
Width: 480
Flags: MW
HStem: -12 74<208 256.5> 427 73<299 299> 490 21G 551 171<271 277 194 390 271 271>
VStem: 33 137<158.5 209.5 158.5 264.5> 194 340
LayerCount: 2
Fore
SplineSet
450 426 m 0xa8
 450 402 429 349 354 349 c 1
 299 427 l 1xc8
 186 402 170 230 170 189 c 0
 170 128 176 62 240 62 c 0
 290 62 338 86 428 194 c 1
 428 94 l 1
 373 30 304 -12 209 -12 c 0
 87 -12 33 64 33 178 c 0
 33 351 144 500 335 500 c 0
 414 500 450 458 450 426 c 0xa8
535 722 m 1x14
 390 551 l 1
 271 551 l 1
 194 722 l 1
 277 722 l 1
 347 628 l 1
 452 722 l 1
 535 722 l 1x14
EndSplineSet
Substitution2: "'smcp' Lowercase to Small Capitals in Latin lookup 14 subtable" ccaron.sc
Substitution2: "'smcp' Lowercase to Small Capitals in Cyrillic lookup 13 subtable" ccaron.sc
Substitution2: "'smcp' Lowercase to Small Capitals lookup 12 subtable" ccaron.sc
Substitution2: "'aalt' Access All Alternates lookup 0 subtable" ccaron.sc
EndChar

StartChar: Dcaron
Encoding: 270 270 206
Width: 712
Flags: MW
HStem: 0 54<45 45 45 241> 0 62<208 241> 611 60<316 330 316 316> 616 55<153 153> 746 171<363 369 286 481 363 363>
VStem: 286 340<917 917> 545 150<327.5 505.5>
LayerCount: 2
Fore
SplineSet
695 414 m 0x52
 695 176 523 0 241 0 c 2
 -15 0 l 1x52
 -15 50 l 1
 14 53 45 54 45 54 c 2
 61 55 64 57 67 71 c 2x92
 171 601 l 2
 173 613 165 615 153 616 c 2
 153 616 123 618 95 621 c 1
 95 671 l 1
 355 671 l 2
 562 671 695 598 695 414 c 0x52
545 423 m 0
 545 588 433 608 330 611 c 2
 316 611 l 1x62
 208 62 l 1
 259 62 l 2
 435 64 545 232 545 423 c 0
626 917 m 1x0c
 481 746 l 1
 363 746 l 1
 286 917 l 1
 369 917 l 1
 438 823 l 1
 543 917 l 1
 626 917 l 1x0c
EndSplineSet
Substitution2: "'c2sc' Capitals to Small Capitals in Latin lookup 17 subtable" dcaron.sc
Substitution2: "'c2sc' Capitals to Small Capitals in Cyrillic lookup 16 subtable" dcaron.sc
Substitution2: "'c2sc' Capitals to Small Capitals lookup 15 subtable" dcaron.sc
EndChar

StartChar: dcaron
Encoding: 271 271 207
Width: 746
Flags: MW
HStem: -12 61<387 485> -12 71<208.5 217.5> 443 57<298 345> 478 21G 665 72<502 690 502 627>
VStem: 32 138<134.5 245.5> 614 152<692 720>
LayerCount: 2
Fore
SplineSet
570 737 m 1x6e
 455 90 l 2
 449 57 463 49 471 49 c 0
 499 49 542 68 564 79 c 1xae
 564 30 l 1
 530 10 464 -12 412 -12 c 0
 362 -12 333 6 322 36 c 1
 286 9 239 -12 196 -12 c 0
 80 -12 32 83 32 169 c 0
 32 322 133 500 335 500 c 0x6e
 360 500 380 492 393 488 c 1x5e
 423 661 l 1
 333 669 l 1
 333 705 l 1
 502 737 l 1
 570 737 l 1x6e
376 394 m 2
 377 399 357 443 333 443 c 0
 263 443 170 334 170 175 c 0
 170 94 190 59 227 59 c 0x6e
 261 59 296 96 330 135 c 1
 376 394 l 2
766 700 m 0
 766 616 667 564 596 551 c 1
 604 591 l 1
 637 600 682 628 690 665 c 1
 627 665 l 1
 618 674 614 686 614 698 c 0
 614 742 655 767 694 767 c 0
 735 767 766 742 766 700 c 0
EndSplineSet
Substitution2: "'smcp' Lowercase to Small Capitals in Latin lookup 14 subtable" dcaron.sc
Substitution2: "'smcp' Lowercase to Small Capitals in Cyrillic lookup 13 subtable" dcaron.sc
Substitution2: "'smcp' Lowercase to Small Capitals lookup 12 subtable" dcaron.sc
Substitution2: "'aalt' Access All Alternates lookup 0 subtable" dcaron.sc
EndChar

StartChar: Dcroat
Encoding: 272 272 208
Width: 712
Flags: MW
HStem: 0 54<45 45 45 241> 0 62<208 241> 321 63<20 391 20 391> 616 55<153 153>
VStem: 20 371<321 384 321 384> 545 150<327.5 505.5>
LayerCount: 2
Fore
SplineSet
20 321 m 1x28
 20 384 l 1
 391 384 l 1
 391 321 l 1
 20 321 l 1x28
695 414 m 0x00
 695 176 523 0 241 0 c 2
 -15 0 l 1x94
 -15 50 l 1
 14 53 45 54 45 54 c 2
 61 55 64 57 67 71 c 2x54
 171 601 l 2
 173 613 165 615 153 616 c 2
 153 616 123 618 95 621 c 1
 95 671 l 1
 355 671 l 2
 562 671 695 598 695 414 c 0x00
545 423 m 0
 545 588 433 608 330 611 c 2
 316 611 l 1x54
 208 62 l 1
 259 62 l 2
 435 64 545 232 545 423 c 0
EndSplineSet
Substitution2: "'c2sc' Capitals to Small Capitals in Latin lookup 17 subtable" dcroat.sc
Substitution2: "'c2sc' Capitals to Small Capitals in Cyrillic lookup 16 subtable" dcroat.sc
Substitution2: "'c2sc' Capitals to Small Capitals lookup 15 subtable" dcroat.sc
EndChar

StartChar: dcroat
Encoding: 273 273 209
Width: 565
Flags: MW
HStem: -12 61<387 485> -12 71<208.5 217.5> 443 57<298 345> 478 21G 534 66<264 401 251 413 546 624>
VStem: 32 138<134.5 245.5>
LayerCount: 2
Fore
SplineSet
636 600 m 1x6c
 624 534 l 1
 534 534 l 1
 455 90 l 2
 449 57 463 49 471 49 c 0
 499 49 542 68 564 79 c 1xac
 564 30 l 1
 530 10 464 -12 412 -12 c 0
 362 -12 333 6 322 36 c 1
 286 9 239 -12 196 -12 c 0
 80 -12 32 83 32 169 c 0
 32 322 133 500 335 500 c 0x6c
 360 500 380 492 393 488 c 1x5c
 401 534 l 1
 251 534 l 1
 264 600 l 1
 413 600 l 1
 423 661 l 1
 333 669 l 1
 333 705 l 1
 502 737 l 1
 570 737 l 1
 546 600 l 1
 636 600 l 1x6c
376 394 m 2
 377 399 357 443 333 443 c 0
 263 443 170 334 170 175 c 0
 170 94 190 59 227 59 c 0x6c
 261 59 296 96 330 135 c 1
 376 394 l 2
EndSplineSet
Substitution2: "'ss04' Style Set 4 in Latin lookup 38 subtable" dcroat.BarBowl
Substitution2: "'ss04' Style Set 4 in Cyrillic lookup 37 subtable" dcroat.BarBowl
Substitution2: "'ss04' Style Set 4 lookup 36 subtable" dcroat.BarBowl
Substitution2: "'smcp' Lowercase to Small Capitals in Latin lookup 14 subtable" dcroat.sc
Substitution2: "'smcp' Lowercase to Small Capitals in Cyrillic lookup 13 subtable" dcroat.sc
Substitution2: "'smcp' Lowercase to Small Capitals lookup 12 subtable" dcroat.sc
AlternateSubs2: "'aalt' Access All Alternates lookup 1 subtable" dcroat.sc dcroat.BarBowl
EndChar

StartChar: Emacron
Encoding: 274 274 210
Width: 600
Flags: MW
HStem: 0 55<45 45 45 526> 0 60<209 422 422 427 209 526> 318 61<271 374 259 384> 611 60<316 488 316 316> 616 55<153 153> 781 81<234 559 218 574>
VStem: -15 638<0 671 50 671> 218 356<781 862>
LayerCount: 2
Fore
SplineSet
623 671 m 1x72
 591 513 l 1
 511 513 l 1
 511 598 l 2
 511 608 499 611 488 611 c 2
 316 611 l 1
 271 379 l 1
 384 379 l 2
 394 379 409 384 412 394 c 2
 433 464 l 1
 506 464 l 1
 460 229 l 1
 386 229 l 1
 396 304 l 2
 398 312 383 318 374 318 c 2
 259 318 l 1
 209 60 l 1
 422 60 l 2
 432 60 447 66 450 74 c 2
 482 174 l 1
 561 174 l 1
 526 0 l 1
 -15 0 l 1x72
 -15 50 l 1
 15 53 45 55 45 55 c 2
 60 56 65 58 67 71 c 2
 171 601 l 2
 174 613 166 615 153 616 c 2
 153 616 123 618 96 621 c 1xaa
 96 671 l 1
 623 671 l 1x72
574 862 m 1x05
 559 781 l 1
 218 781 l 1
 234 862 l 1
 574 862 l 1x05
EndSplineSet
Substitution2: "'c2sc' Capitals to Small Capitals in Latin lookup 17 subtable" emacron.sc
Substitution2: "'c2sc' Capitals to Small Capitals in Cyrillic lookup 16 subtable" emacron.sc
Substitution2: "'c2sc' Capitals to Small Capitals lookup 15 subtable" emacron.sc
EndChar

StartChar: emacron
Encoding: 275 275 211
Width: 479
Flags: MW
HStem: -12 70<219 262.5> 444 56<267 313> 586 81<173 498 157 513>
VStem: 33 139<143.5 183.5 143.5 250> 157 356<586 667> 333 130<365.5 407.5>
LayerCount: 2
Fore
SplineSet
463 395 m 0xd4
 463 290 308 230 175 219 c 1
 174 207 172 189 172 178 c 0
 172 109 191 58 247 58 c 0
 290 58 330 90 440 185 c 1
 440 90 l 1
 401 52 311 -12 214 -12 c 0
 127 -12 33 26 33 174 c 0
 33 326 150 500 321 500 c 0
 419 500 463 425 463 395 c 0xd4
333 396 m 0
 333 419 328 444 298 444 c 0
 236 444 200 344 182 271 c 1
 251 287 333 335 333 396 c 0
513 667 m 1x28
 498 586 l 1
 157 586 l 1
 173 667 l 1
 513 667 l 1x28
EndSplineSet
Substitution2: "'smcp' Lowercase to Small Capitals in Latin lookup 14 subtable" emacron.sc
Substitution2: "'smcp' Lowercase to Small Capitals in Cyrillic lookup 13 subtable" emacron.sc
Substitution2: "'smcp' Lowercase to Small Capitals lookup 12 subtable" emacron.sc
Substitution2: "'aalt' Access All Alternates lookup 0 subtable" emacron.sc
EndChar

StartChar: Ebreve
Encoding: 276 276 212
Width: 600
Flags: MW
HStem: 0 55<45 45 45 526> 0 60<209 422 422 427 209 526> 318 61<271 374 259 384> 611 60<316 488 316 316> 616 55<153 153> 746 81<372 425.5 372 431.5>
VStem: -15 638<0 671 50 671> 253 317<827.5 909>
LayerCount: 2
Fore
SplineSet
623 671 m 1x72
 591 513 l 1
 511 513 l 1
 511 598 l 2
 511 608 499 611 488 611 c 2
 316 611 l 1
 271 379 l 1
 384 379 l 2
 394 379 409 384 412 394 c 2
 433 464 l 1
 506 464 l 1
 460 229 l 1
 386 229 l 1
 396 304 l 2
 398 312 383 318 374 318 c 2
 259 318 l 1
 209 60 l 1
 422 60 l 2
 432 60 447 66 450 74 c 2
 482 174 l 1
 561 174 l 1
 526 0 l 1
 -15 0 l 1x72
 -15 50 l 1
 15 53 45 55 45 55 c 2
 60 56 65 58 67 71 c 2
 171 601 l 2
 174 613 166 615 153 616 c 2
 153 616 123 618 96 621 c 1xaa
 96 671 l 1
 623 671 l 1x72
570 909 m 1x05
 552 814 481 746 382 746 c 0
 304 746 253 788 253 867 c 0
 253 881 255 895 258 909 c 1
 311 909 l 1
 312 855 346 827 398 827 c 0
 453 827 498 858 519 909 c 1
 570 909 l 1x05
EndSplineSet
Substitution2: "'c2sc' Capitals to Small Capitals in Latin lookup 17 subtable" ebreve.sc
Substitution2: "'c2sc' Capitals to Small Capitals in Cyrillic lookup 16 subtable" ebreve.sc
Substitution2: "'c2sc' Capitals to Small Capitals lookup 15 subtable" ebreve.sc
EndChar

StartChar: ebreve
Encoding: 277 277 213
Width: 479
Flags: MW
HStem: -12 70<219 262.5> 444 56<267 313> 551 81<311 364.5 311 370.5>
VStem: 33 139<143.5 183.5 143.5 250> 192 317<632.5 714> 333 130<365.5 407.5>
LayerCount: 2
Fore
SplineSet
463 395 m 0xd4
 463 290 308 230 175 219 c 1
 174 207 172 189 172 178 c 0
 172 109 191 58 247 58 c 0
 290 58 330 90 440 185 c 1
 440 90 l 1
 401 52 311 -12 214 -12 c 0
 127 -12 33 26 33 174 c 0
 33 326 150 500 321 500 c 0
 419 500 463 425 463 395 c 0xd4
333 396 m 0
 333 419 328 444 298 444 c 0
 236 444 200 344 182 271 c 1
 251 287 333 335 333 396 c 0
509 714 m 1x28
 491 619 420 551 321 551 c 0
 243 551 192 593 192 672 c 0
 192 686 194 700 197 714 c 1
 249 714 l 1
 250 660 285 632 337 632 c 0
 392 632 436 663 457 714 c 1
 509 714 l 1x28
EndSplineSet
Substitution2: "'smcp' Lowercase to Small Capitals in Latin lookup 14 subtable" ebreve.sc
Substitution2: "'smcp' Lowercase to Small Capitals in Cyrillic lookup 13 subtable" ebreve.sc
Substitution2: "'smcp' Lowercase to Small Capitals lookup 12 subtable" ebreve.sc
Substitution2: "'aalt' Access All Alternates lookup 0 subtable" ebreve.sc
EndChar

StartChar: Edotaccent
Encoding: 278 278 214
Width: 600
Flags: MW
HStem: 0 55<45 45 45 526> 0 60<209 422 422 427 209 526> 318 61<271 374 259 384> 611 60<316 488 316 316> 616 55<153 153> 780 141<375.5 413.5 374 414>
VStem: -15 638<0 671 50 671> 327 135<829.5 868>
LayerCount: 2
Fore
SplineSet
623 671 m 1x72
 591 513 l 1
 511 513 l 1
 511 598 l 2
 511 608 499 611 488 611 c 2
 316 611 l 1
 271 379 l 1
 384 379 l 2
 394 379 409 384 412 394 c 2
 433 464 l 1
 506 464 l 1
 460 229 l 1
 386 229 l 1
 396 304 l 2
 398 312 383 318 374 318 c 2
 259 318 l 1
 209 60 l 1
 422 60 l 2
 432 60 447 66 450 74 c 2
 482 174 l 1
 561 174 l 1
 526 0 l 1
 -15 0 l 1x72
 -15 50 l 1
 15 53 45 55 45 55 c 2
 60 56 65 58 67 71 c 2
 171 601 l 2
 174 613 166 615 153 616 c 2
 153 616 123 618 96 621 c 1xaa
 96 671 l 1
 623 671 l 1x72
462 848 m 0x05
 462 811 433 780 395 780 c 0
 356 780 327 809 327 848 c 0
 327 888 354 921 394 921 c 0
 433 921 462 889 462 848 c 0x05
EndSplineSet
Substitution2: "'c2sc' Capitals to Small Capitals in Latin lookup 17 subtable" edotaccent.sc
Substitution2: "'c2sc' Capitals to Small Capitals in Cyrillic lookup 16 subtable" edotaccent.sc
Substitution2: "'c2sc' Capitals to Small Capitals lookup 15 subtable" edotaccent.sc
EndChar

StartChar: edotaccent
Encoding: 279 279 215
Width: 479
Flags: MW
HStem: -12 70<219 262.5> 444 56<267 313> 585 141<313.5 351.5 312 352>
VStem: 33 139<143.5 183.5 143.5 250> 265 135<634.5 673> 333 130<365.5 407.5>
LayerCount: 2
Fore
SplineSet
463 395 m 0xd4
 463 290 308 230 175 219 c 1
 174 207 172 189 172 178 c 0
 172 109 191 58 247 58 c 0
 290 58 330 90 440 185 c 1
 440 90 l 1
 401 52 311 -12 214 -12 c 0
 127 -12 33 26 33 174 c 0
 33 326 150 500 321 500 c 0
 419 500 463 425 463 395 c 0xd4
333 396 m 0
 333 419 328 444 298 444 c 0
 236 444 200 344 182 271 c 1
 251 287 333 335 333 396 c 0
400 653 m 0x28
 400 616 371 585 333 585 c 0
 294 585 265 614 265 653 c 0
 265 693 292 726 332 726 c 0
 371 726 400 694 400 653 c 0x28
EndSplineSet
Substitution2: "'smcp' Lowercase to Small Capitals in Latin lookup 14 subtable" edotaccent.sc
Substitution2: "'smcp' Lowercase to Small Capitals in Cyrillic lookup 13 subtable" edotaccent.sc
Substitution2: "'smcp' Lowercase to Small Capitals lookup 12 subtable" edotaccent.sc
Substitution2: "'aalt' Access All Alternates lookup 0 subtable" edotaccent.sc
EndChar

StartChar: Eogonek
Encoding: 280 280 216
Width: 600
Flags: MW
HStem: -208 58<314.5 374.5> 0 55<45 45 45 526> 0 60<209 422 422 427 209 526> 318 61<271 374 259 384> 611 60<316 488 316 316> 616 55<153 153>
VStem: -15 638<0 671 50 671> 241 85<-123.5 -110.5>
LayerCount: 2
Fore
SplineSet
623 671 m 1x3a
 591 513 l 1
 511 513 l 1
 511 598 l 2
 511 608 499 611 488 611 c 2
 316 611 l 1
 271 379 l 1
 384 379 l 2
 394 379 409 384 412 394 c 2
 433 464 l 1
 506 464 l 1
 460 229 l 1
 386 229 l 1
 396 304 l 2
 398 312 383 318 374 318 c 2
 259 318 l 1
 209 60 l 1
 422 60 l 2
 432 60 447 66 450 74 c 2
 482 174 l 1
 561 174 l 1
 526 0 l 1
 -15 0 l 1x3a
 -15 50 l 1
 15 53 45 55 45 55 c 2
 60 56 65 58 67 71 c 2
 171 601 l 2
 174 613 166 615 153 616 c 2
 153 616 123 618 96 621 c 1x56
 96 671 l 1
 623 671 l 1x3a
438 -177 m 1x81
 413 -188 362 -208 336 -208 c 0
 293 -208 241 -191 241 -140 c 0
 241 -81 301 -28 348 1 c 1
 411 1 l 1
 374 -23 326 -63 326 -111 c 0
 326 -136 344 -150 368 -150 c 0
 381 -150 405 -133 417 -125 c 1
 438 -177 l 1x81
EndSplineSet
Substitution2: "'c2sc' Capitals to Small Capitals in Latin lookup 17 subtable" eogonek.sc
Substitution2: "'c2sc' Capitals to Small Capitals in Cyrillic lookup 16 subtable" eogonek.sc
Substitution2: "'c2sc' Capitals to Small Capitals lookup 15 subtable" eogonek.sc
EndChar

StartChar: eogonek
Encoding: 281 281 217
Width: 479
Flags: MW
HStem: -208 58<219.5 278.5> -12 70<219 262.5> 444 56<267 313>
VStem: 33 139<143.5 183.5 143.5 250> 146 85 333 130<365.5 407.5>
LayerCount: 2
Fore
SplineSet
322 -125 m 1x88
 342 -177 l 1
 317 -188 267 -208 241 -208 c 0
 198 -208 146 -191 146 -140 c 0
 146 -81 205 -28 252 1 c 1
 369 36 l 1
 279 -17 230 -63 230 -111 c 0
 230 -136 248 -150 272 -150 c 0
 285 -150 310 -133 322 -125 c 1x88
463 395 m 0x74
 463 290 308 230 175 219 c 1
 174 207 172 189 172 178 c 0
 172 109 191 58 247 58 c 0
 290 58 330 90 440 185 c 1
 440 90 l 1
 401 52 311 -12 214 -12 c 0
 127 -12 33 26 33 174 c 0
 33 326 150 500 321 500 c 0
 419 500 463 425 463 395 c 0x74
333 396 m 0
 333 419 328 444 298 444 c 0
 236 444 200 344 182 271 c 1
 251 287 333 335 333 396 c 0
EndSplineSet
Substitution2: "'smcp' Lowercase to Small Capitals in Latin lookup 14 subtable" eogonek.sc
Substitution2: "'smcp' Lowercase to Small Capitals in Cyrillic lookup 13 subtable" eogonek.sc
Substitution2: "'smcp' Lowercase to Small Capitals lookup 12 subtable" eogonek.sc
Substitution2: "'aalt' Access All Alternates lookup 0 subtable" eogonek.sc
EndChar

StartChar: Ecaron
Encoding: 282 282 218
Width: 600
Flags: MW
HStem: 0 55<45 45 45 526> 0 60<209 422 422 427 209 526> 318 61<271 374 259 384> 611 60<316 488 316 316> 616 55<153 153> 746 171<323 329 246 441 323 323>
VStem: -15 638<0 671 50 671> 246 340<917 917>
LayerCount: 2
Fore
SplineSet
623 671 m 1x72
 591 513 l 1
 511 513 l 1
 511 598 l 2
 511 608 499 611 488 611 c 2
 316 611 l 1
 271 379 l 1
 384 379 l 2
 394 379 409 384 412 394 c 2
 433 464 l 1
 506 464 l 1
 460 229 l 1
 386 229 l 1
 396 304 l 2
 398 312 383 318 374 318 c 2
 259 318 l 1
 209 60 l 1
 422 60 l 2
 432 60 447 66 450 74 c 2
 482 174 l 1
 561 174 l 1
 526 0 l 1
 -15 0 l 1x72
 -15 50 l 1
 15 53 45 55 45 55 c 2
 60 56 65 58 67 71 c 2
 171 601 l 2
 174 613 166 615 153 616 c 2
 153 616 123 618 96 621 c 1xaa
 96 671 l 1
 623 671 l 1x72
586 917 m 1x05
 441 746 l 1
 323 746 l 1
 246 917 l 1
 329 917 l 1
 398 823 l 1
 503 917 l 1
 586 917 l 1x05
EndSplineSet
Substitution2: "'c2sc' Capitals to Small Capitals in Latin lookup 17 subtable" ecaron.sc
Substitution2: "'c2sc' Capitals to Small Capitals in Cyrillic lookup 16 subtable" ecaron.sc
Substitution2: "'c2sc' Capitals to Small Capitals lookup 15 subtable" ecaron.sc
EndChar

StartChar: ecaron
Encoding: 283 283 219
Width: 479
Flags: MW
HStem: -12 70<219 262.5> 444 56<267 313> 551 171<262 268 185 380 262 262>
VStem: 33 139<143.5 183.5 143.5 250> 185 340<722 722> 333 130<365.5 407.5>
LayerCount: 2
Fore
SplineSet
463 395 m 0xd4
 463 290 308 230 175 219 c 1
 174 207 172 189 172 178 c 0
 172 109 191 58 247 58 c 0
 290 58 330 90 440 185 c 1
 440 90 l 1
 401 52 311 -12 214 -12 c 0
 127 -12 33 26 33 174 c 0
 33 326 150 500 321 500 c 0
 419 500 463 425 463 395 c 0xd4
333 396 m 0
 333 419 328 444 298 444 c 0
 236 444 200 344 182 271 c 1
 251 287 333 335 333 396 c 0
525 722 m 1x28
 380 551 l 1
 262 551 l 1
 185 722 l 1
 268 722 l 1
 337 628 l 1
 442 722 l 1
 525 722 l 1x28
EndSplineSet
Substitution2: "'smcp' Lowercase to Small Capitals in Latin lookup 14 subtable" ecaron.sc
Substitution2: "'smcp' Lowercase to Small Capitals in Cyrillic lookup 13 subtable" ecaron.sc
Substitution2: "'smcp' Lowercase to Small Capitals lookup 12 subtable" ecaron.sc
Substitution2: "'aalt' Access All Alternates lookup 0 subtable" ecaron.sc
EndChar

StartChar: Gcircumflex
Encoding: 284 284 220
Width: 729
Flags: MW
HStem: -16 63<350 386 350 395.5> 275 55<473 473> 623 64<426.5 503.5> 746 171<310 573 310 573 566 573 455 650 566 566>
VStem: 48 152<216 369.5 173 393.5> 310 340<746 746>
LayerCount: 2
Fore
SplineSet
717 279 m 1
 649 274 l 2
 640 273 637 268 635 259 c 2
 589 26 l 1
 533 10 438 -16 353 -16 c 0
 98 -16 48 163 48 269 c 0
 48 518 259 687 500 687 c 0
 576 687 626 675 707 650 c 1
 670 468 l 1
 585 468 l 1
 594 581 l 2
 595 593 582 599 568 604 c 0
 555 608 519 623 488 623 c 0
 365 623 200 485 200 254 c 0
 200 92 327 47 373 47 c 0
 399 47 435 56 453 61 c 1
 492 259 l 2
 494 271 489 274 473 275 c 2
 473 275 444 277 417 279 c 1
 417 330 l 1
 717 330 l 1
 717 279 l 1
650 746 m 1
 566 746 l 1
 499 841 l 1
 393 746 l 1
 310 746 l 1
 455 917 l 1
 573 917 l 1
 650 746 l 1
EndSplineSet
Substitution2: "'c2sc' Capitals to Small Capitals in Latin lookup 17 subtable" gcircumflex.sc
Substitution2: "'c2sc' Capitals to Small Capitals in Cyrillic lookup 16 subtable" gcircumflex.sc
Substitution2: "'c2sc' Capitals to Small Capitals lookup 15 subtable" gcircumflex.sc
EndChar

StartChar: gcircumflex
Encoding: 285 285 221
Width: 485
Flags: MW
HStem: -229 56<169 255.5 169 259.5> 417 58<441 533 441 441> 448 52<265 295> 551 171<125 388 125 388 381 388 271 465 381 381>
VStem: -31 136<-83.5 -45> 49 138<265.5 334 262 343.5> 125 340<551 551> 314 138<329.5 367 305.5 383.5> 325 135<-98.5 -71.5>
LayerCount: 2
Fore
SplineSet
533 417 m 1xc5
 441 417 l 1
 447 402 452 379 452 355 c 0xc5
 452 256 375 160 230 159 c 1
 223 140 219 119 221 108 c 1
 354 48 l 2
 418 20 460 -5 460 -63 c 0
 460 -147 335 -229 184 -229 c 0
 26 -229 -31 -151 -31 -79 c 0xa880
 -31 -11 28 35 103 61 c 1
 98 92 115 145 141 172 c 1
 88 197 49 234 49 297 c 0
 49 390 119 500 274 500 c 0xa5
 324 500 368 483 387 475 c 1
 533 475 l 1
 533 417 l 1xc5
314 360 m 0xa5
 314 407 314 448 276 448 c 0
 254 448 187 383 187 285 c 0
 187 239 191 206 224 206 c 0
 290 206 314 299 314 360 c 0xa5
325 -83 m 0xa880
 325 -60 313 -40 276 -23 c 2
 164 26 l 1
 120 9 105 -25 105 -62 c 0
 105 -105 128 -173 210 -173 c 0
 301 -173 325 -114 325 -83 c 0xa880
465 551 m 1x12
 381 551 l 1
 314 646 l 1
 208 551 l 1
 125 551 l 1
 271 722 l 1
 388 722 l 1
 465 551 l 1x12
EndSplineSet
Substitution2: "'ss07' Style Set 7 in Latin lookup 35 subtable" gcircumflex.SngBowl
Substitution2: "'ss07' Style Set 7 in Cyrillic lookup 34 subtable" gcircumflex.SngBowl
Substitution2: "'ss07' Style Set 7 lookup 33 subtable" gcircumflex.SngBowl
Substitution2: "'smcp' Lowercase to Small Capitals in Latin lookup 14 subtable" gcircumflex.sc
Substitution2: "'smcp' Lowercase to Small Capitals in Cyrillic lookup 13 subtable" gcircumflex.sc
Substitution2: "'smcp' Lowercase to Small Capitals lookup 12 subtable" gcircumflex.sc
AlternateSubs2: "'aalt' Access All Alternates lookup 1 subtable" gcircumflex.sc gcircumflex.SngBowl
EndChar

